<svg width="400" height="400" viewBox="0 0 400 400" fill="none" xmlns="http://www.w3.org/2000/svg">
<path d="M358.522 283.382C346.046 270.95 331.36 272.048 329.642 271.634C328.614 253.466 313.908 221.748 302.302 205.924C284.964 182.288 268.766 176.412 244.186 170.776C236.786 169.078 229.068 167.376 221.654 169.046C216.465 170.318 211.788 173.145 208.25 177.148C204.711 181.152 202.48 186.14 201.854 191.446C197.815 191.815 193.974 193.366 190.811 195.906C187.649 198.446 185.306 201.862 184.075 205.727C182.844 209.592 182.78 213.734 183.891 217.635C185.001 221.536 187.238 225.023 190.32 227.66C182.948 230.18 180.216 239.958 182.904 247.27C188.476 262.422 207.304 266.13 217.07 278.174C224.908 287.834 226.292 302.252 236.704 309.886C242.38 314.21 248.566 317.821 255.122 320.638C256.734 321.29 275.792 326.254 275.766 325.118C275.966 333.844 280.928 338.296 278.396 336.118C290.572 359.904 302.364 362.038 324.264 349.974C332.134 345.638 340.054 341.074 346.246 334.56C356.486 323.782 369.772 294.6 358.522 283.382Z" fill="white"/>
<path d="M271.472 310.2C265.13 308.534 260.39 304.512 260.802 303.968C261.17 303.48 265.65 306.558 271.992 308.224C278.334 309.89 283.746 309.414 283.828 310.024C283.904 310.588 278.264 311.988 271.472 310.2Z" fill="black"/>
<path d="M266.276 202.922C267.276 203.34 263.646 211.962 263.476 221.056C263.228 234.468 268.536 230.78 261.316 233.416C256.048 218.896 265.106 202.426 266.276 202.922Z" fill="black"/>
<path d="M364.4 290.846C360.84 279.366 343.726 271.284 330.236 270.372C328.672 249.838 318.416 228.434 307.562 210.922C292.632 186.54 270.34 172.9 242.27 168.122C229.802 165.964 215.318 165.686 206.304 174.736C204.222 176.753 202.59 179.188 201.515 181.88C200.44 184.572 199.946 187.461 200.066 190.358C184.532 192.346 171.25 211.292 187.466 226.63C176.482 230.858 179.39 246.514 186.218 256.256C193.096 265.812 202.15 264.418 213.282 277.38C224.824 290.636 221.234 299.396 236.294 311.78C247.028 320.48 259.402 325.98 273.91 326.13C273.524 328.916 274.041 331.752 275.386 334.222C282.97 349.668 293.322 362.022 310.048 358.672C348.41 350.948 369.338 307.316 364.4 290.846ZM359.656 302.78C357.037 313.094 352.174 322.703 345.415 330.921C338.655 339.139 330.165 345.764 320.55 350.324C303.808 357.784 292.256 358.352 278.476 332.704C277.227 330.731 276.742 328.37 277.112 326.064C293.454 325.238 306.058 316.036 305.596 315.362C305.134 314.644 295.424 321.802 280.386 322.882C257.452 324.682 235.466 310.496 228.036 294.984C225.074 288.844 223 282.314 216.38 274.71C205.1 261.58 195.362 261.976 189.558 253.894C183.694 245.558 180.506 231.294 191.4 229.83C194.644 232.132 207.144 239.52 210.588 241.54C215.274 244.226 216.588 242.118 212.166 239.054C200.132 230.81 195.51 228.09 192.63 225.794C175.782 212.338 187.194 195.994 200.562 193.13C203.062 204.382 223.7 207.984 244.228 221.694C242.039 224.373 240.188 227.312 238.718 230.444L242.418 232.176C248.852 218.418 258.734 212.976 257.974 211.742C257.528 210.972 251.842 213.768 246.988 218.632C234.428 210.132 217.788 203.734 208.954 197.972C201.73 193.194 203.25 183.572 209.198 177.622C222.428 163.944 258.198 174.022 274.716 183.822C292.552 194.338 301.716 207.822 310.952 224.288C319.752 240.002 330.638 265.824 327.452 283.488C325.102 296.088 316.652 304.818 317.204 305.278C317.676 305.678 329.216 293.538 330.33 279.812C330.424 278.668 330.472 275.462 330.408 273.502C339.297 274.587 347.682 278.221 354.552 283.966C361.096 289.662 361.582 294.384 359.648 302.78H359.656Z" fill="black"/>
<path d="M200.89 355.362C193.69 335.194 176.746 338.102 182.69 331.694C196.904 316.368 190.438 286.694 154.364 271.094C160.164 266.064 166.022 260.952 170.258 254.556C182.296 236.386 172.7 218.672 159.158 218.794C160.574 215.887 161.134 212.637 160.77 209.423C160.407 206.21 159.137 203.166 157.107 200.649C155.077 198.131 152.373 196.243 149.31 195.207C146.247 194.17 142.951 194.027 139.81 194.794C136.824 195.538 136.322 194.722 136.23 192.514C135.982 186.546 130.352 181.862 124.462 180.864C111.13 178.602 76.104 194.294 55.25 232.664C52.7351 236.987 50.8786 241.66 49.742 246.53C46.034 264.862 61.542 313.076 100.942 345.996C90.102 349.034 89.202 370.742 94.968 378.36C96.8937 380.703 99.308 382.596 102.042 383.908C117.946 392.296 137.112 390.376 154.902 387.766C169.29 385.656 198.634 378.434 201.846 364.166C202.359 361.2 202.028 358.149 200.89 355.362Z" fill="white"/>
<path d="M165.52 312.186C166.262 321.754 161.52 328.07 160.996 327.728C160.288 327.27 164.258 322.358 163.484 312.344C162.814 303.676 158.946 297.36 159.546 297.064C160.06 296.748 164.838 303.374 165.52 312.186Z" fill="black"/>
<path d="M63.352 277.876C64.034 277.614 68.538 289.984 78.996 306.09C89.622 322.458 98.936 331.33 98.396 331.86C98.216 332.04 95.43 329.68 91.396 325.376C71.918 304.564 62.52 278.2 63.352 277.876Z" fill="black"/>
<path d="M203.554 356.388C202.2 351.425 199.701 346.849 196.256 343.028C192.812 339.207 188.519 336.247 183.722 334.388C200.616 317.93 188.97 282.962 156.838 271.388C160.25 268.901 163.344 266.005 166.05 262.764C186.952 238.864 176.594 219.638 161.836 218.228C165.31 200.194 151.154 189.076 138.122 193.242C137.414 183.738 127.78 177.734 117.372 178.842C89.84 181.818 53.664 221.614 48.432 245.54C43.618 267.41 66.052 322.552 98.432 345.018C92.14 349.336 89.124 354.938 89.194 363.386C89.418 372.756 92.268 380.734 100.746 384.56C122.508 394.53 154.278 390.498 177.188 384.588C193.864 380.294 207.502 373.012 203.554 356.388ZM190.44 374.668C176.462 382.236 130.688 390.976 106.362 381.868C100.258 379.402 95.904 376.796 94.408 368.976C91.902 356.72 95.7 349.99 106.156 344.79C114.066 340.868 123.664 339.17 123.522 338.312C123.396 337.556 110.372 338.404 100.964 343.498C69.954 321.472 47.784 267.08 52.396 246.432C58.866 217.032 112.796 166.722 131.806 187.052C135.552 190.996 135.448 194.896 133.048 199.69C128.745 207.62 122.77 214.519 115.536 219.91L117.09 222.028C125.368 216.076 136.064 204.576 137.89 196.194C147.87 193.194 159.394 200.416 158.184 214.77C157.346 226.904 147.522 235.702 139.122 243.488L140.798 245.512C149.55 238.884 158.156 231.312 161.214 220.834C164.406 221.35 167.34 222.903 169.562 225.252C171.783 227.602 173.17 230.618 173.506 233.834C175.062 245.802 166.226 257.496 158.078 266.398C155.038 269.902 153.18 269.808 153.334 270.24C152.492 269.986 143.934 267.606 143.68 268.426C143.092 270.378 167.894 274.68 180.664 294.176C188.974 306.684 191.052 323.738 178.922 333.176C165.97 330.848 139.482 335.498 139.574 336.272C139.718 337.49 160.006 336.292 167.774 336.44C173.103 336.3 178.408 337.21 183.386 339.118C196.284 344.836 208.25 365.224 190.44 374.668Z" fill="black"/>
<path d="M63.016 61.1559C64.2116 64.241 66.5658 66.7366 69.576 68.1099C70.8554 68.0798 72.0843 67.6053 73.052 66.7679C74.1948 65.2604 74.9186 63.4775 75.15 61.5999C74.5791 57.8267 73.6338 54.1197 72.328 50.5339C75.521 52.1844 78.2276 54.6401 80.18 57.6579C86.98 68.2019 87.136 73.9059 85.522 80.9139C82.35 94.6819 68.722 102.938 54.362 99.8659C43.35 97.5099 36.392 86.1859 36.518 82.4759C38.8701 84.4314 41.6577 85.793 44.646 86.4459C46.2773 87.0782 48.022 87.3651 49.7698 87.2883C51.5176 87.2115 53.2305 86.7728 54.8 85.9999C55.5747 85.6795 56.2418 85.1445 56.7226 84.4577C57.2035 83.771 57.4782 82.9612 57.5143 82.1236C57.5505 81.2861 57.3466 80.4556 56.9266 79.73C56.5067 79.0044 55.8882 78.4139 55.144 78.0279C51.506 75.5779 45.8 76.8759 43.554 73.3319C42.9857 72.0734 42.7428 70.6922 42.8477 69.3153C42.9525 67.9384 43.4017 66.6099 44.154 65.4519C45.208 63.6799 53.954 55.9339 41.284 49.3699L42.94 48.4979C46.314 49.1559 50.102 48.2059 53.166 49.7619C54.3327 50.4755 55.4426 51.2778 56.486 52.1619C58.4347 53.2038 60.0582 54.7629 61.178 56.6679C62.0706 58.0334 62.6945 59.5566 63.016 61.1559Z" fill="#FDFE1F"/>
<path d="M83 60.33C78.2 52.558 71.876 49.676 71.692 50.048C71.292 50.28 75.154 56.598 74.038 62.618C73.322 66.556 70.238 67.964 68.114 66.672C64.214 64.378 63.446 56.366 58.45 52.024C50.19 44.564 39.742 48.918 40.192 49.808C40.192 50.028 41.234 50.078 42.792 50.844C43.6806 51.2582 44.4732 51.8527 45.1197 52.5897C45.7662 53.3267 46.2523 54.1901 46.5472 55.125C46.8421 56.06 46.9394 57.0461 46.8328 58.0206C46.7262 58.9951 46.4181 59.9369 45.928 60.786C44.528 63.34 41.464 65.786 41.2 69.554C40.706 77.852 50.478 77.818 52.71 78.498C59.804 80.66 56.636 87.728 45.818 85.932C39.584 84.914 36.56 81.754 36.188 82.174C35.87 82.22 36.404 89.196 43.622 95.474C66 114.77 100.068 88.692 83 60.33ZM85.128 76.488C84.63 89.4 71.952 100.542 59.37 99.556C54.4005 99.2227 49.6275 97.4859 45.606 94.5473C41.5845 91.6088 38.4795 87.5893 36.652 82.956C42.876 90.038 59.126 90.598 59.094 81.892C59.094 77.462 54.094 75.842 49.694 75.126C43.946 74.176 42.694 70.386 44.59 67.074C46.244 63.994 49.884 60.954 48.696 55.92C48.365 54.3106 47.5464 52.8422 46.3517 51.7143C45.1569 50.5864 43.6438 49.8538 42.018 49.616C44.2621 49.2003 46.5663 49.2323 48.798 49.71C57.884 51.686 59.618 57.966 62.382 63.73C69.342 77.662 82.434 65.208 73.414 51.842C72.28 50.16 85.8 61.112 85.132 76.488H85.128Z" fill="black"/>
<path d="M120.292 45.694C121.692 47.022 121.348 49.234 121.274 50.866C120.64 64.93 131.786 60.102 131.688 52.416C134.032 54.182 134.14 57.32 134.668 59.454C135.509 62.0134 135.759 64.73 135.4 67.4C134.253 71.0175 132.303 74.3287 129.696 77.086C112.146 94.394 91.04 71.486 95.896 60.646C97.426 61.646 97.93 63.61 98.946 65.126C101.746 69.29 110.286 67.506 110.016 64.472C109.816 62.172 106.426 61.088 104.876 58.518C104.199 57.2019 103.992 55.6942 104.288 54.2442C104.584 52.7942 105.367 51.4888 106.506 50.544C109.706 47.828 115.934 46.628 110.782 39.744C112.87 38.536 118.698 44.176 120.292 45.694Z" fill="#FDFE1F"/>
<path d="M136.136 61.8899C135.336 55.2739 131.644 50.9699 131.24 51.3119C130.768 51.3999 131.224 54.2439 129.682 56.7119C127.808 59.7119 122.576 60.5119 122.502 54.2259C122.364 47.4259 122.712 41.3919 112.456 39.3299C110.596 38.9299 110.17 39.1539 111.168 41.4259C113.4 46.5199 108 46.4999 104.62 50.8799C103.633 52.0142 103.039 53.4373 102.927 54.9369C102.815 56.4364 103.192 57.9319 104 59.1999C105.518 61.3139 108.536 62.6159 108.462 64.2539C108.616 67.8539 100.698 68.3759 97.028 61.1019C96.496 59.9999 96.294 59.3019 96.09 59.3279C95.954 59.2599 95.238 60.2219 94.902 62.2939C93.068 73.6639 106.236 86.9539 120.278 83.6719C125.161 82.6723 129.495 79.8841 132.429 75.8544C135.362 71.8247 136.685 66.8442 136.136 61.8899ZM105.97 78.6519C103.095 76.9697 100.677 74.6059 98.9314 71.7689C97.1854 68.9319 96.1642 65.7088 95.958 62.3839C95.938 58.0119 95.274 66.0899 102.422 68.6859C107.442 70.4359 110.992 67.7019 111.13 64.2639C111.166 60.0939 105.808 59.1099 105.58 55.9619C104.916 49.4059 117.27 48.0479 112.084 40.8919C110.944 39.4919 111.006 39.6919 112.084 40.3259C114.188 41.4999 114.642 41.6019 115.84 42.3859C122.812 46.8759 117.84 54.0079 120.898 58.9299C123.916 64.0619 133.122 61.0159 131.994 53.1859C141.1 72.7799 121.066 87.9699 105.97 78.6519Z" fill="black"/>
<path d="M53.83 198.336C51.532 194.736 48.744 191.276 44.584 190.296C48.362 198.752 43.832 202.322 40.936 200.03C37.32 197.168 35.886 185.954 27.106 186.77C25.374 186.93 23.448 186.252 21.612 188.202C21.232 188.602 21.542 188.878 22.072 189.026C25.892 190.09 27.984 195.12 25.112 200.124C24.346 201.458 23.274 202.846 23.58 204.354C24.354 208.154 31.752 207.498 33.498 209.302C37.456 213.392 27.828 219.012 20.44 213.8C20.3497 214.435 20.5096 215.081 20.886 215.6C24.452 221.836 33.258 227.34 44.486 223.378C55.776 219.4 58.322 205.4 53.83 198.336Z" fill="#FDFE1F"/>
<path d="M57.6 207.134C57.176 193.632 44.218 188.656 43.882 189.682C43.548 190.062 45.394 191.55 45.148 195.314C45.034 196.98 44.098 199.556 42.802 199.682C41.054 200.126 39.632 196.728 38.974 195.052C37.774 192.01 36.856 189.634 33.974 187.728C32.2685 186.548 30.2649 185.872 28.193 185.779C26.121 185.685 24.0647 186.178 22.26 187.2C20.048 188.63 21.16 188.634 22.716 189.572C23.8595 190.237 24.7255 191.291 25.1555 192.542C25.5856 193.793 25.5509 195.157 25.058 196.384C24.354 198.308 20.34 201.198 22.778 205.61C25.344 210.546 32.32 207.916 32.778 211.192C33.084 213.672 28.578 216.832 21.624 213.684C19.662 212.756 18.824 212.026 20.6 215.848C22.1751 218.977 24.5692 221.621 27.5276 223.497C30.486 225.374 33.8979 226.413 37.4 226.504C47.6 227.02 58.114 218 57.6 207.134ZM49.708 219.054C41.968 226.308 28.894 226.254 20.954 214.49C25.71 218.454 32.318 217.512 34.616 213.93C35.2483 213.011 35.5116 211.888 35.3533 210.784C35.1951 209.68 34.627 208.676 33.762 207.972C30.622 205.448 26.7 207.236 25.132 204.348C23.532 201.364 26.368 199.992 27.198 197.11C27.5402 196.197 27.6732 195.219 27.5872 194.248C27.5012 193.276 27.1984 192.337 26.7012 191.498C26.2039 190.66 25.5249 189.943 24.714 189.402C23.9032 188.86 22.9812 188.508 22.016 188.37C23.7472 187.715 25.6138 187.5 27.4485 187.745C29.2831 187.989 31.0285 188.685 32.528 189.77C36.652 192.858 36.262 199.644 40.63 201.814C43.922 203.516 47.358 200.202 47.074 195.304C46.812 191.232 44.246 189.94 46.314 191.324C55.892 197.762 58.512 211.024 49.706 219.054H49.708Z" fill="black"/>
<path d="M264.27 293.95C267.012 291.534 268.847 288.253 269.47 284.652C274.984 262.508 265.544 241.24 260.288 225.206C256.012 212.16 223.982 119.794 221.424 113.92C218.278 106.692 217.106 99.53 211.772 93.198C207.823 88.3163 202.315 84.942 196.172 83.642C186.844 81.924 154.548 87.424 143.458 90.412C115.512 97.944 87.038 99.344 76.692 105.294C73.1243 107.568 70.1046 110.605 67.8496 114.185C65.5947 117.765 64.1605 121.8 63.65 126C62.05 138.462 73.284 167.186 74.568 174.472C74.902 176.364 74.612 178.224 74.968 180.112C76.984 190.592 87.262 205.254 87.262 211.742C88.602 216.342 89.166 220.994 91.036 225.404C90.984 225.26 91.196 225.136 91.334 225.204C92.106 225.572 93.746 234.966 96.492 240.292C104.398 255.632 104.46 259.948 108.292 270.148C110.798 276.832 114.104 283.204 116.372 289.972C118.014 294.87 119.106 299.972 121.134 304.714C126.966 318.386 135.782 319.422 149.182 317.794C175.648 314.58 178.614 314.662 183.678 311.74C186.102 312.998 184.948 312.628 241.768 302.314C249.166 300.976 258.484 298.966 264.27 293.95Z" fill="#FFC5F6"/>
<path d="M240.91 230.12C236.71 218.814 244.744 236.52 222.622 179.42C217.906 167.244 203.812 124.02 200.462 117.45C199.603 116.01 199.037 114.415 198.794 112.756C198.297 111.295 197.437 109.984 196.294 108.947C195.151 107.911 193.763 107.182 192.26 106.83C189.425 106.342 186.516 106.499 183.75 107.288C105.872 123.41 103.75 120.688 96.736 130.318C92.62 135.974 96.506 134.946 123.046 219.598C123.968 222.538 125.992 225.198 127.03 228.164C129.186 234.322 127.172 231.148 135.472 254.274C142.6 274.14 139.89 271.178 142.306 275.722C143.651 278.194 145.801 280.132 148.4 281.212C151.46 282.31 154.803 282.336 157.88 281.286C166.69 279.15 194.126 275.486 195.006 275.35C198.742 274.808 198.85 273.82 223.206 269.67C242.542 266.374 243.23 266.17 244.65 265.3C246.815 263.573 248.417 261.24 249.25 258.598C249.856 255 242.158 233.472 240.91 230.12Z" fill="#92FCFF"/>
<path d="M169.25 123.564C179.28 120.824 177.436 122.546 183.428 121.496C185.176 121.19 186.028 119.696 190.284 122.512C194.658 125.39 199.63 148.532 206.538 164.628C207.848 167.68 208.28 170.698 209.38 173.828C215.018 189.886 217.86 194.228 217.328 197.864C216.364 204.464 209.128 204.22 203.396 205.914C193.674 208.79 183.328 209.17 173.678 212.282C173.181 212.343 172.681 212.373 172.18 212.372C170.98 212.572 156.124 216.658 142.406 218.86C133.766 220.248 130.878 205.042 127.878 194.328C126.778 190.392 112.844 154.966 112.562 150.872C112.262 150.438 111.418 150.91 111.63 151.392C111.842 151.874 112.76 151.57 112.642 151.056C111.412 145.752 108.8 142.734 111.384 137.93C114.984 131.238 121.93 133.638 145.95 128.308C160.298 125.128 161.614 125.648 169.25 123.564Z" fill="#FDFE1F"/>
<path d="M216.514 215.266C218.196 217.466 223.604 214.132 227.928 227.456C240.284 265.532 239.28 249.812 162.416 268.156C158.372 269.122 155.176 269.18 152.182 264.92C149.886 261.656 146.528 250.152 145.148 245.584C138.768 224.446 153.97 229.784 171.856 224.654C171.952 224.626 211.224 216.22 216.514 215.266Z" fill="#FDFE1F"/>
<path d="M173.188 248.082C172.966 247.189 172.545 246.359 171.957 245.652C171.368 244.946 170.626 244.382 169.788 244.004C170.838 240.214 170.268 237.238 166.988 235.12C161.828 231.796 158.06 235.72 154.362 236.244C153.795 236.382 153.286 236.695 152.905 237.137C152.524 237.579 152.291 238.129 152.238 238.71C151.89 241.186 156.562 254.732 157.638 256.994C160.148 262.268 162.934 262.314 166.734 260.576C172.638 257.868 175.55 254.824 173.188 248.082Z" fill="white"/>
<path d="M191.38 241.4C191.248 241.358 191.342 241.646 191.462 241.574C191.582 241.502 191.554 241.324 191.512 241.19C189.358 234.418 189.086 233.274 188.152 231.87C185.984 228.614 182.368 229.132 181.614 231.414C180.738 234.068 184.65 239.506 186.188 243.542C187.776 247.708 185.886 249.742 184.614 249.656C182.486 249.496 179.394 242.154 178.74 237.95C178.412 235.838 178.284 233.138 176.22 231.854C175.6 231.474 174.875 231.302 174.15 231.361C173.425 231.421 172.738 231.71 172.188 232.186C171.638 232.663 171.254 233.302 171.092 234.011C170.929 234.72 170.996 235.462 171.284 236.13C173.664 241.554 173.932 251.032 179.034 254.93C180.207 255.781 181.576 256.324 183.013 256.508C184.451 256.692 185.912 256.512 187.262 255.984C188.612 255.456 189.807 254.598 190.739 253.487C191.67 252.376 192.307 251.049 192.592 249.628C192.996 246.826 192.575 243.967 191.38 241.4Z" fill="white"/>
<path d="M190.312 228.266C189.79 228.473 189.324 228.801 188.954 229.223C188.584 229.646 188.319 230.15 188.182 230.695C188.046 231.24 188.04 231.809 188.167 232.357C188.294 232.904 188.549 233.413 188.912 233.842C191.498 236.712 194.295 239.387 197.278 241.842C198.018 242.48 198.2 242.806 197.968 244.052C196.852 250.072 196.498 251.082 197.046 252.162C197.389 252.748 197.87 253.242 198.447 253.6C199.023 253.959 199.679 254.171 200.356 254.22C202.78 254.092 203.414 251.284 203.836 249.242C205.684 240.3 210.296 231.382 207.5 226.506C207.333 226.098 207.085 225.727 206.772 225.417C206.459 225.106 206.087 224.862 205.677 224.698C205.267 224.534 204.829 224.455 204.388 224.464C203.947 224.473 203.512 224.571 203.11 224.752C201.734 225.552 201.46 227.412 200.522 230.85C199.604 234.218 197.61 234.086 196.398 232.488C194.884 230.512 193.562 227.112 190.312 228.266Z" fill="white"/>
<path d="M132.76 213.934L109.2 144.728C108.823 143.536 108.699 142.278 108.837 141.035C108.974 139.792 109.371 138.591 110 137.511C110.629 136.43 111.477 135.492 112.489 134.759C113.502 134.025 114.657 133.511 115.88 133.25L183.696 119.962C185.82 119.516 188.033 119.855 189.926 120.915C191.82 121.976 193.265 123.686 193.994 125.73C220.228 200.426 219.406 196.468 216.9 200.93C214.16 205.82 215.744 204.508 143.178 220.014C140.996 220.488 138.715 220.126 136.786 219.001C134.857 217.875 133.421 216.067 132.76 213.934ZM111.76 138.534C109.498 142.406 110.36 138.91 134.704 213.306C135.218 214.952 136.326 216.347 137.812 217.22C139.298 218.093 141.056 218.382 142.744 218.03L210.492 203.338C211.458 203.134 212.37 202.726 213.166 202.142C213.962 201.557 214.623 200.809 215.106 199.947C215.589 199.086 215.883 198.131 215.967 197.147C216.051 196.163 215.924 195.173 215.594 194.242C199.522 148.6 233.454 244.262 192.056 126.4C191.487 124.825 190.368 123.508 188.906 122.692C187.443 121.875 185.736 121.614 184.096 121.956C111.854 136.716 114 134.692 111.758 138.528L111.76 138.534Z" fill="black"/>
<path d="M198.714 110.12C196.248 107.707 192.963 106.314 189.514 106.22C187.65 106.16 192.574 104.87 107.82 121.732C104.868 122.004 102.044 123.063 99.642 124.8C97.8339 126.209 96.4256 128.067 95.557 130.188C94.6883 132.31 94.3895 134.621 94.69 136.894C94.97 139.076 140.522 274.84 141.104 275.894C142.584 278.9 145.155 281.228 148.292 282.404C152.652 284.05 155.462 283.052 160.292 282.178C229.492 269.638 257.36 263.24 190.034 274.856C151.378 281.526 152.91 281.81 149.092 280.338C144.526 278.578 143.198 275.338 142.136 272.138C97.872 138.6 97.358 138.872 97.068 136.558C96.8286 134.705 97.0763 132.821 97.7865 131.093C98.4966 129.365 99.6449 127.851 101.118 126.702C104.194 124.374 99.012 125.882 181.554 109.902C186.044 109.034 190.336 107.644 193.894 109.644C198.06 111.988 196.6 110.382 202.266 125.87C252.876 264.204 249.524 256.67 247.904 260.36C245.612 265.594 240.936 265.73 238.546 266.306C214.112 272.198 242.108 266.896 244.272 265.852C246.558 264.702 248.343 262.755 249.292 260.378C250.241 258.002 250.287 255.36 249.422 252.952C231.838 201.368 199.988 111.824 198.714 110.12Z" fill="black"/>
<path d="M159.318 269.662C157.145 269.661 155.031 268.956 153.292 267.653C151.553 266.35 150.283 264.519 149.672 262.434L142.78 240.904C142.348 239.571 142.202 238.162 142.351 236.769C142.5 235.376 142.94 234.029 143.643 232.818C144.347 231.606 145.297 230.555 146.433 229.735C147.569 228.915 148.865 228.343 150.236 228.056L214.98 214.948C217.404 214.48 219.915 214.906 222.048 216.149C224.181 217.391 225.791 219.365 226.58 221.704C230.29 232.348 228.71 227.324 234.46 244.016C234.911 245.325 235.078 246.715 234.951 248.094C234.824 249.473 234.406 250.809 233.724 252.014C233.043 253.219 232.113 254.266 230.996 255.084C229.88 255.903 228.602 256.476 227.248 256.764C219.688 258.37 161.338 269.662 159.318 269.662ZM216.968 216.8C215.784 216.8 220.206 216.062 150.64 230.064C149.549 230.295 148.518 230.752 147.616 231.408C146.713 232.063 145.958 232.901 145.401 233.867C144.844 234.833 144.496 235.906 144.381 237.015C144.266 238.125 144.385 239.246 144.732 240.306L151.622 261.836C152.197 263.781 153.483 265.439 155.225 266.479C156.967 267.519 159.037 267.865 161.022 267.448C227.074 254.302 215.326 257.214 226.822 254.772C227.893 254.544 228.904 254.091 229.787 253.443C230.67 252.795 231.405 251.968 231.945 251.014C232.484 250.061 232.814 249.004 232.915 247.914C233.015 246.823 232.882 245.724 232.526 244.688C226.762 227.956 228.37 233.05 224.65 222.382C224.109 220.768 223.078 219.364 221.701 218.363C220.324 217.363 218.67 216.816 216.968 216.8Z" fill="black"/>
<path d="M202 255.424C201.325 255.764 200.575 255.926 199.82 255.895C199.066 255.863 198.331 255.639 197.688 255.243C197.044 254.848 196.512 254.294 196.143 253.635C195.774 252.976 195.579 252.233 195.578 251.478C196.534 244.202 196.294 245.97 196.744 242.824C196.984 242.342 189.112 237.314 187.956 232.41C187.594 230.878 188.46 229.708 188.66 229.81C189.49 230.068 186.27 231.21 193.12 237.1C195.802 239.406 198.972 241.7 198.964 241.976C197.84 252.176 197.51 252.264 198.912 253.176C200.042 253.902 201.312 253.692 202.032 251.338C202.094 251.138 205.656 237.228 206.774 232.538C208.75 224.242 204.774 225.614 205.044 224.79C204.918 224.59 209.878 223.844 208.444 232.862C207.992 235.704 207.39 239.242 206.464 242.984C204.41 251.304 204.454 254.016 202 255.424Z" fill="black"/>
<path d="M200.722 226.936C201.87 224.054 204.938 224.15 204.88 224.77C204.896 225.1 203.408 225.24 202.68 226.884C202.08 228.242 203.222 225.114 201.21 232.568C201.076 233.067 200.805 233.519 200.427 233.872C200.049 234.224 199.58 234.464 199.073 234.563C198.565 234.662 198.04 234.616 197.558 234.432C197.075 234.247 196.654 233.93 196.342 233.518C192.632 229.466 192.766 229.078 191.71 228.854C190.17 228.528 189.11 229.816 188.786 229.608C188.4 229.368 189.438 227.22 191.82 227.158C193.482 227.116 194.42 228.21 195.62 229.404C199.684 233.378 198.076 233.584 200.722 226.936Z" fill="black"/>
<path d="M151.688 242.764C150.362 238.432 149.662 236.696 157.05 234.396C160.48 233.328 164 233.504 163.908 233.984C163.87 234.384 161.83 233.76 157.508 235.66C150.764 238.624 151.952 237.572 155.88 248.4C158.202 254.8 159.336 259.876 162.532 260.306C164.727 260.405 166.902 259.855 168.786 258.724C169.96 258.123 170.97 257.244 171.726 256.164C172.482 255.083 172.962 253.833 173.124 252.524C173.286 251.215 173.125 249.886 172.655 248.654C172.185 247.421 171.42 246.323 170.428 245.454C169.076 244.086 168.982 244.592 169.412 243.002C169.757 241.686 169.727 240.299 169.324 238.999C168.921 237.699 168.161 236.538 167.132 235.648C165.462 234.312 164.05 234.248 164.112 234.008C164.092 233.906 165.548 233.55 167.712 234.836C169.046 235.776 170.077 237.084 170.681 238.6C171.285 240.116 171.434 241.774 171.112 243.374C171.04 243.79 171.332 243.496 172.754 245.234C177.852 251.468 175.12 259.972 166.334 262.302C157.062 264.762 156.2 257.494 151.688 242.764Z" fill="black"/>
<path d="M184.674 248.68C186.198 247.48 182.064 237.104 181.162 234.706C179.236 229.582 186.242 228.688 183.742 230.216C180.848 231.764 183.116 234.732 184.456 237.79C185.976 241.258 188.92 247.762 186.33 250.42C179.402 256.22 177.194 233.574 176.92 233.07C176.452 232.21 175.882 231.846 175.978 231.684C176.082 231.37 177.724 232.026 178.25 233.512C178.894 235.702 182.626 250.284 184.674 248.68Z" fill="black"/>
<path d="M184.67 257.774C174.254 258.404 171.932 244.994 170.5 235.594C169.7 231.868 173.858 230.794 173.92 231.332C173.988 231.532 172.884 231.624 172.09 232.864C171.296 234.104 171.666 234.708 172.772 239.246C173.972 244.134 175.754 250.57 179.244 253.59C180.31 254.521 181.618 255.129 183.017 255.344C184.416 255.559 185.846 255.371 187.142 254.803C188.438 254.235 189.546 253.309 190.336 252.135C191.125 250.961 191.564 249.587 191.602 248.172C191.924 242.972 188.48 233.694 187.5 231.794C186.774 230.394 185.9 230.008 185.968 229.842C185.968 229.688 187.168 229.804 188.27 231.264C191.557 236.37 193.467 242.239 193.812 248.302C193.821 250.76 192.871 253.125 191.164 254.894C189.457 256.663 187.127 257.696 184.67 257.774Z" fill="black"/>
<path d="M164.146 241.252C163.95 240.796 163.623 240.409 163.207 240.139C162.791 239.869 162.304 239.728 161.808 239.734C161.312 239.741 160.829 239.894 160.42 240.175C160.011 240.456 159.694 240.851 159.51 241.312C158.99 240.912 158.51 240.824 158.412 241.006C158.194 241.324 158.896 242.176 159.412 243.338C159.96 244.486 160.15 245.572 160.534 245.612C160.734 245.65 160.952 245.266 161.006 244.666C163.274 244.564 164.55 242.89 164.146 241.252ZM162.504 242.852C162.08 243.304 161.562 243.657 160.986 243.886C160.864 243.076 160.505 242.32 159.954 241.714C162.754 240.08 163.386 241.742 162.504 242.854V242.852Z" fill="black"/>
<path d="M167.91 251.448C167.786 250.966 167.521 250.531 167.15 250.2C166.778 249.868 166.316 249.655 165.822 249.587C165.329 249.52 164.826 249.6 164.379 249.819C163.932 250.038 163.559 250.385 163.31 250.816C162.854 250.35 162.398 250.184 162.27 250.348C162.008 250.63 162.576 251.576 162.914 252.802C163.284 254.02 163.314 255.122 163.684 255.22C163.872 255.288 164.15 254.94 164.284 254.354C166.566 254.6 168.064 253.118 167.91 251.448ZM166.048 252.788C165.562 253.175 164.995 253.448 164.39 253.588C164.393 252.769 164.151 251.967 163.696 251.286C166.71 250.062 167.078 251.822 166.048 252.788Z" fill="black"/>
<path d="M273.454 264.472C271.522 244.29 256.576 211.804 225.028 118.458C219.5 102.14 215.408 92.322 205.718 85.7C194 77.644 183.686 80.65 93.98 99.074C85.046 100.906 78.716 101.58 71.244 107.982C67.9486 110.667 65.3887 114.145 63.804 118.09C60.586 128.506 63.994 144.552 66.65 155.09C72.352 177.378 110.524 282.656 121.072 308.926C122.828 312.918 125.807 316.25 129.579 318.439C133.35 320.629 137.72 321.564 142.058 321.11C156.058 319.298 249.76 303.178 250.602 302.952C265.168 299.282 275.564 285.832 273.454 264.472ZM83.154 105.926C87.51 102.91 85.486 103.834 118.686 97.082C131.338 94.512 186.768 81.82 198.83 85.414C204.188 88.043 208.8 91.9736 212.246 96.846C218.308 106.206 225.16 130.988 229.488 142.996C257.676 222.422 278.952 276.086 266.348 279.682C242.372 284.538 172.564 297.314 148.526 300.664C134.566 302.664 132.75 292.874 129.636 284.606C122.852 266.62 72.95 137.752 75.852 118.452C76.0408 115.947 76.7963 113.518 78.0612 111.349C79.3262 109.179 81.0676 107.324 83.154 105.926ZM233.33 301.874C134.33 319.038 138.26 319.25 131.476 315.326C124.748 311.508 123.772 305.902 120.064 296.27C65.17 151.544 51.614 118.57 80.364 105.67C66.672 117.186 75.964 139.222 96.71 200.602C111.192 242.366 130.642 293.754 132.578 296.45C134.297 299.074 136.754 301.13 139.64 302.36C142.526 303.589 145.711 303.936 148.794 303.358C168.046 300.604 267.842 281.254 268.044 281.214C262.018 300.124 245.72 299.64 233.33 301.874Z" fill="black"/>
<path d="M122.05 169.386C123.592 173.548 125.368 178.538 130.116 179.922C131.467 180.3 132.893 180.321 134.254 179.985C135.616 179.648 136.867 178.964 137.886 178C138.8 189.488 138.686 190.828 139.75 192.36C140.118 192.956 140.697 193.39 141.372 193.576C142.047 193.761 142.768 193.684 143.388 193.36C139.74 195.916 135.358 210.376 137.746 217.076C138.458 217.594 139.275 217.947 140.14 218.111C141.004 218.276 141.894 218.246 142.746 218.026C216.658 202.246 211.402 203.374 213.038 202.226C212.388 196.864 208.838 190.934 200.738 186.596C198.468 185.378 202.574 184.408 198.754 176.044C197.809 173.859 196.732 171.734 195.528 169.68C193.542 166.444 196.01 166.744 196.798 164.826C197.271 163.387 197.192 161.822 196.575 160.438C195.959 159.054 194.849 157.949 193.462 157.338C196.206 154.268 199.282 153.574 197.724 146.916C196.182 140.334 191.958 135.46 185.36 137.99C184.458 134.934 181.302 133.26 178.742 131.366C178.046 130.848 178.024 130.578 178.2 129.766C178.719 127.573 178.45 125.268 177.44 123.254C176.152 123.506 176.524 123.81 176.174 122.026C174.326 121.026 173.192 122.026 172.222 123.758C167.306 132.516 171.276 126.29 169.482 121.842C169.396 121.548 169.251 121.275 169.054 121.041C168.857 120.807 168.613 120.616 168.338 120.481C168.063 120.346 167.763 120.27 167.458 120.258C167.152 120.246 166.847 120.298 166.562 120.41C161.962 121.386 160.94 126.01 148.832 134.666C141.478 139.924 129.354 143.718 131.212 156.456C125.656 155.29 118.988 161.12 122.05 169.386Z" fill="white"/>
<path d="M189.282 197.386C185.52 199.148 183.504 201.884 177.402 203.116C172.078 204.192 168.688 202.674 164.076 203.116C155.574 203.942 154.988 212.968 155.856 212.716C156.186 212.73 156.456 205.244 164.214 204.468C168.446 204.044 172.262 205.54 177.666 204.442C187.418 202.46 190.98 193.72 197.854 200.126C199.572 201.726 200.366 203.048 200.552 202.926C201 202.706 196.6 193.956 189.282 197.386Z" fill="black"/>
<path d="M200.868 185.628C202.09 179.41 199.038 172.654 195.412 167.52C196.334 166.97 197.084 166.173 197.576 165.22C198.069 164.266 198.286 163.194 198.201 162.124C198.117 161.054 197.735 160.029 197.099 159.164C196.462 158.3 195.597 157.63 194.6 157.232C203.914 151.632 195.968 132.468 186.118 137.21C184.862 135.287 183.303 133.58 181.5 132.156C178.67 129.974 179.116 131.428 179.186 128.578C179.374 120.778 173.834 117.602 170.61 125.416C170.605 124.272 170.477 123.132 170.226 122.016C170.118 121.508 169.899 121.03 169.583 120.617C169.268 120.205 168.864 119.868 168.402 119.631C167.939 119.394 167.43 119.263 166.911 119.248C166.391 119.233 165.875 119.334 165.4 119.544C162.588 120.544 160.82 123.006 158.686 124.978C147.454 135.366 139.274 139.178 135.686 142.064C133.592 143.63 131.98 145.753 131.033 148.19C130.086 150.627 129.841 153.281 130.328 155.85C122.82 155.2 115.2 163.2 124.078 176.34C128.166 182.296 134.148 182.446 137.078 179.5C137.491 182.952 137.705 186.424 137.72 189.9C137.751 190.978 138.177 192.007 138.916 192.791C139.656 193.576 140.658 194.061 141.732 194.156C142.384 194.184 141.902 193.814 140.132 196.888C135.61 204.554 136.716 212.574 137.332 212.53C138.24 212.466 137.182 201.862 145.38 193.27C146.068 201.656 154.444 202.328 156.438 191.286C157.724 193.803 159.944 195.717 162.624 196.618C165.303 197.518 168.228 197.335 170.774 196.106C182.16 202.484 196.918 196.906 200.374 187.448C207.852 190.344 211.486 199.416 211.986 199.284C213.228 199.04 209.306 188.2 200.868 185.628ZM192.942 156.562C190.924 155.876 191.226 156.042 191.158 155.398C194.934 153.282 195.122 145.634 189.97 145.306C188.97 145.306 189.528 145.764 188.676 142.906C188.94 142.692 189.25 142.544 189.583 142.475C189.915 142.405 190.259 142.416 190.586 142.506C191.186 142.636 191.504 142.86 191.558 142.788C191.798 142.568 189.936 141.262 188.434 142.142C188.033 140.863 187.504 139.627 186.856 138.454C195.132 135.886 200.858 151.95 192.942 156.562ZM191.01 154.262C190.68 152.048 189.988 148.568 189.528 146.352C193.506 146.324 193.558 151.914 191.01 154.262ZM186.426 142.074C187.788 145.474 189.174 152.03 190.626 155.698C186.7 153.984 188.77 152.41 186.106 150.636C186.422 147.3 184.106 142.478 182.784 140.406C185.924 140.588 185 138.478 186.426 142.074ZM132.85 149.2C135.33 142.336 141.276 142.6 155.498 130.556C162.15 124.944 165.334 119.852 167.712 121.176C171.19 122.638 167.47 139.324 169.912 130.884C170.838 127.626 169.696 128.684 172.49 124.414C174.69 121.102 177.508 122.362 177.22 128.52C177.088 131.32 176.692 131.3 178.186 132.35C180.841 133.993 183.096 136.208 184.786 138.834C183.818 139.03 182.833 139.131 181.846 139.136C176.462 132.97 170.812 139.014 165.774 140.988C158.224 144.01 150.472 144.502 147.6 148.43C143.027 151.876 137.923 154.554 132.488 156.356C131.955 153.982 132.08 151.508 132.85 149.2ZM133.116 165C134.038 167.618 134.904 170.27 135.63 172.944C135.182 173.296 134.655 173.532 134.094 173.634C133.534 173.735 132.957 173.698 132.414 173.526C129.024 172.44 128.642 165.886 133.116 165ZM136.746 177.754C135.845 178.772 134.614 179.44 133.27 179.639C131.925 179.838 130.553 179.557 129.396 178.844C126.538 177.304 124.61 173.72 123.026 169.942C119.776 161.988 125.148 156.992 130.612 157.31C132.364 164.992 133.946 162.636 129.73 163.092C125.008 163.542 125.41 168.43 125.948 168.208C126.216 168.23 124.888 163.374 131.958 164.034C132.126 164.05 132.214 164.178 132.076 164.152C127.686 165.064 127.396 173.132 132.076 174.588C132.719 174.783 133.398 174.831 134.062 174.729C134.726 174.627 135.359 174.378 135.914 174C136.277 175.229 136.554 176.481 136.746 177.748V177.754ZM132.72 157.354C135.538 156.627 138.271 155.602 140.872 154.296C148.262 150.558 146.272 148.896 146.008 153.536C145.842 157.838 146.452 163.336 149.278 166.604C146.345 170.601 142.762 174.078 138.678 176.888C136.884 168.098 133.8 161.674 132.72 157.346V157.354ZM169.566 193.222C154.922 182.162 165.528 167.18 164.914 166.808C163.136 169.12 161.865 171.779 161.181 174.614C160.498 177.449 160.419 180.396 160.948 183.264C162.055 187.993 164.874 192.145 168.862 194.918C167.555 195.266 166.191 195.344 164.852 195.149C163.514 194.954 162.229 194.489 161.075 193.782C159.922 193.075 158.924 192.142 158.143 191.038C157.361 189.934 156.812 188.683 156.528 187.36C156.006 184.612 155.796 188.702 155.008 191.148C154.384 193.012 152.86 196.676 151.038 197.398C149.082 198.176 147.714 195.868 147.412 193.738C146.412 187.316 147.304 191.338 148.47 185.254C148.738 183.708 148.652 182.832 148.524 182.82C148.396 182.808 148.19 183.634 147.7 185.058C147.161 186.887 146.289 188.601 145.128 190.114V190.16C142.578 193.602 139.872 192.902 139.566 189.648C139.706 185.731 139.473 181.809 138.87 177.936C143.432 175.429 147.274 171.793 150.028 167.376C151.306 168.59 152.951 169.346 154.704 169.526C157.536 169.706 159.004 167.726 160.886 166.026C161.5 165.456 162.16 164.924 162.744 164.29C162.89 164.794 163.15 165.257 163.503 165.645C163.855 166.033 164.292 166.335 164.78 166.528C168.234 167.762 171.344 165.384 172.948 165.012C175.394 164.448 176.734 166.978 177.006 166.754C176.765 165.841 176.2 165.047 175.416 164.52C174.633 163.992 173.685 163.768 172.748 163.888C170.964 164.104 167.844 166.046 165.446 164.97C164.926 164.627 164.553 164.102 164.402 163.497C164.25 162.893 164.331 162.254 164.628 161.706C165.694 158.776 170.288 156.876 173.11 155.24C176.632 153.198 180.078 151.486 183.364 151.73C184.988 151.744 185.994 152.518 186.164 153.766C186.576 156.816 183.508 158.208 182.23 159.38C181.853 159.677 181.552 160.058 181.351 160.494C181.15 160.929 181.055 161.406 181.074 161.885C181.092 162.365 181.224 162.833 181.458 163.251C181.692 163.67 182.021 164.027 182.42 164.294C182.6 164.212 182.02 163.446 181.88 162.122C181.668 159.512 187.196 159.548 187.816 154.684C189.764 158.266 198.072 158.084 196.146 163.738C194.69 168 169.984 176.106 167.446 186.27C167.154 187.434 167.046 187.37 167.792 186.36C171.576 181.24 168.124 185.056 175.95 189.182C186.8 194.88 198.834 186.6 191.908 175.012C192.533 174.511 193.02 173.859 193.325 173.119C193.63 172.378 193.742 171.572 193.65 170.776C193.596 168.414 193.098 169.038 193.934 168.526C210.098 192.344 184.062 202.844 169.566 193.222ZM190.658 185.582C187.64 189.448 182.258 189.758 177.714 187.942C180.242 183.916 188.904 182.812 190.658 185.582ZM177.892 177.494C180.43 175.894 182.544 174.732 185.176 173.342C186.376 175.07 184.846 177.916 183.088 178.626C182.203 178.941 181.247 179.001 180.328 178.801C179.41 178.601 178.566 178.149 177.892 177.494ZM186.366 172.714C188.444 171.62 190.522 170.53 192.566 169.342C193.176 175.08 188.902 176.166 186.366 172.714ZM171.744 183.838C171.418 183.492 171.12 183.148 170.852 182.81C172.629 181.13 174.563 179.624 176.628 178.314C177.069 179.017 177.27 179.844 177.202 180.67C177.134 181.497 176.8 182.28 176.251 182.901C175.701 183.523 174.965 183.95 174.153 184.119C173.341 184.288 172.496 184.189 171.744 183.838Z" fill="black"/>
<path d="M191.776 37.6C207.356 46.2 210.302 52.8 206.776 70.78C205.271 78.0848 202 84.9098 197.249 90.6589C192.497 96.4079 186.411 100.906 179.52 103.76C177.291 104.802 174.874 105.383 172.414 105.467C169.954 105.552 167.503 105.138 165.208 104.25C141.344 96.942 138.432 84.78 145.878 63.16C151.366 47.246 167.872 35.74 176.4 35.01C181.632 35.028 186.826 35.9029 191.776 37.6Z" fill="#92FCFF"/>
<path d="M209.82 55.264C205.544 40.716 183.296 22.604 160.49 40.728C145 53.278 132.236 84.254 147.4 96.766C152.958 101.234 166.05 107.502 172.036 107.446C193.712 107.332 214.012 73.708 209.82 55.264ZM206.89 59.042C203.984 57.47 202.536 56.898 202.332 56.694C200.354 55.53 197.932 53.936 196.242 53.144C196.387 50.5318 196.001 47.9174 195.107 45.4586C194.213 42.9998 192.83 40.7476 191.042 38.838C198.412 42.48 207 50.976 206.89 59.042ZM146.6 91.85C140.516 82.178 143.872 68.518 148.876 58.81C158.142 40.832 176.966 31.328 187.578 38.178C209.112 51.842 172.628 120.632 146.6 91.85ZM159.374 100.298C164.223 100.602 169.038 99.3074 173.08 96.612C175.769 98.4217 178.555 100.084 181.424 101.592C172.944 105.766 168 104.3 159.378 100.298H159.374ZM184.144 100.098C179.484 99.27 178.234 98.98 175.218 95.062C178.385 92.4567 181.214 89.4662 183.64 86.16C188.798 88.804 186.344 86.17 193.556 91.984C190.845 95.1431 187.673 97.8758 184.148 100.09L184.144 100.098ZM195.2 90C186.584 86.17 191.712 88.788 185.2 83.974C188.013 79.8724 190.382 75.4838 192.268 70.882C200.08 74.624 196.318 72.212 202.742 77.332C200.772 81.8557 198.238 86.1121 195.2 90ZM203.712 75C195.312 71.226 198.16 71.922 193.246 68.38C194.756 64.3319 195.725 60.1019 196.128 55.8C201.656 57.17 202.642 57.896 206.82 61.958C206.418 66.4329 205.37 70.8259 203.708 75H203.712Z" fill="black"/>
<path d="M183.266 75.352C171.6 95.58 155.828 95.92 150.482 88.6C142.984 78.346 153.482 58.036 154.34 58.528C154.54 58.644 144.696 78.11 151.828 87.572C155.166 92 164 93.28 172.912 85.188C186.938 72.462 194.8 45.032 178.4 42.418C171.33 41.29 166.532 44.792 162.118 49.056C159.353 51.9366 156.805 55.0176 154.494 58.274C156.083 54.5235 158.393 51.1218 161.294 48.262C178.668 30.018 200.512 45.446 183.266 75.352Z" fill="black"/>
<path d="M179.44 52.4C181.152 50.4 181.076 48.102 180.566 48.018C180.094 47.942 179.472 49.234 178.592 50.672C177.962 51.706 178.7 51.368 175.66 49.672C178.442 45.746 176.648 44.5539 174.16 48.9059C172.796 48.2759 172.546 48.326 171.938 47.962C170.138 50.832 167.014 57.5619 163.964 62.4819C163.764 62.6819 156.432 73.6999 155.068 76.6539C157.442 77.7839 157.098 77.3779 156.696 78.1579C155.52 80.4359 155.764 83.6499 158.212 78.9359C158.612 78.1559 158.366 78.25 159.164 78.688C161.764 80.112 161.804 79.408 161.434 80.064C158.892 84.702 161.408 83.6519 162.922 80.8939C163.448 79.9559 163.122 80.122 163.736 80.178C172.012 81.006 175.712 71.4319 172.72 65.3379C172.164 64.2819 171.962 64.554 172.868 64.494C179.83 63.952 183.964 57.242 179.44 52.4ZM159.488 75.012C161.073 71.0332 162.948 67.1761 165.098 63.472C167.18 64.0308 169.081 65.1211 170.614 66.636C174.582 71.98 169.614 83.294 159.488 75.012ZM172.876 62.026C170.925 61.703 169.028 61.1149 167.236 60.278C169.296 57.3379 171.592 54.352 173.256 52.048C175.642 52.824 178.576 53.754 179.438 56.048C180.652 59.098 177.438 62.626 172.876 62.026Z" fill="black"/>
<path d="M76.452 181.6C106.052 173.53 83.652 104.664 51.746 114.326C44.9393 116.895 38.839 121.042 33.946 126.426C28.408 133.048 28.346 138.41 29.436 145.146C31.0106 155.133 34.6633 164.678 40.158 173.164C43.728 178.04 52.694 187.014 60.338 187.58C68.588 188.2 78.15 179.87 76.452 181.6Z" fill="#92FCFF"/>
<path d="M77.112 159.702C82.852 153.756 75.946 144.2 69.184 143.916C73.276 137.778 69.13 130.916 63.126 131.484C62.402 128.986 60.49 127.79 60.126 128.158C59.762 128.526 60.544 129.846 61.482 131.812C58.412 132.698 59.034 133.058 58.702 132.304C56.932 128.304 55.392 129.492 57.374 133.48C56.252 134.08 55.836 134.554 55.434 134.746C55.434 134.768 60.956 144.66 63.034 149.098C71.054 166.22 69.034 164.498 71.58 162.968C72.838 165.92 76.288 167.702 73.096 162.288C74.0556 161.91 74.9661 161.418 75.808 160.822C78.4 166.11 79.22 163.046 77.112 159.702ZM63.032 145.224C61.754 141.988 60.57 138.54 59.59 135.94C60.6194 135.203 61.7092 134.554 62.848 134C63.5927 133.632 64.4268 133.485 65.2524 133.575C66.078 133.665 66.8607 133.989 67.5085 134.509C68.1563 135.029 68.6423 135.722 68.9093 136.509C69.1764 137.295 69.2134 138.141 69.016 138.948C68.4 142.2 65.494 143.668 63.032 145.224ZM70.934 159.552C68.5354 156.1 66.3866 152.481 64.504 148.722C66.0766 147.487 67.9626 146.714 69.95 146.492C76.7 146.7 82.668 156.878 70.934 159.552Z" fill="black"/>
<path d="M52.022 152.55C38.752 121.702 62.888 105.538 78.072 134.914C78.9939 136.438 79.6689 138.097 80.072 139.832C79.924 139.898 79.138 138.182 77.378 135.302C65.064 115.14 51.578 118.762 50.356 132.816C49.138 146.78 61.368 173.432 75.048 171.292C80.104 170.492 82.098 165.434 82.888 160.412C84.768 148.482 79.9 141.612 80.7 141.302C81.6027 142.833 82.3287 144.461 82.864 146.156C92.018 174.728 66.658 186.574 52.022 152.55Z" fill="black"/>
<path d="M91.49 152.738C88.41 129.66 72.09 106.538 50.728 112.91C43.032 115.21 30.806 123.802 28.342 131.45C21.288 152.2 47.612 200.118 71.65 186.464C82.97 180.21 94.642 177.222 91.49 152.738ZM45.274 118.844C50.088 116.148 42.292 119.158 41.874 133.244C41.102 133.674 42.72 132.644 30.154 141.13C29.8 133.34 31.626 126.716 45.274 118.844ZM30.4 144.074C34.746 139.238 35.958 138.274 41.872 136.074C41.999 140.517 42.6638 144.929 43.852 149.212C42.274 150.198 40.118 151.938 38.332 153.228C38.132 153.228 33.598 156.252 33.398 156.39C31.9423 152.409 30.9367 148.278 30.4 144.074ZM42.446 173.57C39.1394 169.029 36.4143 164.092 34.334 158.874C38.218 154.388 38.984 153.674 44.588 151.674C46.1251 156.513 48.3599 161.102 51.222 165.296C47.454 170.216 48.462 170.566 42.436 173.57H42.446ZM43.958 175.464C46.068 173.536 47.662 171.646 47.864 171.646C49.48 170.276 51.68 168.69 52.864 167.512C55.7605 171.269 59.383 174.405 63.516 176.734C59.646 181.934 59.552 181.772 53.986 183.826C50.1626 181.668 46.7617 178.835 43.948 175.464H43.958ZM70.244 183.934C68.233 185.13 65.9769 185.853 63.6456 186.05C61.3144 186.247 58.9689 185.912 56.786 185.07C57.916 184.198 59.172 183.126 60.258 182.27C66.698 177.746 66.118 178.198 65.672 177.808C77.628 183.17 83.136 176.066 70.234 183.934H70.244ZM68.31 176.882C44.55 168.2 36.142 125.37 51.446 116.16C87.76 105.478 105.028 191.648 68.3 176.882H68.31Z" fill="black"/>
<path d="M328.362 244.574C339.02 233.902 343.418 224.992 336.092 212.928C331.72 205.728 327.83 197.866 320.292 194.112C309.706 188.842 296.934 183.578 286.346 190.544C281.53 193.71 265.626 211.264 272.084 223.798C276.01 231.422 280.004 238.42 286.234 244.312C294.496 252.124 305.234 256.686 316.434 255.312C324.908 254.26 325.422 247.516 328.362 244.574Z" fill="#92FCFF"/>
<path d="M324.366 224C323.624 223.376 323.716 223.71 323.926 223.08C326.364 216.068 317.926 210.806 311.502 211.784C310.208 212.014 310.422 212.346 310.562 211.398C311.43 205.112 305.582 200.234 300.122 202.982C298.522 200.982 296.284 200.582 296.098 201.064C295.914 201.506 297.034 202.382 298.264 203.49C299.018 204.164 298.83 203.49 296.684 205.636C293.426 202.258 291.978 203.798 295.562 206.886C294.794 207.854 294.48 208.534 294.268 208.77C296.688 211.016 302.574 215.206 306.738 219.02C307.124 219.22 315.374 227.792 318.636 230.16C320.15 228.12 319.636 228.378 320.436 229C322.558 230.672 325.472 230.816 321.488 227.662C320.956 227.244 320.958 227.426 321.406 226.974C323.382 224.986 322.66 224.796 323.268 225.304C327.176 228.538 326.8 226.024 324.366 224ZM300.822 205.4C304.558 201.684 310.076 205.846 308.148 210.864C307.434 212.541 306.457 214.094 305.254 215.464C302.854 212.994 300.454 210.294 298.57 208.288C299.235 207.262 299.989 206.295 300.822 205.4ZM318 225.6C314.48 223.348 311.124 220.85 307.956 218.124C308.943 216.442 310.388 215.074 312.122 214.182C318.452 211.956 327.8 219 318 225.6Z" fill="black"/>
<path d="M340.8 221.492C334.868 192.532 295 171.08 276.06 198.254C261.964 218.286 270.332 229.054 287.06 246.424C290.516 249.698 294.574 252.271 299.01 254C304.997 256.357 311.409 257.439 317.838 257.178C324.126 256.468 326.438 251.622 332.972 242.578C338.4 235 342.624 230.432 340.8 221.492ZM335.138 215.316C339.588 225.032 338.302 229.316 333.99 235.596C318.24 255.414 286.528 228.634 281.054 211.36C272.232 182.872 318.63 179.136 335.128 215.316H335.138ZM279.244 199.116C277.722 204.303 278.108 209.863 280.332 214.79C277.396 221.5 278.22 220.36 273.532 225.104C269.434 215.902 273.158 207.13 279.234 199.114L279.244 199.116ZM274.804 227.648C275.622 226.344 277.7 222.324 278.278 221.744C279.292 220.414 280.654 218.894 281.664 217.598C283.565 221.086 285.878 224.333 288.554 227.268C285.954 231.19 288.22 230.242 281.554 237.282C279.008 234.287 276.747 231.061 274.8 227.646L274.804 227.648ZM283.234 239.26C283.558 238.684 285.71 234.4 286.192 233.92C287.43 232.238 289.372 230.464 290.424 229.264C293.638 232.528 297.173 235.461 300.974 238.018C298.794 243.94 298.838 243.854 293.896 248.556C289.923 245.969 286.331 242.839 283.224 239.258L283.234 239.26ZM296.188 249.828C297.824 247.36 299.226 244.428 299.428 244.428C300.568 242.788 302.13 240.866 303.114 239.394C306.717 241.805 310.766 243.47 315.022 244.292C312.69 249.722 313.448 248.57 309.26 253.842C304.709 253.229 300.289 251.872 296.178 249.826L296.188 249.828ZM326.332 246.428C321.06 253.846 320.368 254.868 311.794 254.132C314.568 247.478 314.416 249.436 317.814 244.612C329.27 245.238 333.2 236.696 326.322 246.42L326.332 246.428Z" fill="black"/>
<path d="M297 227.554C281.518 214.302 280.904 196.754 291.38 193.588C305.412 188.312 320.38 202.028 320.004 202.452C319.628 202.876 305.232 189.878 291.976 195.174C280.854 198.494 285.236 221.314 309.674 233.936C325.038 241.87 341.674 231.08 324.626 207.814C322.55 204.982 321.096 203.644 321.21 203.522C321.854 202.722 337.494 219.322 332.116 231.266C330.567 234.018 328.143 236.173 325.228 237.388C314.948 241 305.494 234.828 297 227.554Z" fill="black"/>
<path d="M337.986 22.324C309.586 37.344 284.266 28.576 275.386 10.968C276.256 20.5289 273.413 30.0578 267.447 37.5794C261.481 45.101 252.85 50.0384 243.342 51.368C237.856 52.242 226.942 51.864 223.672 49.48C216.526 44.262 218.09 44.75 218.472 47.64C218.576 48.43 218.362 46.812 218.532 54.44C218.764 64.892 219.142 67.002 218.392 74.76C217.004 89.082 213.16 93.03 208.728 99.8C203.18 108.278 198.466 113.058 181.512 117.53C186.158 119.818 192.226 119.422 195.64 123.57C207.932 138.496 213.516 140.886 213.47 163.638C213.47 165.956 213.196 168.282 213.176 170.58C213.347 173.018 213.275 175.468 212.962 177.892C212.55 179.892 211.762 181.758 211.396 183.744C209.974 191.508 205.196 192.968 217.898 186.124C220.024 184.978 225.498 185.214 223.952 185.09C230.672 183.169 237.854 183.67 244.242 186.506C246.68 187.335 248.819 188.866 250.39 190.906C257.99 198.624 255.204 194.706 258.484 200.532C259.297 202.052 260.269 203.48 261.384 204.794C262.958 197.444 264.91 193.566 271.984 187.964C285.694 177.12 297.476 178.582 298.926 176.948C304.09 175.3 311.046 178.416 316.614 179.048C318.064 179.087 319.48 179.493 320.73 180.228C326.002 182.89 327.97 183.842 329.73 184.926C334.676 187.97 331.73 188.032 332.898 182.19C338.288 155.376 371.796 150.662 372.394 150.39C376.022 148.79 382.888 153.474 376.608 147.742C365.506 137.606 366.708 113.24 369.514 98.688C370.28 94.714 369.748 95.668 370.302 94.228C371.744 90.7035 373.378 87.2603 375.196 83.914C375.196 82.514 367.508 82.114 363.3 79.756C362.423 79.1917 361.519 78.6718 360.59 78.198C359.476 77.714 358.254 77.544 357.1 77.17C353.416 75.98 351.564 73.084 348.866 70.616C347.674 69.6992 346.547 68.7015 345.492 67.63C324.934 43.33 338.448 29.37 338.304 22.818C337.978 23 338.322 22.146 337.986 22.324Z" fill="#FDFE1F"/>
<path d="M379.84 150.336C368.006 138.108 367.418 109.214 371.874 93.246C375.756 78.87 379.874 85.994 364.004 79.122C342.822 69.842 333.968 51.872 336.432 33.97C338.432 19.15 344.364 20.728 328.936 25.29C285.684 37.786 277.158 9.15998 275.298 9.99998C274.442 10.04 275.542 21.878 268.072 34.16C263.414 41.72 256.456 48.014 242.164 50.512C226.078 53.172 218.944 44.178 218.13 45.34C216.316 45.458 221.084 71.484 213.13 90.648C202.53 115.414 179.034 116.748 179.096 117.736C178.896 118.78 192.096 119.324 201.886 131.696C211.754 144.012 214.066 162.656 211.486 178.19C209.374 191.12 206.38 192.75 211.122 190.346C227.04 182.346 239.964 185.07 251.294 193.584C258.876 200.022 260.85 206.46 261.724 206.126C262.586 206.112 261.68 200.762 266.286 194.706C272.486 186.02 290.326 177.646 308.186 178.694C325.104 179.784 331.752 188.202 332.586 187.19C333.174 187.19 333.168 183.99 335.386 177.958C339.7 167.104 350.43 158.578 360.746 154.758C363.944 153.49 367.263 152.552 370.652 151.958C378.422 150.622 381.512 152.062 379.84 150.336ZM370.36 149.568C365.312 149.604 356.108 152.098 347.7 157.922C336.626 165.414 331.444 177.416 332.112 184.508C332.298 189.378 333.82 184.79 322.254 179.234C297.74 167.654 261.626 183.712 261.254 202.606C261.186 204.672 261.822 203.03 258.182 197.216C243.802 177.674 220.866 180.138 210.382 189.242C208.382 190.996 211.32 189.092 213.84 178.664C219.266 156.4 211.866 129.064 192.418 120.522C181.106 115.248 181.002 120.37 192.738 115.484C207.71 109.142 218.758 95.388 220.412 73.884C220.946 64.5445 220.293 55.175 218.468 46C230.122 60.364 269.154 56.642 275.508 22.668C276.073 19.434 276.264 16.1456 276.076 12.868C277.959 17.0404 280.742 20.7449 284.224 23.716C285.84 25.1605 287.65 26.3735 289.6 27.32C304.87 35.748 327.7 30.952 338.216 23.162C329.524 35.39 331.004 61.326 350.976 75.224C360.112 81.6 371.416 84.1 374.938 83.544C363.434 92.744 361.582 138.378 377.538 149.814C378.658 150.644 376.892 149.126 370.36 149.568Z" fill="black"/>
<path d="M259.758 92.1699C254.18 85.5699 247.692 76.6379 241.958 74.9359C239.464 73.9776 236.743 73.7772 234.136 74.36C227.628 76.664 224.82 84.2179 223.41 90.9779C221.81 98.6999 218.716 121.86 222.532 128.676C223.207 129.881 224.126 130.932 225.231 131.76C226.336 132.589 227.603 133.177 228.949 133.486C230.295 133.795 231.691 133.819 233.047 133.556C234.403 133.293 235.689 132.75 236.822 131.96C237.955 131.17 238.91 130.151 239.625 128.97C240.341 127.788 240.801 126.47 240.976 125.1C241.151 123.73 241.038 122.339 240.643 121.015C240.248 119.692 239.58 118.466 238.682 117.416C242.135 118.001 245.68 117.22 248.568 115.238C249.815 117.376 251.328 119.348 253.07 121.106C256.794 124.86 259.332 124.676 263.28 122.23C266.986 119.936 268.742 118.056 269.044 113.588C269.6 105.62 264.918 98.2639 259.758 92.1699ZM243 99.5559C241.8 101.274 242.6 103.918 237.298 102.71C237.064 102.642 236.858 102.501 236.71 102.307C236.563 102.114 236.481 101.878 236.478 101.634C236.448 99.332 235.878 96.1099 238.018 95.7559C240.158 95.4019 241.456 96.81 242.818 98.204C242.992 98.3782 243.105 98.6049 243.138 98.8492C243.17 99.0935 243.122 99.3418 243 99.5559Z" fill="white"/>
<path d="M260.13 64.364C245.73 72.796 262.4 100.694 273.872 110.08C277.332 112.912 279.606 113.394 283.472 111.698C285.694 110.877 287.523 109.245 288.589 107.129C289.655 105.013 289.879 102.572 289.216 100.298C288.403 97.1182 287.074 94.0929 285.284 91.342C307.362 75.78 292.928 45.168 260.13 64.364ZM279.986 75.63C279.37 77.54 275.386 79.188 274.28 79.388C273.831 79.4318 273.381 79.3115 273.013 79.0494C272.645 78.7873 272.385 78.4011 272.28 77.962C271.825 77.5039 271.326 77.0919 270.79 76.732C270.624 76.6319 270.487 76.4908 270.392 76.3223C270.297 76.1537 270.247 75.9635 270.247 75.77C270.247 75.5765 270.297 75.3863 270.392 75.2177C270.487 75.0492 270.624 74.9081 270.79 74.808C272.854 73.808 274.758 71.994 277.234 72.484C278.694 72.776 280.554 73.868 279.986 75.63Z" fill="white"/>
<path d="M293.58 60.45C293.78 62.412 293.904 62.396 301.86 82.874C309.074 101.44 314.362 100.994 323.384 99.51C325.315 99.4104 327.152 98.6458 328.584 97.346C331.032 97.4807 333.436 96.6564 335.286 95.048C345.31 87.164 340.148 77.448 330.886 78.76C327.425 79.4997 324.154 80.9444 321.276 83.004C320.728 81.6683 320.078 80.3765 319.332 79.14C321.612 77.988 324.08 77.264 326.446 76.3C338.544 71.366 336.01 61.348 327.668 60.534C321.37 59.918 314.358 64.092 311.932 65.298L310.292 61.298C336.636 55.878 322.692 34.588 300.312 45.642C300.4 45.438 292.93 53.958 293.58 60.45Z" fill="white"/>
<path d="M230.542 150.6C236.442 148.788 250.796 148.462 245.884 156.526C241.534 163.668 231.32 169.652 225.348 165.352C219.376 161.052 224.452 152.472 230.542 150.6Z" fill="white"/>
<path d="M266.918 141.74C265.777 139.513 264.288 137.482 262.508 135.724C261.038 133.664 259.302 131.806 257.346 130.2C253.456 127.512 248.746 128.722 248.166 133.828C247.234 141.986 256.148 171.132 259.188 174.67C260.639 176.015 262.455 176.902 264.408 177.216C266.361 177.531 268.364 177.261 270.164 176.44C272.012 175.55 273.531 174.098 274.504 172.293C275.478 170.488 275.856 168.421 275.584 166.388C275.284 164.472 268.018 144.488 266.918 141.74Z" fill="white"/>
<path d="M311.956 155.972C303.726 159.358 300.794 155.01 293.9 152.222C294.446 156.032 298.252 157.716 295.418 162.21C291.542 168.356 285.714 169.122 280.638 165.946C274.3 161.982 272.438 153.88 270.274 147.546C268.76 143.112 266.854 138.702 266.674 134.02C266.274 123.372 274.84 117.89 286.336 124.594C286.884 122.38 286.504 120.032 286.898 117.794C287.146 116.399 287.688 115.073 288.489 113.904C289.289 112.735 290.33 111.75 291.541 111.014C292.752 110.279 294.106 109.811 295.513 109.64C296.919 109.469 298.346 109.6 299.698 110.024C305.408 111.824 307.996 117.77 310.646 122.578C316.68 133.52 323.528 151.216 311.956 155.972Z" fill="white"/>
<path d="M343.478 113.128C344.874 111.643 345.697 109.71 345.8 107.675C345.903 105.639 345.28 103.633 344.042 102.014C335.812 89.29 313.996 104.036 314.242 123.356C314.227 128.342 315.658 133.226 318.36 137.416C321.063 141.606 324.922 144.923 329.47 146.966C342.254 152.224 361.384 139.344 358.406 125.15C357.931 122.751 356.74 120.552 354.991 118.843C353.242 117.134 351.015 115.995 348.606 115.576C344.936 115.126 342.196 116.918 338.882 117.844C339.364 116.064 342.3 114.6 343.478 113.128Z" fill="white"/>
<path d="M247.78 152.472C246.92 145.672 225.406 147.164 221.942 156.652C219.364 163.634 226.014 170.576 235.818 166.718C241.6 164.466 249.012 158.486 247.78 152.472ZM227.35 163.77C222.978 161.446 223.246 154.406 234.336 151.848C237.006 151.23 245.312 150.138 245.62 152.826C246.32 158.94 233.15 166.826 227.35 163.77Z" fill="black"/>
<path d="M270.506 110.918C269.57 101.502 257.452 85.4599 251.576 79.8939C239.468 68.6559 227.326 71.9499 222.976 84.8719C220.848 93.0673 219.527 101.451 219.032 109.904C218.632 117.284 218.416 127.316 223.548 132.672C230.628 139.914 244.96 133.766 241.052 119.63C243.626 119.313 246.068 118.314 248.126 116.736C253.822 132.312 271.988 123.686 270.506 110.918ZM266.922 115.83C264.224 123.09 254.182 126.56 249.922 115.154C253.01 112.036 255.07 107.242 254.282 106.774C252.596 105.774 248.682 116.4 236.776 117.09C234.576 117.224 233.104 117.062 232.934 117.534C232.786 117.934 234.056 118.97 236.588 119.49C237.307 119.637 238.037 119.72 238.77 119.738C241.946 131.522 230.696 136.204 225.62 130.656C218.926 123.34 223.472 94.188 226.178 85.9299C229.366 76.0479 237.498 74.4919 244.514 78.6379C252.758 83.4039 263.914 100.47 266.208 106.256C267.692 109.23 267.948 112.668 266.922 115.83Z" fill="black"/>
<path d="M247.248 97.144C247.144 96.708 245.308 96.77 243.49 98.182C242.49 95.366 238.408 92.796 236.672 95.208C235.52 97.4121 235.223 99.9646 235.84 102.374C233.222 103.056 232.16 105.274 232.6 105.536C233.244 105.984 234.318 103.636 238.438 104.26C242.06 104.764 244.186 106.606 244.482 106.06C244.778 105.514 244.452 105.26 244.336 105.286C243.726 104.507 242.962 103.862 242.09 103.394C242.647 102.293 243.338 101.266 244.148 100.336C245.662 98.696 247.448 97.702 247.248 97.144ZM241.134 102.912C239.824 102.339 238.395 102.087 236.968 102.176C237.858 97.278 237.412 94.234 241.684 97.776C243.004 98.892 242.842 98.738 242.648 98.94C242.135 99.4616 241.735 100.084 241.475 100.767C241.214 101.451 241.098 102.181 241.134 102.912Z" fill="black"/>
<path d="M281.284 74.058C280.084 69.244 271.884 70.938 269.116 75.272C267.258 74.78 265.916 75.44 265.994 75.772C266.1 76.434 268.344 75.988 270.952 78.68C273.204 80.928 273.338 83.644 273.884 83.72C274.484 83.818 274.596 81.902 274.368 80.844C277.882 80.242 282.128 77.362 281.284 74.058ZM279.246 75.568C278.046 77.5164 276.142 78.9291 273.93 79.514C273.239 77.9306 272.032 76.6279 270.506 75.818C273.862 72.322 280.38 72.43 279.246 75.568Z" fill="black"/>
<path d="M294.918 66.136C289.138 54.848 273.426 55.736 262.002 61.396C257.14 63.856 253.348 66.596 252.662 72.208C251.33 82.208 262.142 99.588 267.91 106.792C273.552 113.742 280.05 117.268 287.336 112.006C294.388 106.806 291.936 99.192 287.192 91.784C296.984 84.928 298.824 73.536 294.918 66.136ZM287.6 106.8C287.053 107.797 286.306 108.671 285.406 109.366C284.505 110.06 283.47 110.561 282.367 110.837C281.263 111.113 280.115 111.157 278.993 110.968C277.872 110.778 276.802 110.359 275.85 109.736C269.45 105.624 260.926 90.324 258.748 85.584C252.318 71.606 256.424 67.486 263.274 63.914C292.404 49.008 305.274 76.714 284.182 90.796C279.018 94.196 274.182 95.44 274.34 96.126C274.554 97.044 280.578 95.498 284.29 93.548C286.722 97.348 289.716 102.822 287.6 106.8Z" fill="black"/>
<path d="M341.2 81.38C337.124 74.634 328.154 77.3 321.368 81.456C321.2 80.8075 320.939 80.1865 320.594 79.612C327.194 77.934 335.634 74.612 335.432 67.838C334.782 56.238 322.11 58.174 312.166 64.464C312.128 64.246 311.648 62.25 311.446 62.25C319.218 60.864 328.056 55.912 325.674 48.356C321.956 36.556 295.452 40.068 292.138 55C290.266 63.658 299.65 84.382 303.394 91.536C305.56 95.592 308.184 99.3 312.474 101.016C324.296 105.688 348.742 93.156 341.2 81.38ZM339.556 86.73C338.74 92.844 330.138 96.142 324.206 97.878C314.944 100.432 310.374 97.648 306.384 89.952C302.956 83.352 293.784 63.022 295.384 55.686C296.938 48.554 304.278 45.486 311.488 44.486C325.962 42.418 328.758 56.916 310.026 60.232C307.876 57.992 305.298 57.804 305.188 58.264C305.012 58.8 308.056 59.964 309.614 63.154C311.214 66.328 310.28 69.454 310.814 69.638C311.414 69.908 312.158 67.704 312.258 66.494C316.48 64.294 322.772 61.564 327.48 62.108C328.409 62.2228 329.297 62.5564 330.071 63.0815C330.846 63.6065 331.485 64.3079 331.935 65.1281C332.386 65.9482 332.635 66.8636 332.663 67.7989C332.69 68.7342 332.495 69.6627 332.094 70.508C329.894 74.282 323.428 76.6 319.316 78.046C316.87 75.846 313.316 76.502 313.296 77.004C313.054 78.08 321.54 76.644 319.138 87.97C318.818 90.074 321.338 87.26 321.588 83.93C325.462 81.668 331.61 78.73 335.884 80.368C337.121 80.8621 338.156 81.7587 338.82 82.913C339.485 84.0673 339.742 85.4121 339.548 86.73H339.556Z" fill="black"/>
<path d="M275.978 159.762C274.126 153.62 266.7 138.198 263.022 133.676C260.46 130.496 256.264 126.676 252.318 127.726C245.86 129.462 246.236 136.108 247.542 142.51C249.104 150.212 253 170.62 258.6 176C260.53 177.783 263.025 178.831 265.65 178.96C268.274 179.089 270.86 178.291 272.956 176.706C278.29 172.712 277.788 166.106 275.978 159.762ZM273.84 168.098C273.819 169.283 273.523 170.446 272.976 171.497C272.429 172.548 271.646 173.458 270.687 174.155C269.729 174.851 268.622 175.316 267.454 175.512C266.285 175.709 265.087 175.631 263.954 175.286C258.168 173.832 255.684 165.056 250.17 141.93C249.042 137.25 247.848 131.302 252.812 130.006C260.882 128.452 274.2 159.216 273.84 168.098Z" fill="black"/>
<path d="M319.698 142.28C318.366 133.88 309.558 113.034 302.098 108.824C294.624 104.506 285.32 110.972 285.298 119.712C285.264 124.54 287.634 122.328 279.498 120.24C278.092 119.77 276.606 119.586 275.128 119.696C273.65 119.807 272.208 120.212 270.888 120.886C260 126.898 267.2 145.886 272.322 158.178C281.144 179.28 302.566 167.082 296.934 155.47C312.976 162.958 321.6 154.418 319.698 142.28ZM316.026 149.324C312.494 160.046 297.214 153.086 287.894 146.68C283.566 143.708 281.176 141.444 280.786 141.776C280.462 142.052 282.278 144.976 286.416 148.576C292.474 153.854 292.136 151.692 294.164 155.474C296.99 160.932 292.18 166.062 287.214 166.12C282.482 166.086 278.614 164.846 275.464 156.862C272.81 150.5 266.994 135.324 268.952 128.76C272.202 117.126 287.086 125.912 296.116 134.12C300.098 137.746 302.174 140.408 302.61 140.136C303.454 139.61 297.758 130.068 287.872 123.924C285.922 114.524 294.672 108.414 300.44 111.792C306.876 115.31 318.776 140.774 316.026 149.324Z" fill="black"/>
<path d="M359.706 124.818C359.38 122.136 358.149 119.645 356.217 117.756C354.284 115.868 351.765 114.695 349.076 114.432C343.338 113.772 342.166 117.398 344.982 113.512C349.37 107.334 348.052 100.512 342.468 97.3279C335.39 93.0859 321.814 96.5019 315.116 111.288C307.798 127.384 316.306 145.776 332.366 149.466C348.742 153.336 362.474 137.786 359.706 124.818ZM351.784 140.018C340.634 152.1 323.452 146.382 317.838 133.112C309.4 113.774 329.2 93.4499 340.8 100.212C345.258 102.742 345.428 107.626 342.66 111.918C339.638 116.59 335.186 118.086 329.742 119.09C327.542 119.466 326.27 119.636 326.27 119.89C326.27 120.144 327.526 120.392 329.85 120.416C334.698 120.368 333.904 119.242 331.396 122.18C330.231 123.393 329.438 124.914 329.111 126.564C328.785 128.215 328.939 129.924 329.555 131.489C330.171 133.054 331.224 134.409 332.587 135.394C333.951 136.379 335.569 136.951 337.248 137.044C343.582 137.458 347.92 131.278 346.946 130.62C346.224 130.132 342.798 134.71 337.436 134.326C330.358 133.792 327.236 123.338 343.93 117.198C355.312 113.282 362.094 128.766 351.784 140.026V140.018Z" fill="black"/>
<path d="M84.012 295.236C83.394 289.608 81.544 262.436 83.452 258.236C85.276 254.218 99.128 245.66 104.822 235.412C107.512 230.572 109.794 221.946 116.606 219.95C123.886 217.818 129.628 224.15 134.052 229.75C137.232 233.171 139.2 237.543 139.652 242.192C142.172 257.474 142.112 263.482 131.2 284.952C150.278 295.73 158.63 316.522 157.584 317.352C157.384 317.512 157.078 317.082 157.33 317.042C158.829 319.48 159.919 322.147 160.554 324.938C161.442 328.854 159.434 330.076 155.342 329.75C146.926 329.08 124.27 327.28 116.452 324.324C107.976 321.128 85 304.2 84.012 295.236Z" fill="white"/>
<path d="M109.176 247.492C103.232 254.292 96.902 258.108 96.628 257.664C96.27 257.174 101.884 252.732 107.638 246.148C113.392 239.564 117.038 233.404 117.574 233.692C118.05 233.904 115.12 240.688 109.176 247.492Z" fill="black"/>
<path d="M133.572 284.318C148.508 259.352 145.024 227.464 125.846 219.97C122.339 218.439 118.433 218.072 114.702 218.924C105.162 221.55 108.362 231.374 95.258 243.866C91.116 247.808 87.496 249.52 84.836 253.108C84.256 253.868 84.822 253.736 83.598 251.25C82.0306 248.098 79.5316 245.505 76.44 243.822C72.556 241.674 67.566 241.316 67.49 242.092C67.36 242.808 76.578 244.59 80.128 252.856C81.5962 256.908 82.2712 261.205 82.116 265.512C82.736 298.84 84.202 296.646 85.4 260.222C86.6 253.126 91.916 252.168 97.82 246.622C113.714 232.114 108.058 218.582 123.302 223.346C143.32 231.432 142.134 261.29 130.566 281.368C129.404 276.218 125.346 272.952 124.86 273.524C124.378 274.026 126.58 276.466 128.82 281.818C127.02 280.982 117.804 277.354 117.432 278.494C116.832 280.174 143.2 288.402 155.12 313.524C157.94 318.642 160.402 327.386 161.184 327.242C162.788 327 160 299.736 133.572 284.318Z" fill="black"/>
<path d="M227.8 214.47C229.84 218.006 229.354 221.156 233.362 224.044C234.659 224.871 235.896 225.788 237.064 226.79C236.111 227.224 235.079 227.459 234.032 227.482C232.985 227.504 231.944 227.313 230.973 226.92C230.003 226.527 229.122 225.94 228.385 225.196C227.648 224.451 227.071 223.565 226.688 222.59C225.396 225.003 223.237 226.835 220.646 227.717C218.056 228.598 215.227 228.464 212.732 227.34C213.491 229.033 213.902 230.862 213.939 232.718C213.977 234.573 213.64 236.417 212.95 238.14C212.259 239.862 211.229 241.428 209.92 242.744C208.611 244.06 207.051 245.098 205.332 245.798C214.026 249.042 217.594 260.684 213.478 267.986C212.844 265.666 212.394 262.92 211.69 260.424C209.432 252.424 203.908 247.646 200.09 246.786C194.53 246.572 203.32 246.244 207.928 238.808C209.241 236.758 209.933 234.371 209.921 231.937C209.909 229.502 209.192 227.123 207.858 225.086C204.104 219.62 204.58 221.33 212.628 223.452C217.74 224.802 221.882 224.052 225.718 218.706C226.788 217.234 226.212 216.328 227.8 214.47ZM228.126 210.948C226.276 212.603 224.95 214.763 224.314 217.162C218.582 225.622 214.114 220.846 202.002 218.776C205.898 227.03 207.034 226.576 207.576 229.232C209.2 235.378 204.448 241.73 199.268 243.632C197.656 244.232 197.22 244.772 194.038 247.632C195.923 248.197 197.856 248.588 199.812 248.802C203.306 249.674 207.23 254.402 208.596 257.698C210.196 261.556 209.796 262.194 212.824 273.298C215.2 269.082 219.464 263.266 215.912 253.898C214.966 251.553 213.552 249.425 211.756 247.644C208.31 244.208 209.156 247.492 212.956 242.312C214.991 239.516 216.068 236.138 216.026 232.68C215.976 229.448 215.12 230.28 217.282 230.28C219.643 230.298 221.959 229.637 223.954 228.374C228.154 225.748 225.136 225.536 228.21 227.706C229.893 228.884 231.898 229.516 233.952 229.516C236.316 229.386 238.6 228.619 240.564 227.296C233.942 220.946 233.208 222.776 231.482 218.052C230.708 215.537 229.58 213.145 228.132 210.948H228.126Z" fill="black"/>
<path d="M233.368 224.044C229.368 221.204 229.818 217.96 227.806 214.47C226.17 216.376 226.85 217.152 225.732 218.708C218.974 228.132 211.532 222.478 205.532 221.452C206.706 223.938 208.916 225.852 209.578 228.78C212.312 240.878 198.82 246.098 198.312 246.556C199.218 246.77 204.112 246.452 209.122 254.33C211.88 258.624 212.428 264.086 213.494 267.988C215.345 264.209 215.674 259.864 214.414 255.849C213.154 251.835 210.4 248.457 206.722 246.414C204.664 245.324 204.898 246.374 207.552 244.646C210.3 242.878 212.337 240.198 213.306 237.078C214.275 233.958 214.114 230.596 212.852 227.582C212.574 226.962 212.622 227.636 215.394 228.096C217.618 228.491 219.91 228.171 221.94 227.182C223.971 226.193 225.636 224.586 226.696 222.592C227.08 223.566 227.658 224.452 228.395 225.196C229.132 225.939 230.012 226.526 230.983 226.918C231.953 227.311 232.994 227.503 234.04 227.481C235.087 227.459 236.119 227.225 237.072 226.792C235.901 225.793 234.663 224.875 233.368 224.044Z" fill="#FDFE1F"/>
<path d="M296.124 311.586C288.762 317.646 259.798 304.466 254.558 278.374C215.744 275.696 202.93 239.654 220.84 230.714C226.714 227.782 233.07 229.804 239.112 231.002C255.596 234.27 262.526 231.774 271.3 236.162C275.548 239.138 277.622 244.296 281.02 248.216C284.076 251.299 287.414 254.09 290.988 256.554C298.646 262.624 313.716 290.28 295.83 311.93C295.512 311.046 295.778 312.46 296.124 311.586Z" fill="white"/>
<path d="M253.272 242.416C238.408 242.13 225.122 238.302 225.272 237.648C225.418 237.048 237.766 240.048 253.31 240.374C264.218 240.604 264.812 240.912 271.668 247.738C275.752 251.804 282.498 258.688 270.684 248.796C263.42 242.708 264.852 242.64 253.272 242.416Z" fill="black"/>
<path d="M283.156 247.8C274.71 238.132 274.478 231.734 258.714 230.848C251.785 230.811 244.876 230.092 238.088 228.7C230.688 227.19 222.426 225.634 216.134 231.082C202.86 242.7 216.01 277.908 253.27 279.412C255.23 288.001 259.565 295.866 265.78 302.11C276.462 312.888 290.272 314.11 290.464 312.91C290.786 311.204 265.082 306.564 257.778 280.576C262.822 284.272 269.39 283.044 269.138 282.176C269.01 281.338 265.138 282.092 259.114 279.348C264.574 279.012 267.714 278.07 267.662 277.666C267.54 276.584 255.334 278.004 242.662 274.084C215.662 265.83 210.662 241.328 218.832 234.168C223.74 229.866 231.334 231.482 237.272 232.712C256.208 236.726 264.934 232.406 272.144 239.852C274.894 242.652 276.358 245.356 281.086 249.816C286.808 255.156 291.202 257.268 291.472 256.848C291.83 256.334 288.098 253.41 283.156 247.8Z" fill="black"/>
</svg>
