<svg width="400" height="400" viewBox="0 0 400 400" fill="none" xmlns="http://www.w3.org/2000/svg">
<path d="M24.344 97.632C26.978 96.032 29.758 94.698 32.532 93.36C42.498 88.56 45.454 89.048 52.546 92.078C57.638 94.254 76.972 102.278 78.946 107.35C79.546 108.898 79.396 108.614 79.526 128.586C79.57 135.23 78.624 134.816 77.982 138.234C77.052 143.19 78.548 144.928 72.71 147.958C65.0331 152.29 56.6383 155.204 47.928 156.558C45.3628 157.315 42.671 157.544 40.0147 157.233C37.3584 156.921 34.7926 156.076 32.472 154.746C28.736 152.978 13.82 144.36 11.832 140.76C10.632 138.574 10.854 137.738 10.354 118.246C9.908 100.732 8.304 107.356 24.344 97.632Z" fill="#FFC5F6"/>
<path d="M75.172 99.576C47.184 87.706 46.014 86.114 40.682 88.336L14.282 99.336C12.3894 100.121 10.7725 101.451 9.63601 103.156C8.49955 104.861 7.89466 106.865 7.89796 108.914V138.644C7.89502 140.694 8.50076 142.698 9.63839 144.403C10.776 146.107 12.3943 147.436 14.288 148.22C43.204 160.274 41.888 160.03 44.702 160.03C47.516 160.03 45.814 160.43 75.116 148.22C77.0085 147.435 78.6255 146.106 79.762 144.401C80.8985 142.697 81.5034 140.693 81.5 138.644V109.128C81.5017 107.09 80.9023 105.097 79.7767 103.398C78.6511 101.698 77.0493 100.369 75.172 99.576ZM42.294 92.2C43.0548 91.8831 43.8712 91.7212 44.6954 91.7236C45.5196 91.726 46.335 91.8927 47.094 92.214C75.978 104.48 73.864 103.52 74.568 104L44.706 115.366L14.84 103.778C15.568 103.294 13.468 104.214 42.294 92.2ZM15.9 144.352C14.7727 143.884 13.8098 143.091 13.1333 142.075C12.4568 141.059 12.0972 139.865 12.1 138.644C12.1 106.778 11.794 107.93 12.832 105.994L43.308 117.818C43.308 159.596 43.73 155.952 42.326 155.368L15.9 144.352ZM77.3 138.644C77.3022 139.865 76.9424 141.058 76.2659 142.074C75.5895 143.091 74.6269 143.883 73.5 144.352L47.082 155.368C45.682 155.954 46.098 159.614 46.098 117.824L76.58 106.224C77.588 108.108 77.308 106.846 77.308 138.644H77.3Z" fill="black"/>
<path d="M113.4 159C111 156 101.27 151.19 94.3601 149.126C89.0601 147.544 89.0401 149.362 85.7601 150.694C88.2601 144.228 83.8421 134.984 78.6141 130.094C71.8041 123.736 72.6621 120.97 68.2141 121.82C67.6288 122.01 67.0905 122.322 66.635 122.736C66.1796 123.15 65.8172 123.656 65.5721 124.22C63.1081 128.536 70.8461 133.906 72.1921 137.266C72.4944 138.012 72.5844 138.826 72.4521 139.62C72.3197 140.414 71.9701 141.155 71.4421 141.762C69.2421 143.346 66.0141 141.716 64.4541 140.006C62.8941 138.296 61.9381 136.19 60.4661 134.444C57.0221 130.36 52.7141 131.458 51.0441 134.626C50.1781 136.27 51.6861 139.122 52.7161 140.666C58.9161 149.954 59.7681 151.388 61.5161 153.21C65.5161 157.398 71.2841 158.898 73.9161 158.41C75.3583 157.987 76.7408 157.382 78.0301 156.61C78.5181 157.01 79.0234 157.388 79.5461 157.744C78.9298 159.101 78.5898 160.567 78.5461 162.056C79.1141 170.364 94.4261 178.126 99.6661 181.056C103.29 183.086 106.312 177.742 104.948 175.44C103.814 173.526 97.4761 172.84 93.2801 168.424C90.7581 165.77 91.0301 163.25 92.3201 162.024C93.2484 161.388 94.2956 160.947 95.3988 160.726C96.502 160.505 97.6385 160.509 98.7401 160.738C101.554 161.819 104.197 163.301 106.586 165.138C109.06 166.978 110.532 167.538 112.786 165.176C114.644 163.248 115.2 161.26 113.4 159Z" fill="#FDFE1F"/>
<path d="M115.306 160.98C115.28 160.232 115.028 159.509 114.585 158.906C114.141 158.303 113.526 157.848 112.82 157.6C107.538 152.024 96.942 145.144 88.62 146.888C90.282 137.912 79.108 128.038 73.124 122.916C72.464 122.356 72.84 122.014 71.42 121.292C67.976 119.544 63.666 122.958 64.594 126.352C65.766 130.952 71.02 135.74 71.272 139.294C71.398 141.182 70.462 141.804 68.798 141.342C65.076 140.294 59.822 132.542 57.742 131.596C53.118 129.518 48.26 134.396 51.01 138.678C51.676 139.654 55.256 149.93 63.61 156.262C67.546 159.182 72.098 161.082 76.634 159.278C76.397 161.589 76.7408 163.922 77.6342 166.066C78.5276 168.21 79.9424 170.097 81.75 171.556C85.614 174.99 96.174 180.318 99.05 181.408C99.536 182.464 101.972 183.262 104.65 179.878C107.288 176.55 105.418 174.18 104.3 174.042C102.33 172.258 94.808 167.77 93.38 164.978C92.526 163.25 93.78 161.966 95.544 161.662C98.79 161.082 104.944 165.436 108.478 166.752C110.652 169.644 115.686 165.2 115.306 160.98ZM52.878 139.58C52.464 138.2 51.186 136.092 53.206 134.132C53.9063 133.542 54.7501 133.147 55.652 132.988C56.5538 132.828 57.4818 132.91 58.342 133.224C59.202 137.364 65.402 145.988 70.884 144.872C69.368 149.024 71.6 153.108 74.684 156.272C65.544 158.892 54.864 141.98 52.878 139.574V139.58ZM93.376 169.8C101.858 175.93 104.076 173.882 104.294 175.722C104.392 176.556 104.004 177.322 103.012 178.574C100.314 181.99 99.884 180.73 99.212 180.286C91.366 173.814 79.386 169.4 80.012 160.516C82.8937 162.367 86.3112 163.203 89.722 162.89C89.2 165.828 91.03 168.018 93.376 169.8ZM109.084 166.064C107.562 163.756 100.174 157.882 95.424 158.236C95.5943 157.584 95.6107 156.901 95.4718 156.242C95.333 155.582 95.0428 154.964 94.624 154.436C93.906 153.656 92.506 152.45 93.562 155.118C93.7714 155.725 93.8124 156.377 93.6807 157.005C93.549 157.634 93.2495 158.214 92.814 158.686C88.1 164.144 70.698 152.856 73.296 145.042C74.398 141.432 77.284 141.878 77.438 141.462C77.608 141.184 76.238 140.424 74.598 140.96C74.9131 138.903 74.4208 136.803 73.224 135.1C71.2093 132.177 68.7752 129.566 66 127.352C65.929 126.615 66.0495 125.871 66.3497 125.194C66.65 124.517 67.1199 123.929 67.714 123.486C68.7919 122.787 70.0966 122.527 71.36 122.76C74.76 127.908 85.19 136.848 85.34 144.89C85.3906 145.6 85.2922 146.312 85.0511 146.982C84.81 147.652 84.4315 148.263 83.94 148.778C82.8319 147.037 81.8249 145.234 80.924 143.378C79.658 141.52 78.076 141.268 77.924 141.68C77.724 142.08 78.452 142.88 78.87 144.408C79.2519 146.97 80.3048 149.385 81.922 151.408C82.8007 152.553 83.9783 153.434 85.3252 153.953C86.6721 154.472 88.1361 154.609 89.556 154.35C91.614 153.796 93.5 153.538 91.756 152.566C90.29 151.7 88.672 152.512 86.944 151.404C86.686 151.248 86.728 151.302 86.83 151.148C95.554 146.84 107.006 155.836 112.674 158.762C114.728 161.502 111.51 166.76 109.084 166.072V166.064Z" fill="black"/>
<path d="M334.772 97.496C337.406 95.896 340.184 94.56 342.96 93.224C352.926 88.424 355.882 88.91 362.974 91.94C368.066 94.116 387.4 102.14 389.374 107.212C389.974 108.76 389.824 108.476 389.954 128.448C389.998 135.092 389.052 134.678 388.41 138.096C387.48 143.052 388.976 144.79 383.138 147.82C375.461 152.152 367.066 155.065 358.356 156.42C355.791 157.177 353.099 157.406 350.443 157.095C347.786 156.783 345.221 155.938 342.9 154.608C339.164 152.84 324.248 144.222 322.26 140.622C321.06 138.436 321.282 137.6 320.782 118.108C320.336 100.6 318.732 107.218 334.772 97.496Z" fill="#FFC5F6"/>
<path d="M385.77 99.576C357.684 87.664 356.57 86.128 351.278 88.336L324.878 99.336C322.986 100.121 321.369 101.451 320.233 103.156C319.097 104.861 318.492 106.865 318.496 108.914V138.644C318.492 140.693 319.097 142.696 320.233 144.401C321.369 146.106 322.986 147.435 324.878 148.22C353.794 160.276 352.478 160.03 355.292 160.03C358.238 160.03 357.692 159.9 385.706 148.22C387.599 147.435 389.216 146.106 390.352 144.401C391.489 142.697 392.093 140.693 392.09 138.644V109.128C392.092 107.091 391.494 105.098 390.37 103.399C389.246 101.7 387.646 100.37 385.77 99.576ZM352.89 92.2C353.651 91.8842 354.467 91.7229 355.291 91.7253C356.115 91.7277 356.931 91.8938 357.69 92.214C386.582 104.466 384.464 103.514 385.17 103.986L355.306 115.36L325.44 103.772C326.15 103.302 323.83 104.318 352.89 92.2ZM326.49 144.346C325.363 143.877 324.4 143.085 323.724 142.069C323.047 141.053 322.687 139.859 322.69 138.638C322.69 106.7 322.396 107.906 323.422 105.988L353.9 117.812C353.9 159.59 354.32 155.946 352.916 155.362L326.49 144.346ZM387.89 138.638C387.893 139.859 387.533 141.053 386.857 142.069C386.18 143.085 385.217 143.878 384.09 144.346L357.67 155.362C356.27 155.948 356.688 159.608 356.688 117.818L387.168 106.218C388.186 108.108 387.904 106.846 387.904 138.644L387.89 138.638Z" fill="black"/>
<path d="M349.36 131.338C348.926 130.016 346.482 126.938 344.614 126.938C340.814 126.914 337.112 136.988 332.366 137.304C331.699 137.367 331.029 137.23 330.44 136.911C329.85 136.593 329.369 136.106 329.056 135.514C327.37 131.762 336.438 123.314 335.456 120.534C334.63 119.385 333.626 118.376 332.48 117.546C330.694 116.622 328.93 118.06 327.564 119.36C312.142 134.022 314.716 131.032 313.646 138.636C313.284 140.2 313.358 141.833 313.86 143.358C310.292 142.942 306.678 143.173 303.192 144.04C301.27 144.728 300.22 145.492 292.556 150.406C290.656 151.626 287.052 152.776 286.384 155.768C285.872 158.052 287.602 162.168 290.018 161.952C292.006 161.776 291.332 160.012 300.018 156.976C301.546 156.313 303.203 156 304.868 156.06C305.699 156.11 306.491 156.431 307.123 156.972C307.756 157.514 308.194 158.247 308.372 159.06C308.62 161.27 303.818 167.52 299.552 168.506C298.206 168.818 296.534 168.906 295.902 170.128C295.32 171.266 296.06 172.608 296.778 173.666C298.944 176.866 300.358 176.562 302.036 175.528C315.694 167.128 316.636 166.712 318.036 165.086C319.714 163.15 322.436 157.008 322.012 153.578C322.428 153.087 322.91 152.654 323.442 152.292C326.61 150.634 329.912 156.662 338.96 148.36C341.51 146.02 343.506 142.93 347.418 137.416C348.708 135.6 350.05 133.436 349.36 131.338Z" fill="#FDFE1F"/>
<path d="M350.67 130.986C350.573 129.753 350.04 128.594 349.165 127.719C348.291 126.844 347.133 126.309 345.9 126.21C345.047 126.103 344.181 126.222 343.388 126.553C342.595 126.884 341.902 127.417 341.378 128.098C339.552 129.95 332.486 138.548 330.192 136.286C325.792 132.962 341.738 121.836 334.366 116.838C331.638 114.946 328.19 116.468 328.076 117.724C321.466 123.252 312.574 131.27 312.122 139.862C311.984 142.372 312.854 142.018 311.412 141.81C303.14 140.72 293.012 147.452 288.064 152.672C287.527 152.82 287.042 153.116 286.664 153.526C282.878 157.504 289.62 165.526 292.396 161.826C295.902 160.508 302.104 156.158 305.326 156.736C307.126 157.048 308.326 158.346 307.49 160.052C306.068 162.834 298.516 167.358 296.57 169.116C295.352 169.264 293.598 171.64 296.218 174.952C298.996 178.45 301.394 177.436 301.818 176.484C307.953 173.893 313.76 170.584 319.118 166.628C320.927 165.17 322.342 163.283 323.236 161.139C324.13 158.995 324.473 156.661 324.236 154.35C328.768 156.15 333.32 154.258 337.26 151.334C343.028 146.964 345.672 142.148 348.896 135.67C350.264 132.884 350.736 132.516 350.67 130.986ZM291.8 161.144C289.382 161.828 286.154 156.556 288.214 153.836C294.312 150.688 305.378 141.922 314.058 146.224C314.16 146.374 314.2 146.322 313.944 146.48C312.19 147.564 310.592 146.776 309.132 147.64C308.57 147.954 308.394 148.288 308.476 148.486C308.558 148.684 308.906 148.772 309.364 148.886C311.236 149.696 313.339 149.791 315.276 149.154C320.9 146.622 321.476 141.22 322.014 139.492C322.432 137.964 323.164 137.172 322.962 136.766C322.818 136.352 321.234 136.606 319.962 138.464C319.058 140.319 318.051 142.121 316.946 143.864C316.806 143.776 316.664 143.692 316.522 143.61C312.048 135.79 324.954 124.038 328.744 118.936C329.69 117.674 329.374 117.854 329.892 117.796C330.448 117.698 331.018 117.713 331.568 117.839C332.118 117.965 332.638 118.2 333.096 118.53C333.554 118.86 333.941 119.278 334.235 119.76C334.528 120.242 334.723 120.778 334.806 121.336C334.976 122.886 335.222 121.864 331.562 125.44C329.244 127.816 326.59 130.782 326.198 134.074C325.944 136.8 326.96 135.928 325.358 135.874C323.946 135.798 323.358 136.41 323.444 136.554C323.534 136.802 324.176 136.718 325.072 137.1C327.424 138.088 329.124 141.932 326.598 145.92C324.454 149.372 318.694 154.272 313.552 155.058C308.378 155.968 306.324 152.492 307.318 150.21C307.674 149.314 308.234 148.896 308.102 148.676C307.888 148.096 304.622 149.604 305.454 153.336C300.788 152.966 293.318 158.836 291.8 161.144ZM300.946 176.024C299.586 175.962 298.808 174.836 297.874 173.654C296.458 171.854 296.408 171.164 296.76 170.02C299.68 169.762 312.304 164.472 311.178 157.97C314.588 158.283 318.005 157.447 320.886 155.596C321.556 165.234 306.314 170.516 300.944 176.024H300.946ZM326.2 151.338C329.29 148.166 331.508 144.08 330 139.938C334.224 140.796 338.2 136.31 340.51 132.688C343.476 127.974 341.578 128.378 343.572 128.088C347.312 127.506 349.542 130.336 348.542 133.104C347.042 137.61 334.644 153.77 326.2 151.338Z" fill="black"/>
<path d="M150.734 275.028C150.48 272.534 149.614 270.126 149.42 267.628C149.262 265.604 149.548 263.572 149.556 261.542C149.59 252.198 143.49 246.428 137.18 246.814C136.234 241.776 134.996 236.25 130.872 233.204C129.118 231.823 127.061 230.879 124.869 230.451C122.678 230.023 120.417 230.124 118.272 230.744C117.646 221.79 111.824 212.482 102.562 213.832C89.9621 215.67 65.8001 247.344 60.7441 257.432C56.2741 266.356 54.1981 277.042 56.8401 286.486C52.5001 279.84 43.6921 287.252 43.5361 301.346C43.4234 302.83 43.6203 304.32 44.1144 305.724C44.6085 307.127 45.3889 308.412 46.4061 309.498C49.5227 313.96 52.9555 318.192 56.6781 322.162C60.8201 326.094 73.4901 334.7 82.1461 337.26C95.0321 341.07 105.076 335.932 106.996 331.396C107.596 329.974 107.596 328.962 108.196 322.086C108.426 319.408 108.272 316.844 105.714 316.012C124.166 311.344 129.734 293.54 130.132 293.108C132.325 291.149 135.001 289.809 137.884 289.228C146.084 288.816 151.562 283.2 150.734 275.028ZM68.5061 303.27C72.6219 306.8 77.0095 310.001 81.6281 312.842C76.6809 310.522 72.226 307.272 68.5061 303.27ZM84.8761 314.47C89.5794 316.484 94.6979 317.337 99.8001 316.958C94.2221 319.25 91.0001 317.47 84.8761 314.474V314.47Z" fill="white"/>
<path d="M149.654 265.358C154.672 258.398 149.036 245.704 141.39 245.042C141.006 236.302 130.19 226.938 120.324 229.136C120.278 224.586 118.489 220.227 115.324 216.957C112.159 213.688 107.86 211.757 103.314 211.564C96.43 211.306 91.692 215.684 87.296 220.978C72.43 239.316 49.802 259.088 53.758 282.378C41.758 284.834 34.248 302.516 50.996 319.476C62.17 330.442 85.3381 346.232 99.9961 340.166C102.583 339.119 104.907 337.513 106.801 335.463C108.695 333.413 110.113 330.97 110.952 328.308C112.015 324.603 111.644 320.633 109.914 317.188C120.294 312.882 127.542 302.426 132.934 292.496C138.636 290.774 145.036 290.816 149.592 285.628C154.6 280.06 154.244 271.4 149.654 265.358ZM139.724 252.578C140.326 251.363 140.776 250.078 141.064 248.752C144.346 250.458 147.864 257.168 146.912 262.456C144.038 260.023 140.626 258.31 136.958 257.456C135.4 257.052 137.064 257.896 139.724 252.578ZM136.63 245.868C136.48 249.968 134.744 253.85 131.786 256.694C126.838 256.399 121.875 256.961 117.118 258.354C97.096 264.212 106.384 267.908 98.852 260.036C108.896 252.352 118.934 243.53 120.214 232.744C128.084 231.738 136.454 239.624 136.63 245.868ZM107.248 327.212C106.492 329.22 105.318 331.045 103.803 332.564C102.288 334.084 100.466 335.263 98.46 336.024C86.01 340.876 63.792 325.132 54.336 316.074C39.948 301.906 45.566 288.092 54.478 285.614C59.736 304.776 85.478 324.632 106.788 318.296C108.08 321.099 108.245 324.291 107.248 327.212ZM146.178 282.692C141.336 288.518 129.958 285.998 116.062 298.278C113.52 300.534 112.406 302.066 112.616 302.3C113.16 302.91 118.578 298.07 128.122 294.216C121.27 304.654 114.698 313.03 102.75 314.99C82.848 317.92 58.088 296.668 58.17 277.114C58.116 260.154 74.192 243.804 85.214 230.884C92.37 222.596 98.626 211.07 109.874 218.13C116.474 222.188 118.954 232.82 112.154 242.246C107.533 247.997 102.272 253.204 96.472 257.764C86.954 249.338 76.472 250.152 76.454 251.424C76.424 253.39 86.366 251.662 99.242 266.524C96.994 267.908 81.758 278.452 82.58 279.602C83.062 280.28 91.558 274.712 99.502 270.438C140.842 248.22 154.466 272.724 146.178 282.692Z" fill="black"/>
<path d="M86.6859 242.664C87.0139 250.296 87.8319 258.758 93.4859 263.882C98.2299 268.174 105.086 268.91 111.162 270.882C126.288 275.792 125.394 282.348 185.578 303.41C198.852 308.056 201.236 306.692 210.488 302.558C223.512 296.736 235.798 292.2 248.088 284.958C254.268 281.314 262.062 279.042 268.368 275.62C279.058 269.82 291.812 268.564 302.284 262.376C305.884 260.25 306.958 256.776 308.156 252.776C308.907 249.655 308.929 246.403 308.222 243.272C305.574 226.584 309.574 209.906 308.106 193.072C306.416 173.672 311.67 154.232 307.848 135.142C306.984 132.901 305.563 130.919 303.718 129.382C301.732 127.506 298.656 127.486 296.202 126.286C293.992 125.471 291.886 124.397 289.928 123.086C283.22 117.582 265.928 116.662 230.224 98.9899C223.246 95.5359 209.224 89.9679 201.512 88.8679C189.436 87.1459 184.996 92.1379 173.83 97.0479C149.446 107.774 134.05 114.464 120.644 120.788C106.942 127.254 91.3379 126.946 88.9399 139.272C88.2759 142.672 86.7099 173.442 86.4799 179.738C85.7359 200.24 85.7639 221.244 86.6859 242.664Z" fill="#FFC5F6"/>
<path d="M165.932 155.844C167.367 157.075 169.006 158.045 170.776 158.71C172.468 159.286 172.5 155.328 172.6 154.31C172.762 152.636 173.2 151.278 172.486 151.218C170.686 151.06 169.764 152.312 168.446 153.258C167.784 153.724 165.524 154.812 165.932 155.844Z" fill="#92FCFF"/>
<path d="M213.026 278.3C208.876 278.752 207.976 280.132 207.79 282.802C207.524 286.602 208.696 290.738 209.408 291.314C209.67 291.464 209.962 291.552 210.263 291.573C210.564 291.594 210.866 291.546 211.146 291.434C223.606 288.422 223.306 287.954 223.308 284.568C223.308 283.192 223.29 278.076 222.376 277.036C220.562 274.966 213.376 277.588 210.86 279.036L213.026 278.3Z" fill="#92FCFF"/>
<path d="M282.662 158.288H282.838C282.602 156.302 285.758 155.858 286.572 155.628C286.94 155.524 295.474 151.73 297 153.076C297.938 153.902 297.088 156.232 297.2 158.588C297.51 164.84 306.676 173.292 292.23 176.988C287.476 178.204 284.068 179.738 284.908 176.03C286.242 170.16 279.2 167.568 282.662 158.288Z" fill="#92FCFF"/>
<path d="M311.012 138.86C311.123 136.227 310.42 133.624 308.998 131.405C307.576 129.186 305.505 127.459 303.066 126.46L204.168 87.116C197.25 84.364 201.704 84.116 94.24 128.046C91.7708 129.011 89.6375 130.677 88.1025 132.838C86.5674 135 85.6976 137.563 85.6 140.212V254.152C85.4947 256.741 86.1746 259.302 87.5505 261.497C88.9265 263.693 90.9341 265.422 93.31 266.456L192.212 308.018C193.856 308.705 195.621 309.054 197.403 309.046C199.185 309.038 200.946 308.672 202.584 307.97L302.6 264.862C305.007 263.863 307.077 262.196 308.566 260.057C310.055 257.918 310.899 255.398 311 252.794L311.012 138.86ZM306.076 220.528L274.256 234.186V197.536L306.076 183.764V220.528ZM233.984 251.544V214.892L270.842 199C271.678 199.326 271.462 192.32 271.462 235.384L233.984 251.544ZM271.462 238.434V272.96L233.984 289.116V254.588L271.462 238.434ZM197.4 267.316C160.936 252 164.58 254.138 164.58 252.158L198.238 238.4L231.094 251.47C231.24 251.108 231.19 250.946 231.19 252.75L197.4 267.316ZM199.44 119.158L232.24 133.972C224.622 137.546 215.276 141.972 200.486 149C197.42 150.454 203.42 152.19 164.578 134.508L199.44 119.158ZM161.176 132.958C151.016 128.34 140 123.372 129.736 118.82L165.042 104.388L195.544 117.822L161.176 132.958ZM202.21 117.342L232.518 103.658L267.8 117.69C252.98 124.384 245.368 127.84 235.588 132.41L202.21 117.342ZM271.462 195.696C270.514 196.096 274.512 197.46 236.608 182.38V135.94L271.462 151.678V195.696ZM231.19 248.496L199.628 235.94V200.94L231.19 213.494V248.496ZM164.638 170.554C165.824 167.854 161.954 171.344 191.882 156.296C193.882 155.296 195.558 154.414 196.902 153.756V197.662C196.902 198.116 199.416 196.9 164.58 211.14C164.58 168.77 164.438 170.466 164.638 170.554ZM199.7 196.354V152.436C208.562 148.236 225.012 140.452 233.814 136.322V182.4L199.7 196.354ZM199.628 197.844L199.672 197.956L199.628 197.938V197.844ZM164.58 214.158L196.834 200.974V235.956L164.58 249.138V214.158ZM234.27 211.728L201.4 198.654L235.21 184.834L267.162 197.546L234.27 211.728ZM236.528 135.904C234.328 135.904 234.306 136.092 235.6 135.486L236.528 135.904ZM195.086 151.57C188.97 154.586 177.03 160.806 163.268 166.898L127.154 151L161.154 136.024C176.438 142.966 189.614 149.042 195.086 151.57ZM161.786 169.298V212.658L125.076 197.23V153.13L161.786 169.298ZM122.282 196.056L90.6 182.74C90.928 136.302 90.8 139.642 91.17 138.198L122.282 151.9V196.056ZM90.444 185.762L122.282 199.086V235.75L90.444 222.316V185.762ZM125.076 200.26L161.786 215.688C161.786 253.434 161.704 250.764 161.786 250.964C161.786 252.952 167.326 254.682 125.076 236.924V200.26ZM161.786 255.382V289.926L125.076 274.5V239.956L161.786 255.382ZM306.228 180.712L274.256 194.492V151.154L306.27 136.7C306.646 138.2 306.552 135.024 306.228 180.712ZM305.142 134.144C269.108 150.414 272.628 148.544 272.962 149.29L238.938 133.926C248.232 129.6 256.128 126.022 271.4 119.126C304.282 132.2 303.216 131.238 305.142 134.144ZM196.11 91.69C200.31 89.976 200.63 90.972 228.91 102.222L198.368 116.022L168.636 102.918L196.11 91.69ZM126.148 120.29C136.332 124.792 147.412 129.78 157.748 134.47L123.69 149.47L92.31 135.648C94.212 132.818 93.096 133.8 126.148 120.288V120.29ZM90.2 254.186V225.338L122.29 238.782V273.326L95.2 261.948C93.6869 261.301 92.4022 260.216 91.5111 258.833C90.62 257.449 90.1633 255.831 90.2 254.186ZM164.58 291.1V256.558L196.162 269.884V304.056C194.728 303.83 196.776 304.632 164.58 291.1ZM198.958 304.03V269.63L231.2 255.8V290.32C197.966 304.638 200.32 303.784 198.958 304.03ZM300.67 260.372L274.256 271.756V237.23L305.822 223.58V252.758C305.789 254.389 305.286 255.975 304.371 257.326C303.457 258.677 302.172 259.735 300.67 260.372Z" fill="black"/>
<path d="M223.95 279.42C224.008 278.249 223.709 277.088 223.094 276.09C222.714 275.654 222.217 275.335 221.662 275.171C221.107 275.007 220.516 275.006 219.96 275.166C220.482 267.566 208.054 268.578 209.278 278.352C205.916 280.046 206.46 284.488 206.854 288.462C206.856 289.283 207.105 290.085 207.568 290.763C208.032 291.44 208.689 291.963 209.454 292.262C211.353 292.556 213.296 292.252 215.014 291.392C222.732 288.706 224.704 289.106 223.95 279.42ZM211.58 275.328C212.58 272.728 217.806 270.558 218.096 275.68C209.68 278.122 212.588 277.258 211.044 277.68C211.116 276.875 211.296 276.084 211.58 275.328ZM214.38 289.25C211.992 289.94 210.314 290.664 209.58 289.44C209.18 288.784 208.234 281.948 210.18 280.64C210.552 280.406 219.326 277.64 219.698 277.53C221.752 276.744 221.724 277.494 222.012 279.624C223.15 287.94 221.8 286.986 214.388 289.25H214.38Z" fill="black"/>
<path d="M215.884 281.428C214.252 281.384 214.524 286.584 216.146 286.368C217.768 286.152 217.52 281.474 215.884 281.428Z" fill="black"/>
<path d="M173.496 150.2C172.54 149.53 171.146 150.414 169.514 151.376C165.588 144.962 163.344 138.998 161.152 146.044C160.766 147.28 159.586 150.118 159.69 150.318C159.708 150.35 159.678 150.394 159.624 150.366C149.496 142.69 147.156 142.44 158.166 152.156C158.682 152.496 159.056 153.22 160.166 153.134C160.55 153.093 160.912 152.938 161.207 152.688C161.501 152.438 161.713 152.106 161.816 151.734C162.708 148.496 162.656 149.428 163.598 146.456L167.496 152.8C162.76 156.116 164.398 157.078 168.896 158.986C172.706 160.626 173.036 161.074 174.134 153.114C174.244 152.322 174.444 150.862 173.496 150.2ZM171.228 157.468C171.158 157.776 171.378 157.868 170.172 157.268C169.972 157.168 167.188 155.882 166.988 155.814C168.573 154.482 170.292 153.317 172.116 152.338C172.058 153 171.718 155.252 171.228 157.466V157.468Z" fill="black"/>
<path d="M300.734 167.268C300.334 163.736 297.508 162.382 297.512 155.556C297.5 151.556 298.712 150.474 290.002 153.632C284.988 155.462 282.732 156.178 281.878 160.106C280.49 166.322 284.124 169.972 284.59 172.362C285.71 177.762 280.462 181.898 292.156 177.896C297.522 176.088 301.32 172.938 300.734 167.268ZM298.194 173.578C295.847 174.01 293.55 174.68 291.338 175.578C283.204 178.36 285.164 179.7 286.394 175.978C287.612 171.944 286.372 170.164 285.148 167.56C283.832 164.295 283.317 160.763 283.646 157.258C285.272 157.95 293.426 155.658 296.634 152.956C295.86 154.676 295.475 156.546 295.507 158.432C295.539 160.317 295.986 162.173 296.818 163.866C299.2 168.764 298.854 167.674 298.2 173.578H298.194Z" fill="black"/>
<path d="M293.782 159.966C293.482 159.092 285.77 161.746 286.07 162.62C286.37 163.494 294.082 160.84 293.782 159.966Z" fill="black"/>
<path d="M294.67 164.108C294.38 163.232 287.178 165.61 287.47 166.486C287.762 167.362 294.96 164.984 294.67 164.108Z" fill="black"/>
<path d="M292.2 168.148C288.14 169.414 286.26 171.458 292.616 169.482C298.93 167.506 296.27 166.874 292.2 168.148Z" fill="black"/>
<path d="M181.894 17.9139C184.528 16.3139 187.306 14.9779 190.08 13.6419C200.048 8.8419 203.004 9.3279 210.096 12.3599C215.188 14.5339 234.522 22.5599 236.496 27.6299C237.096 29.1779 236.946 28.8959 237.076 48.8659C237.118 55.5119 236.174 55.0959 235.532 58.5139C234.602 63.4699 236.096 65.2079 230.26 68.2379C222.583 72.5694 214.188 75.4826 205.478 76.8379C202.913 77.5942 200.221 77.8234 197.564 77.5116C194.908 77.1999 192.342 76.3536 190.022 75.0239C186.286 73.2559 171.37 64.6379 169.382 61.0399C168.182 58.8519 168.404 58.0179 167.904 38.5239C167.458 21.0119 165.854 27.6379 181.894 17.9139Z" fill="#FFC5F6"/>
<path d="M232.838 20.71C204.848 8.84396 203.678 7.24996 198.346 9.47196L171.946 20.472C170.054 21.2575 168.437 22.587 167.301 24.2921C166.165 25.9971 165.56 28.001 165.564 30.05V59.78C165.561 61.8285 166.165 63.832 167.301 65.5367C168.438 67.2414 170.054 68.5706 171.946 69.356C200.804 81.388 199.546 81.166 202.36 81.166C205.174 81.166 203.696 81.478 232.774 69.356C234.667 68.5711 236.284 67.2421 237.42 65.5373C238.557 63.8326 239.161 61.8288 239.158 59.78V30.264C239.161 28.2265 238.562 26.2335 237.438 24.5342C236.314 22.8349 234.714 21.5047 232.838 20.71ZM199.96 13.34C200.721 13.0248 201.538 12.8639 202.362 12.8666C203.186 12.8694 204.001 13.0357 204.76 13.356C233.602 25.606 231.542 24.658 232.24 25.126L202.372 36.5L172.504 24.914C173.226 24.434 171.064 25.386 199.96 13.34ZM173.56 65.488C172.433 65.0193 171.47 64.2268 170.794 63.2107C170.117 62.1946 169.757 61.0006 169.76 59.78C169.76 27.84 169.466 29.048 170.492 27.13L200.97 38.954C200.97 80.714 201.392 77.088 199.986 76.504L173.56 65.488ZM234.96 59.78C234.963 61.0007 234.603 62.1948 233.927 63.2109C233.25 64.2271 232.287 65.0196 231.16 65.488L204.74 76.504C203.34 77.09 203.756 80.75 203.756 38.96L234.238 27.36C235.254 29.242 234.972 27.982 234.972 59.78H234.96Z" fill="black"/>
<path d="M384.988 287.326C383.378 282.828 379.426 279.65 375.656 276.716C374.363 275.423 372.618 274.681 370.79 274.648C370.092 279.666 371.456 271.686 366.404 258.478C364.404 253.254 360.626 245.418 356.27 241.454C355.458 240.714 345.6 231.926 338.922 226.424C327.588 217.084 315.47 207.386 300.94 205.252C297.623 204.651 294.212 204.814 290.968 205.73C281.518 208.764 283.412 216.33 281.468 220.55C280.385 222.385 279.178 224.144 277.854 225.814C272.064 234.898 278.032 248.042 291.536 250.894C289.704 255.894 281 250.094 281.37 263.008C281.856 279.966 286.37 279.3 292.228 286.134C295.05 289.426 296.73 293.534 299.118 297.134C304.096 304.68 316.974 314.7 321.118 316.306C330.054 319.77 341.438 314.47 349.518 310.616C341.212 316.74 337.032 314.962 331.176 318.122C327.726 319.984 326.344 321.512 330.054 327.122C348.844 355.57 391.546 305.654 384.988 287.326Z" fill="white"/>
<path d="M387.2 291.966C386.6 283.352 381.134 274.966 372.896 272.888C373.588 231.156 298.612 187.38 283.166 207.444C281.867 209.223 280.995 211.277 280.618 213.447C280.242 215.618 280.37 217.845 280.994 219.958C274.612 223.026 272.69 231.854 274.75 238.998C273.41 240.771 272.458 242.805 271.953 244.97C271.449 247.134 271.405 249.38 271.823 251.562C272.241 253.745 273.113 255.815 274.382 257.64C275.65 259.464 277.288 261.002 279.188 262.154C276.588 270.39 279.588 276.514 285.306 283.082C292.924 291.826 288.392 284.698 301.656 301.808C308.28 310.38 315.548 318.534 326.456 319.824C328.606 335.96 345.52 342.05 359.706 333.946C370.158 328.064 388.116 308.944 387.2 291.966ZM282.268 223.128C286.71 231.528 296.196 234.45 304.28 237.228C309.473 239.049 314.567 241.141 319.542 243.494C316.542 247.188 313.911 251.167 311.688 255.374C298.74 249.422 299.726 253.822 288.532 247.904C275.812 241.16 277.062 227.462 282.274 223.128H282.268ZM276.788 243.728C279.417 247.803 283.351 250.867 287.946 252.418C284.935 253.572 282.413 255.726 280.8 258.518C278.916 256.607 277.558 254.242 276.857 251.652C276.156 249.061 276.136 246.334 276.8 243.734L276.788 243.728ZM313.49 307.95C307.758 302.568 302.986 294.95 297.638 288.884C293.362 284.02 286.248 278.374 283.876 272.056C281.876 266.988 283.82 260.158 288.092 257.544C294.092 253.65 304.534 256.644 311.152 259.596C331.646 268.906 339.856 290.432 341.402 289.62C341.682 289.476 340.756 286.798 338.384 282.252C334.132 274.292 331.09 271.452 332.084 272.084C340.898 277.632 348.966 280.534 349.348 279.64C349.902 278.372 326.034 264.34 323.876 263.16C321.044 260.669 317.92 258.531 314.572 256.794C325.044 239.9 333.252 233.268 332.346 232.242C331.874 231.626 326.414 235.242 320.308 242.642C318.177 241.209 315.958 239.913 313.664 238.76C306.464 234.548 300.424 233.216 294.328 229.69C288.072 226.04 283.076 220.114 285.048 213.21C287.546 204.708 297.758 207.234 306.202 209.274C320.408 213.238 333.41 220.659 344.048 230.874C355.576 241.896 367.576 255.4 367.998 271.242C368.834 298.122 335.6 329.164 313.496 307.956L313.49 307.95ZM379.09 305.972C375.148 313.426 365.832 324.858 357.326 329.806C346.254 336.33 332.926 332.806 329.862 320.006C350.566 319.834 370.476 297.822 372.69 276.346C380.366 279.358 387.166 290.908 379.096 305.978L379.09 305.972Z" fill="black"/>
<path d="M244.018 260.702C243.326 261.822 242.018 263.348 242.838 263.596C250.052 265.796 256.668 262.08 272.38 268.136C280.206 271.152 289.25 276.662 294.362 283.838C298.388 289.494 298.982 293.744 299.6 292.488C301.544 288.542 300.16 288.488 304.058 283.94C308.458 278.796 313.536 276.892 320.556 274.358C328.094 271.638 336.216 268.254 344.372 269.114C348.372 269.536 346.372 267.514 343.972 255.46C341.25 241.848 345.638 231.06 355.99 223.766C357.024 222.996 358.123 222.318 359.274 221.738C360.411 221.346 361.475 220.766 362.42 220.022C365.064 217.636 343.02 216.706 330.594 202.33C327.194 198.296 324.52 193.702 322.692 188.754C321.672 186.304 320.958 183.632 319.788 181.258C317.848 177.324 318.43 171.51 316.922 172.98C311.536 178.232 310.264 184.22 301.136 187.352C284.778 192.968 267.234 196.162 250.074 193.952C259.52 215.636 250.24 250.67 244.018 260.702Z" fill="white"/>
<path d="M364.092 219.526C364.504 218.008 347.736 214.308 334.092 200.898C318.882 185.944 319.236 170.198 317.8 170.256C317.08 169.966 314.2 176.73 306.374 182.036C304.629 183.181 302.803 184.198 300.91 185.078C273.176 198.55 250.132 191.654 249.724 193.46C248.772 193.846 251.872 199.502 252.846 215.38C254.75 246.416 240.48 262.54 242.078 263.658C241.906 265.882 262.17 264.778 275.184 270.794C282.295 274.123 288.504 279.11 293.288 285.336C301.488 296.038 296.954 295.682 304.52 287.122C321.238 267.97 346.72 271.188 346.834 269.04C350.06 268.44 336.376 242.902 357.406 224.654C361.212 221.32 364.28 220.148 364.092 219.526ZM355.616 222.288C344.962 229.142 337.974 243.488 343.346 261.028C344.076 263.658 345.078 266.205 346.334 268.628C339.828 265.75 313.674 267.334 302.152 285.34C296.482 294.09 302.018 294.362 295.732 283.674C292.281 278.02 287.57 273.239 281.968 269.703C276.366 266.168 270.023 263.974 263.434 263.292C233.674 259.63 241.816 271.26 251.28 250.036C259.794 230.938 257.362 203.396 250.372 194.018C255.726 196.796 271.942 199.054 288.432 194.322C296.668 191.998 306.988 187.406 312.742 180.684C319.906 172.284 315.564 170.084 318.058 181.128C321.306 196.068 334.396 211.064 353.474 217.528C364.48 221.26 362.76 217.672 355.616 222.288Z" fill="black"/>
<path d="M216.908 54.084C216.014 51.8 215.08 51.254 212.97 51.3C211.04 51.342 208.77 51.98 208.17 53.818C207.77 55.066 208.414 63.948 206.448 67.096C206.212 67.5638 205.858 67.9618 205.421 68.2503C204.983 68.5387 204.478 68.7076 203.955 68.7402C203.432 68.7728 202.91 68.6678 202.44 68.4359C201.971 68.2039 201.57 67.853 201.278 67.418C195.328 61.312 200.598 50.79 194.528 50.892C193.122 50.9462 191.787 51.5219 190.782 52.5069C189.778 53.4918 189.176 54.8155 189.094 56.22C189.012 57.64 189.322 59.062 189.156 60.48C188.462 66.414 187.144 61.196 190.45 76.07C191.296 79.88 192.312 83.184 196.758 85.27C190.758 87.07 189.882 96.048 189.158 103.056C188.49 109.63 189.558 114.276 196.032 116.688C199.586 118.012 199.656 117.16 199.388 117.986C197.666 117.134 195.784 116.657 193.864 116.586C187.612 116.06 186.064 129.64 186.292 135.446C186.434 139.006 187.746 139.738 190.516 139.714C192.582 139.696 193.59 139.42 194.328 137.576C195.636 134.32 195.542 129.63 200.19 130.2C202.39 130.47 203.04 131.548 203.218 133.664C203.512 137.154 200.618 139.204 204.102 140.452C208.812 142.136 211.25 143.232 211.818 129.954C212.161 126.908 211.543 123.831 210.05 121.154C210.377 119.8 210.59 118.42 210.684 117.03C212.524 116.734 214.7 117.106 216.528 113.21C219.644 106.568 217.964 94.472 215.858 87.31C215.552 86.268 215.274 85.948 214.206 85.73C211.15 85.106 211.486 85.812 211.406 85.038C221.574 81.524 219.75 61.358 216.908 54.084Z" fill="#FDFE1F"/>
<path d="M216.872 52C216.306 51.3634 215.604 50.8629 214.817 50.5358C214.031 50.2087 213.181 50.0635 212.331 50.111C211.48 50.1585 210.652 50.3975 209.907 50.8101C209.162 51.2228 208.519 51.7984 208.028 52.494C207.152 53.934 207.494 55.508 207.214 59.268C206.266 71.378 201.614 69.172 200.116 64.082C198.76 59.316 199.076 53.186 197.226 51.282C196.682 50.8142 196.047 50.464 195.362 50.2533C194.676 50.0427 193.954 49.9763 193.241 50.0582C192.529 50.1401 191.841 50.3685 191.22 50.7292C190.6 51.0899 190.062 51.575 189.638 52.154C187.708 55.016 183.68 78.822 194.298 85.662C189.972 88.662 188.636 95.862 188.13 101.13C187.592 106.57 188.412 112.3 192.714 115.7C184.336 120.358 184.218 137.53 186.786 139.92C189.296 142.292 194.304 141.546 194.818 137.958C195.876 136.094 196.438 133.958 197.326 132.558C198.62 130.518 200.258 130.814 200.882 131.446C201.934 132.506 200.882 139.752 202.04 140.156C203.294 143.26 208.802 143.412 210.426 140.356C212.098 138.356 215.56 124.588 211.36 119.282C211.408 119.092 211.454 118.902 211.496 118.71C221.262 116.294 220.224 104.278 219.696 95.146C219.414 91.466 218.718 87.066 215.636 85.038C224.6 77.424 220.224 55.72 216.872 52ZM201.762 127.658C198.782 128.218 197.41 124.626 197.02 124.694C196.688 124.724 196.578 126.482 197.862 128.07C194.324 129.39 193.276 134.612 193.398 138.058C192.965 138.488 192.441 138.813 191.864 139.01C191.287 139.207 190.672 139.271 190.067 139.195C189.462 139.12 188.882 138.909 188.371 138.576C187.86 138.244 187.431 137.8 187.116 137.278C187.034 137.078 187.14 137.426 187.686 134.386C189.01 127.566 189.844 119.042 196.536 117.758C197.058 117.942 197.568 118.09 198.064 118.214C197.134 119.689 196.569 121.365 196.416 123.102C196.486 123.872 196.762 124.232 196.97 124.218C197.208 124.206 197.37 123.84 197.664 123.33C198.778 121.314 200.5 120.208 201.474 117.592C203.526 112.222 199.156 107.566 198.896 103.646C198.758 101.8 200.194 98.682 198.05 100.614C194.16 104.112 198.406 110.354 198.764 114.322C197.814 114.306 196.864 114.385 195.93 114.558C189.93 110.686 190.962 102.628 192.388 95.416C193.05 91.98 194.122 88.616 197.228 87.016C198.087 87.2923 198.964 87.5062 199.854 87.656C199.79 88.972 199.092 94.3 200.374 93.988C200.974 93.854 204.676 87.388 202.42 79.788C201.828 77.8355 201.114 75.9218 200.284 74.058C199.85 73.886 199.042 75.136 199.11 77.174C199.11 78.93 199.852 82.154 199.852 84.1C190.08 83.1 190.344 68.242 190.452 58.3C190.542 52.66 190.052 53.638 190.726 53.15C191.167 52.7303 191.696 52.414 192.275 52.2241C192.853 52.0342 193.467 51.9754 194.071 52.052C194.675 52.1286 195.254 52.3386 195.767 52.6669C196.28 52.9952 196.714 53.4335 197.036 53.95C197.37 54.474 194.454 69.196 202.256 71.194C200.504 71.756 200.056 73.49 200.456 73.572C200.686 73.692 201.056 73.136 201.856 72.864C203.564 72.286 207.198 73.766 208.96 78.186C210.738 82.9752 210.71 88.2483 208.88 93.018C207.25 96.526 203.632 97.418 201.516 95.338C200.85 94.708 200.654 94.1 200.394 94.138C199.916 94.138 199.914 96.664 202.416 98.038C200.394 98.238 197.3 100.346 201.052 99.744C211.344 98.036 210.92 125.944 201.762 127.652V127.658ZM209.898 129.628C208.898 140.228 209.698 138.848 209.298 139.284C208.868 139.694 208.358 140.011 207.8 140.216C207.242 140.42 206.648 140.507 206.055 140.472C205.461 140.437 204.882 140.28 204.352 140.012C203.822 139.743 203.353 139.368 202.974 138.91C204.002 136.274 205.106 132.022 203.5 129.69C206.289 128.406 208.53 126.17 209.82 123.384C210.21 125.443 210.236 127.554 209.898 129.622V129.628ZM215.802 90.228C216.552 92.96 217.642 106.982 215.504 111.952C214.82 113.676 213.551 115.104 211.92 115.986C212.394 110.434 210.92 101.028 205.812 98.666C211.094 97.954 213.192 92.176 213.504 86.832C214.101 87.2075 214.613 87.7028 215.008 88.2868C215.404 88.8707 215.673 89.5304 215.8 90.224L215.802 90.228ZM213.348 82.57C212.748 78.126 210.624 73.288 206.424 71.57C205.052 70.97 204.872 71.294 205.562 71.012C210.362 69.092 210.468 58.012 208.23 54.278C210.786 51.978 212.666 51.316 216.668 53.544C216.34 59.788 220.434 76.278 213.348 82.566V82.57Z" fill="black"/>
<path d="M262.326 240.776C261.91 244.576 262.476 245.622 265.108 247.728C291.266 268.656 301.392 268.62 325.84 258.372C330.152 256.572 330.764 255.322 331.172 251.902C335.016 219.598 335.224 220.066 334.56 218.27C333.13 214.406 321.226 208.87 317.496 207.07C303.594 200.376 301.652 199.182 298.634 198.92C292.89 198.42 275.278 205.836 269.974 208.142C267.036 209.418 267.082 211.022 266.272 215.106C264.587 223.59 263.271 232.147 262.326 240.776Z" fill="#92FCFF"/>
<path d="M332.156 210.912C305.508 196.28 304.502 194.578 298.974 196.252L271.6 204.538C269.638 205.128 267.895 206.287 266.592 207.869C265.289 209.45 264.485 211.383 264.282 213.422L261.282 242.996C261.072 245.034 261.471 247.089 262.43 248.899C263.388 250.71 264.863 252.196 266.666 253.168C293.608 267.748 293.22 268.038 296.796 268.038C298.996 268.038 297.882 268.172 327.184 259.302C329.146 258.712 330.889 257.553 332.192 255.971C333.495 254.39 334.299 252.457 334.502 250.418L337.478 221.054C337.687 219.027 337.294 216.984 336.347 215.18C335.401 213.376 333.943 211.891 332.156 210.912ZM300.188 200.262C300.977 200.026 301.804 199.948 302.623 200.033C303.442 200.119 304.235 200.366 304.958 200.76C332.44 215.84 330.464 214.708 331.11 215.244L300.254 223.546L271.706 209.006C272.472 208.6 270.254 209.322 300.188 200.262ZM268.67 249.482C267.595 248.902 266.716 248.017 266.145 246.937C265.573 245.858 265.335 244.633 265.46 243.418C268.684 211.618 268.27 212.808 269.482 211.018L298.61 225.856C294.4 267.404 295.184 263.842 293.844 263.116L268.67 249.482ZM330.34 250C330.219 251.215 329.74 252.368 328.963 253.31C328.187 254.253 327.148 254.944 325.978 255.296C296.268 264.296 298.332 263.708 297.578 263.802L301.396 226.138L332.892 217.664C333.698 219.642 333.548 218.36 330.34 250Z" fill="black"/>
<path d="M291.93 231.834C291.448 229.33 291.428 228.922 290.836 228.502C289.75 227.734 288.182 228.768 287.222 229.176C282.636 231.126 281.14 232.086 285.822 235.362L282.022 241.562C280.134 233.028 280.142 232.814 279.752 232.45C279.447 232.105 279.028 231.883 278.571 231.824C278.115 231.765 277.653 231.873 277.27 232.128C275.334 233.476 260.27 254.854 277.404 235.448C278.35 234.378 277.672 233.52 279.902 243.38C280.48 245.932 282.418 245.494 283.158 244.426L287.842 236.776C291.77 239.104 293.386 239.37 291.93 231.834ZM285.312 232.342C290.358 230.324 289.338 229.474 289.872 232.232C290.072 233.306 290.382 235.14 290.44 235.818C288.614 234.841 286.896 233.676 285.312 232.342Z" fill="black"/>
<path d="M291.652 255.226C273.272 263.106 284.23 279.546 291.334 286.936C293.568 289.26 299.164 290.994 301.242 293.46C303.648 296.7 306.275 299.77 309.104 302.648C311.38 304.742 368.284 314.34 325.564 268.564C317.334 259.746 302.75 250.466 291.652 255.226Z" fill="white"/>
<path d="M292.42 283.484C285.56 276.568 281.142 271.224 283.988 263.052C288.374 250.452 307.564 256.748 318.452 264.282C329.734 272.082 340.082 290.312 341.408 289.626C343.054 288.774 333.65 268.826 321.268 260.284C307.138 250.546 284.972 245.036 279.384 261.402C275.746 272.058 280.888 278.854 288.952 286.93C298.952 296.942 298.914 298.478 305.336 305.274C309.814 310.012 313.446 312.042 313.826 311.532C314.254 310.958 311.598 308.174 307.998 303.068C299.076 290.42 299.044 290.162 292.42 283.484Z" fill="black"/>
<path d="M150.124 282.684C158.104 272.872 141.574 254.846 122.924 259.41C111.402 262.23 81.064 278.648 79.324 283.88C78.48 286.43 80.924 289.028 82.268 291.348C83.7131 293.621 85.5956 295.583 87.806 297.122C93.986 301.77 100.95 308.798 108.27 306.306C112.942 304.716 117.59 297.106 122.04 295.132C122.696 294.844 146.134 287.588 150.124 282.684Z" fill="white"/>
<path d="M118.282 262.706C106.454 265.734 96.966 271.89 87.346 277.398C81.126 280.958 81.122 280.118 86.256 275.836C134.856 235.302 164.624 268.716 149.596 285.626C146.624 288.972 142.996 290.164 138.614 291.14C120.316 295.218 113.498 303.284 112.614 302.3C112.414 302.066 113.516 300.532 116.06 298.278C129.82 286.098 141.284 288.576 146.176 282.692C153.652 273.704 143.546 256.242 118.282 262.706Z" fill="black"/>
<path d="M162.2 227.24C161.292 217.022 164 172.118 162.624 169.65C161.874 168.31 158.224 166.928 149.29 162.85C146.19 161.436 142.744 160.868 139.662 159.372C134.358 156.8 130.696 154.772 125.474 152.034C122.982 150.732 118.274 150.56 115.956 148.974C108.688 144.389 100.9 140.685 92.7561 137.94C89.7901 137.044 88.6941 138.406 88.1261 141.34C87.8021 143.008 88.1921 142.312 88.1521 143.982C87.8621 155.982 87.3241 147.432 87.8421 166.508C88.1341 177.244 88.5661 179.202 87.5201 182.012C90.0601 210.962 82.6241 218.812 94.0381 226.398C101.976 231.67 124.07 235.892 140.358 244.466C146.558 247.732 152.894 251.044 159.808 252.202C161.264 252.446 162.356 252.118 162.654 249.264C163.289 245.68 163.591 242.044 163.556 238.404C163.248 234.718 162.2 230.942 162.2 227.24Z" fill="white"/>
<path d="M99.37 219.016C94.45 216.978 95.914 216.522 96.952 150.154C99.39 150.016 101.364 152.204 103.526 153.336C132.746 168.632 152.63 173.22 153.39 174.376C153.768 174.952 152.68 237.176 152.39 238.128C151.35 241.588 150.174 239.128 148.99 238.928C146.901 238.453 144.884 237.706 142.99 236.704C136.622 233.954 129.742 231.978 123.374 229.228C110.488 223.668 117.924 226.706 99.37 219.016Z" fill="#92FCFF"/>
<path d="M108.4 198.584C108.472 197.762 108.69 194.196 108.014 193.706C107.052 193.431 106.153 192.968 105.372 192.343C104.59 191.717 103.941 190.943 103.462 190.064C103.099 189.405 102.91 188.664 102.911 187.912C102.912 187.16 103.104 186.42 103.469 185.762C103.834 185.104 104.36 184.549 104.997 184.149C105.634 183.749 106.363 183.518 107.114 183.476C107.67 183.376 109.984 183.276 110.088 183.57C106.32 173.064 103.176 167.854 112.392 173.83C114.366 169.656 114.374 169.51 114.822 169.164C117.57 167.038 119.314 174.342 121.822 171.102C122.622 170.078 122.686 168.03 123.136 167.416C123.65 166.716 125.422 166.66 125.8 169.274C126.046 170.984 125.48 174.852 127.548 175.196C128.403 175.186 129.233 174.906 129.92 174.396C132.954 172.834 135.176 174.836 134.826 176.196C134.712 176.638 134.226 177.148 134.512 177.608C135.782 176.803 137.316 176.524 138.788 176.83C139.161 177.147 139.421 177.576 139.53 178.054C139.638 178.531 139.588 179.031 139.388 179.478C138.602 181.342 136.788 181.478 136.812 182.792C136.812 183.192 136.78 183.04 138.522 186.63C139.066 187.109 139.408 187.777 139.478 188.498C142.298 188.498 142.612 188.116 143.92 189.946C144.37 190.635 144.658 191.418 144.761 192.235C144.864 193.052 144.779 193.882 144.514 194.661C144.248 195.44 143.809 196.149 143.229 196.734C142.649 197.318 141.944 197.763 141.166 198.034C137.236 199.328 142.412 199.678 141.212 207.6C140.776 210.47 140.92 214.446 138.268 215.6C137.36 216 136.824 216.31 137.828 217.692C139.196 219.574 139.978 219.134 141.028 223.39C141.635 225.273 141.79 227.273 141.48 229.228C141.196 233.364 143.27 236.492 141.492 236.01C137.886 235.253 134.449 233.841 131.352 231.844C131.152 231.754 118.024 227.268 103.182 220.29C98.6281 218.148 105.7 211.37 112.382 210.89C114.672 210.726 113.268 209.324 111.782 207.788C107.312 203.128 108.2 200.884 108.4 198.584Z" fill="#FDFE1F"/>
<path d="M108.582 186.558C106.472 186.506 105.428 188.544 105.874 188.74C106.138 188.886 107.046 187.704 108.55 187.74C108.858 187.748 109.16 187.822 109.436 187.958C109.066 188.072 108.737 188.289 108.488 188.585C108.238 188.88 108.078 189.241 108.027 189.624C107.976 190.007 108.036 190.397 108.2 190.747C108.364 191.098 108.625 191.394 108.952 191.6C109.622 191.968 110.098 191.774 110.09 191.628C110.114 191.332 108.628 190.76 109.29 189.446C109.48 189.046 109.582 189.138 109.738 189.188C112.87 190.618 112.338 190.732 111.844 189.072C111.626 188.368 111.195 187.749 110.611 187.299C110.027 186.849 109.319 186.59 108.582 186.558Z" fill="black"/>
<path d="M165.074 171.11C165.074 164.088 161.074 166.668 94.904 136.148C93.9905 135.723 92.9847 135.536 91.9794 135.602C90.9742 135.668 90.0018 135.987 89.152 136.528C85.196 139.03 86.512 135.94 85.772 220.02C85.7576 221.219 86.1017 222.395 86.7602 223.398C87.4187 224.4 88.3616 225.183 89.468 225.646C161.506 255.918 158.668 255.974 162.514 253.424C166.36 250.874 165.098 253.96 165.074 171.11ZM158.464 250.094C86.384 219.8 90.82 221.8 90.364 221.23C92.642 220.294 95.626 217.764 95.054 217.03C94.482 216.296 90.804 218.648 89.97 219.25C90.57 136.25 90.49 141.474 90.624 141.05C91.448 142.95 95.342 149.892 96.36 149.224C97.294 148.61 93.79 142.332 91.842 139.86C92.704 139.592 87.892 137.66 159.242 169.178C157.75 169.778 152.68 172.328 153.12 173.288C153.604 174.34 159.182 171.55 160.782 170.524C160.92 170.942 160.938 165.43 161.012 248.396C161.012 249.596 161.002 248.264 157.96 244.86C153.992 240.396 147.88 236.66 156.396 246.26C157.76 247.786 159.018 249.144 159.984 250.06C159.749 250.176 159.49 250.24 159.228 250.245C158.965 250.251 158.705 250.2 158.464 250.094Z" fill="black"/>
<path d="M97.8001 183.474C98.1361 139.106 95.6701 139.018 95.3381 183.39C95.1521 189.77 95.2121 216.65 95.4581 216.68C97.3381 216.926 97.7781 184.184 97.8001 183.474Z" fill="black"/>
<path d="M152.306 239.076C154.036 239.276 154.454 207.94 154.488 206.664C154.818 163.368 152.352 163.28 152.026 206.582C151.916 210.6 151.832 239.026 152.306 239.076Z" fill="black"/>
<path d="M142.664 235.4C143.383 229.754 142.311 224.025 139.6 219.02C137.67 215.894 137.116 216.866 138.3 216.22C141.346 214.56 141.782 211.788 141.746 208.352C142.23 206.87 142.409 205.305 142.271 203.752C142.134 202.199 141.683 200.69 140.946 199.316C140.504 198.582 141.66 199.516 143.832 197.488C148.206 193.554 144.614 185.748 139.97 187.572C139.392 184.13 136.916 184.342 138.144 183.046C138.574 182.688 138.969 182.292 139.326 181.862C141.85 178.52 140.27 175.014 136.24 176.154C134.758 176.672 135.682 176.804 135.554 175.244C135.394 173.086 132.454 171.09 128.062 174.084C127.042 174.814 127.308 174.884 127.062 173.52C126.64 171.146 126.114 167.794 124.958 166.804C124.334 166.166 123.316 165.984 122.32 167.362C121.734 168.312 121.27 169.332 120.938 170.398C120.29 171.974 120.026 170.576 118.212 168.714C116.586 167.044 114.612 167.02 113.502 169.038C113.083 169.936 112.756 170.874 112.528 171.838C112.475 172.081 112.374 172.312 112.232 172.516C110.864 172.2 109.5 170.176 107.542 169.952C103.232 169.684 106.656 176.238 109.006 182.496C101.52 181.122 99.1461 191.984 107.672 194.866C106.638 200.542 107.822 206.37 112.272 209.946C107.044 210.614 102.362 213.506 101.172 218.706C75.7721 210.062 150.428 242.128 151.35 239.926C151.482 239.582 148.126 237.864 142.664 235.4ZM137.296 214.46C133.368 216.63 117.31 215.048 117.13 207.946C117.042 204.47 118.53 201.234 122.984 198.576C122.825 199.154 122.849 199.767 123.053 200.331C123.257 200.895 123.63 201.381 124.122 201.724C127.052 203.29 128.456 201.38 129.168 204.654C129.28 205.148 129.478 205.414 129.618 205.38C129.758 205.346 129.856 205.106 129.984 204.668C131.618 199.068 122.468 201.562 125.42 198.268C126.734 196.75 134.586 196.54 137.07 198.536C139.682 200.652 134.054 200.392 133.008 202.844C132.608 203.8 132.734 205.724 133.07 205.82C133.526 205.952 133.808 204.19 134.296 203.576C135.27 202.35 138.912 203.028 139.696 200.176C140.322 201.764 140.547 203.481 140.352 205.176C139.888 211.082 136.49 210.244 131.046 209.996C104.314 208.114 133.792 213.428 138.272 211.88C139.712 211.42 139.896 210.608 139.472 211.88C139.296 212.431 139.014 212.942 138.64 213.384C138.267 213.825 137.81 214.189 137.296 214.454V214.46ZM120.908 197.392C120.242 197.014 119.67 196.488 119.238 195.855C118.806 195.222 118.524 194.499 118.414 193.74C122.266 193.45 121.728 193.41 121.742 193.604C121.82 194.726 121.632 195.288 123.042 195.106C124.452 194.924 124.168 194.362 124.1 193.482C126.67 193.748 126.83 194.236 127.7 193.882C127.346 195.584 127.328 195.216 126.346 195.464C125.321 195.679 124.398 196.231 123.724 197.032C123.108 197.261 122.507 197.528 121.924 197.832C121.575 197.709 121.235 197.56 120.908 197.386V197.392ZM131.2 195C127.174 195.032 128.766 195.702 128.51 193.528C128.958 193.608 131.758 193.34 132.792 193.276C132.708 193.476 132.826 193.804 132.902 194.502C132.956 194.994 135.338 195.264 135.256 194.302C135.224 193.952 135.176 193.642 135.136 193.36C135.988 193.47 137.688 193.854 137.754 193.856C135.95 196.966 136.836 195.094 131.2 195ZM138.274 190.552C138.886 191.886 138.222 192.878 137.674 192.694C135.381 192.092 132.98 192.023 130.656 192.494C127.228 192.87 129.888 193.056 128.684 190.294C129.169 189.436 129.879 188.727 130.736 188.241C131.594 187.756 132.567 187.513 133.552 187.539C134.537 187.564 135.497 187.858 136.328 188.387C137.159 188.917 137.83 189.662 138.27 190.544L138.274 190.552ZM127.798 191.952C127.724 193.352 126.578 192.624 125.008 192.436C121.68 191.992 118.246 193.06 117.852 192.754C117.026 192.308 118.136 187.628 122.828 187.656C125.756 187.652 128 190.294 127.8 191.936L127.798 191.952ZM141.578 189.266C144.724 190.348 144.618 196.708 139.648 197.81C139.506 197.692 137.796 196.472 137.464 196.29C138.222 195.525 138.718 194.54 138.88 193.476C138.983 193.396 139.076 193.305 139.16 193.206C139.222 193.406 139.342 193.582 139.505 193.713C139.669 193.843 139.868 193.921 140.076 193.936C140.168 193.876 140.384 194.312 140.26 194.57C140.018 195.156 138.98 195.682 139.134 195.994C139.27 196.394 140.816 196.22 141.366 194.994C141.46 194.778 141.506 194.544 141.501 194.309C141.496 194.074 141.44 193.842 141.337 193.631C141.234 193.419 141.087 193.232 140.905 193.082C140.724 192.933 140.512 192.824 140.284 192.764C140.484 192.476 141.354 192.264 141.658 192.728C142.168 193.554 142.502 193.216 142.458 192.478C142.382 191.194 140.708 190.95 139.704 191.694C139.718 191.13 139.598 190.57 139.352 190.062C139.238 189.826 140.454 188.864 141.574 189.25L141.578 189.266ZM114.38 172.4C114.534 171.878 115.074 169.488 115.61 169.37C117.12 168.272 120.18 177.37 122.782 169.912C122.85 169.712 123.582 167.678 123.864 167.728C124.6 166.572 126.3 178.372 125.844 180.242C125.8 180.442 125.79 180.31 111.382 182.76C111.518 183.14 110.782 181.27 110.63 180.868C111.03 180.806 124.536 178.19 124.476 177.702C124.402 177.062 115.504 178.166 110.392 180.256C103.284 161.934 111.938 180.684 114.38 172.4ZM109.14 195.174C112.234 195.506 113.388 193.362 112.376 193.702C108.558 194.988 103.188 191.102 104.592 186.714C105.592 183.59 109.52 183.818 111.934 185.524C113.934 186.966 114.174 188.766 114.48 188.698C114.612 188.688 114.752 188.238 114.614 187.418C114.352 186.371 113.846 185.402 113.138 184.588C127.42 182.01 126.926 182.108 127.282 181.588C127.8 180.034 127.892 178.369 127.546 176.768C129.62 175.568 131.05 174.168 133.01 174.8C135.452 175.744 129.926 180.104 130.962 180.74C131.172 180.99 132.542 179.868 134.836 178.572C137.066 177.388 139.264 177.22 138.292 179.518C137.608 181.204 136.43 181.264 135.828 182.766C134.81 185.24 137.666 185.26 138.182 188.366C137.512 187.667 136.692 187.131 135.783 186.798C134.874 186.466 133.902 186.345 132.939 186.445C131.977 186.546 131.05 186.865 130.229 187.378C129.409 187.892 128.717 188.586 128.206 189.408C127.533 188.358 126.561 187.533 125.415 187.039C124.269 186.546 123.002 186.407 121.776 186.639C120.55 186.871 119.422 187.465 118.536 188.344C117.651 189.223 117.048 190.346 116.806 191.57C116.762 192.17 116.628 193.246 117.536 193.628C117.468 194.619 117.712 195.607 118.234 196.452C118.756 197.297 119.529 197.957 120.446 198.34C121.188 198.64 120.798 198.058 118.522 200.26C117.476 201.249 116.647 202.446 116.088 203.773C115.53 205.101 115.255 206.53 115.28 207.97C115.266 209.94 116.428 210.624 114.396 209.12C109.95 205.878 108.932 200.668 109.14 195.174ZM112.374 222.822C114.043 221.69 115.956 220.971 117.957 220.723C119.958 220.475 121.99 220.706 123.884 221.396C132.028 224.146 134.084 229.538 134.712 229.268C135.148 229.088 133.994 225.778 130.692 223.398C122.352 217.228 114.452 218.76 111.58 222.516C108.068 221.168 104.966 220.022 102.468 219.148C104.746 214.136 108.868 212.548 114.19 211.2C115.105 211.683 116.07 212.064 117.068 212.336C120.154 216.06 124.268 216.43 128.78 217.136C131.185 217.578 133.653 217.562 136.052 217.088C139.958 221.804 140.834 228.596 141.194 234.728C132.63 230.912 121.342 226.278 112.374 222.822Z" fill="black"/>
<path d="M152.962 174.104C153.41 172.982 98.792 150.05 98.306 151.144C97.462 153.042 152.2 175.988 152.962 174.104Z" fill="black"/>
<path d="M233.142 126.968C234.656 124.624 235.888 124.87 236.964 126.368C240.478 131.228 255.076 151.82 254.062 157.8C253.619 159.271 252.825 160.612 251.75 161.708C250.674 162.805 249.348 163.623 247.886 164.094C246.47 164.524 244.486 165.602 243.086 166.058C241.486 166.871 239.93 167.767 238.424 168.742C233.5 170.942 227.91 166.942 218.164 161.186C215.672 159.716 216.352 157.572 217.564 155.026C222.129 145.339 227.333 135.965 233.142 126.968Z" fill="#92FCFF"/>
<path d="M232.158 197.29C232.92 198.858 233.996 201.44 236.118 200.618C237.344 200.142 237.588 198.566 238.136 197.372C238.779 196.221 239.588 195.17 240.536 194.254C242.46 192.07 255.198 171.604 253.92 169.054C253.08 167.376 248.562 171.36 241.772 173.93C239.298 175.087 236.574 175.607 233.847 175.444C231.121 175.281 228.479 174.439 226.16 172.996C221.278 170.488 218.676 168.638 216.57 169.938C215.532 170.58 215.828 170.538 216.282 171.804C221.662 186.696 229.34 191.49 232.158 197.29Z" fill="#92FCFF"/>
<path d="M215.284 161.2C217.172 163.926 232.684 171 234.998 170.684C235.16 170.684 235.298 170.574 235.482 170.684L235.942 170.554C249.404 164.154 260.802 163.89 252.542 149.554C247.096 140.622 236.924 123.178 235.814 123.824C234.49 122.99 219.378 148.144 218.666 149.382C216.6 153.166 213.834 157.762 215.284 161.2ZM234.014 166.876C228.664 164.94 223.522 162.476 218.662 159.518C217.88 158.948 218.784 159.032 221.828 158.454C227.596 157.358 232.864 156.016 234.374 155.822C234.422 168.672 235.116 167.23 234.014 166.878V166.876ZM236.342 166.382C234.88 167.002 235.598 168.328 236.024 155.75C238.19 155.848 245.424 157.87 251.45 158.82C249.8 161.632 240.254 164.724 236.342 166.384V166.382ZM239.048 132.332C248.262 151.638 251.788 153.414 251.792 157.422C251.776 158.468 253.17 158.08 239.046 154.396C238.075 154.15 237.083 153.996 236.084 153.936C236.25 148.29 236.57 129.834 235.908 124.948C236.793 127.475 237.842 129.943 239.048 132.334V132.332ZM218.678 157.892C220.064 153.514 231.138 136.386 235.278 126.106C234.606 132.436 234.374 146.956 234.368 153.996C230.694 154.416 218.562 158.264 218.678 157.894V157.892Z" fill="black"/>
<path d="M255.758 165.944C255.445 165.739 255.085 165.618 254.711 165.595C254.338 165.572 253.965 165.647 253.63 165.812C248.618 168.276 243.386 170.516 237.09 173.488C234.388 174.766 235.822 174.874 231.202 173.088C214.84 166.738 217.352 163.208 214.79 164.362C209.39 166.802 228.952 197.5 234.656 201.67C238.392 204.4 253.336 176.57 255.512 172.016C256.468 169.974 257.56 167.128 255.758 165.944ZM220.576 174.584C217.852 168.984 217.356 171.604 229.882 176.462C233.156 177.732 233.232 177.762 233.708 177.908C235.462 178.508 234.258 175.808 234.212 188.886C234.149 192.628 234.303 196.371 234.674 200.096C232.7 196.24 226.446 186.648 220.576 174.584ZM235.264 201.44C234.796 199.782 235.974 204.544 236.028 188.892C236.07 176.848 235.134 178.224 235.966 177.97L252.19 170.544C245.74 184.102 235.696 200.11 235.264 201.44Z" fill="black"/>
<path d="M194.422 254.884C191.988 253.792 189.774 252.263 187.892 250.372C186.654 248.532 185.245 246.813 183.682 245.24C180.73 241.842 178.283 238.036 176.416 233.94C175.666 232.028 175.452 230.306 173.524 220.07C171.78 210.812 170.17 199.644 178.18 193.286C184.546 188.232 196.656 189.778 201.98 192.13C208.816 195.15 218.274 205.348 221.088 218.642C222.318 224.442 223.162 239.738 220.806 245.18C216.102 256.034 196.64 255.6 194.422 254.884Z" fill="#FDFE1F"/>
<path d="M208.226 194.186C199.912 186.44 192.866 187.786 181.84 189.504C164.73 192.162 167.894 242.32 192.662 255.006C196.426 256.894 204.502 256.082 208.698 255.238C214.32 254.038 216.698 253.324 219.586 249.91C227.846 238.9 223.4 207.69 208.226 194.186ZM179.884 193.256C181.356 192.306 189.124 191.31 190.528 191.174C188.91 192.264 187.527 193.669 186.462 195.304C185.397 196.939 184.671 198.771 184.328 200.692C179.824 201.584 180.282 202.092 175.282 201.178C176.022 198.322 177.4 194.866 179.884 193.256ZM174.8 203.304C181.12 202.518 177.442 202.636 183.836 203.044C183.2 207.504 183.186 212.03 183.792 216.494C179.05 217.694 179.938 218.114 174.464 217.512C173.833 212.788 173.946 207.993 174.8 203.304ZM174.762 219.598C181.762 218.132 179.562 219.052 184.116 218.856C184.847 223.387 185.978 227.844 187.494 232.176C181.724 233.082 183.924 233.018 178.136 232.308C176.611 228.189 175.482 223.934 174.764 219.6L174.762 219.598ZM178.988 234.466C185.404 233.294 185.378 234.506 188.372 234.518C189.783 238.183 191.619 241.67 193.844 244.906C189.508 246.358 190.422 245.826 185.746 245.868C182.932 242.432 180.657 238.587 179 234.466H178.988ZM187.388 247.666C191.612 246.284 193.388 247.334 195.472 246.952C197.928 249.793 201.124 251.896 204.706 253.026C196.812 253.876 192.766 253.116 187.388 247.674V247.666ZM221.064 239.016C219.55 249.656 215.028 251.094 209 252.344C196.182 251.91 189.738 235.786 186.846 223.274C178.794 188.368 198.786 181.874 213.152 204C219.78 214.4 222.577 226.785 221.064 239.024V239.016Z" fill="black"/>
<path d="M216.78 223.9C217.564 230.75 217.406 240.9 212.418 245.572C211.843 246.167 211.155 246.642 210.395 246.968C209.634 247.295 208.816 247.467 207.989 247.475C207.161 247.482 206.34 247.325 205.574 247.012C204.808 246.699 204.112 246.237 203.526 245.652C189.67 234.48 183.632 191.452 200.242 196.55C206.73 198.54 211.562 207.598 214.154 213.87C216.668 220.114 216.906 219.996 214.826 213.624C206.426 188.654 187.626 188.258 188.298 211.544C188.938 228.406 201.784 258.238 213.462 246.682C218.748 241.494 218.836 231.178 217.488 223.788C216.178 217.158 215.936 217.314 216.78 223.9Z" fill="black"/>
<path d="M205.342 219.27C206.208 218.437 206.83 217.383 207.141 216.221C207.452 215.06 207.44 213.836 207.107 212.682C206.773 211.527 206.13 210.485 205.248 209.669C204.366 208.853 203.277 208.293 202.1 208.05C201.876 205.868 200.472 204.594 200.1 204.85C199.68 205.122 200.26 206.874 200.554 207.942C198.198 207.954 198.608 208.342 198.46 207.722C197.608 204.204 196.078 204.922 197.042 208.362C196.476 208.671 195.887 208.939 195.282 209.162C195.966 211.87 198.312 217.532 199.462 222.162C203.75 239.422 201.75 235.1 204.35 234.996C204.93 237.756 207.428 239.488 205.982 235.164C205.858 234.802 205.82 234.874 206.098 234.832C208.288 234.506 207.914 234.068 208.066 234.632C208.952 237.886 210.51 237.774 209.54 234.208C209.35 233.516 209.266 233.78 209.758 233.408C214.904 229.626 210.098 220.91 205.342 219.27ZM198.754 210.91C199.542 210.485 200.414 210.24 201.308 210.192C202.202 210.144 203.095 210.294 203.924 210.632C204.501 210.966 204.983 211.442 205.326 212.013C205.668 212.585 205.86 213.235 205.883 213.901C205.905 214.567 205.759 215.228 205.456 215.822C205.153 216.416 204.704 216.923 204.152 217.296C202.911 218.058 201.545 218.596 200.118 218.884C199.58 216.102 199.15 213.172 198.754 210.91ZM204.526 232C203.073 228.815 201.842 225.532 200.844 222.176C202.26 221.573 203.823 221.406 205.334 221.694C210.638 223.38 214.11 232.582 204.526 232Z" fill="black"/>
<path d="M255.954 329.356C258.588 327.756 261.366 326.42 264.14 325.084C274.108 320.284 277.064 320.77 284.156 323.8C289.248 325.976 308.582 334 310.556 339.072C311.156 340.62 311.006 340.338 311.136 360.308C311.178 366.954 310.234 366.538 309.592 369.956C308.662 374.912 310.156 376.65 304.32 379.68C296.643 384.011 288.248 386.925 279.538 388.28C276.973 389.036 274.281 389.265 271.624 388.954C268.968 388.642 266.402 387.796 264.082 386.466C260.346 384.698 245.43 376.08 243.442 372.48C242.242 370.294 242.464 369.46 241.964 349.966C241.518 332.454 239.914 339.08 255.954 329.356Z" fill="#FFC5F6"/>
<path d="M306.898 330.696C278.898 318.83 277.738 317.234 272.406 319.456L246.006 330.456C244.113 331.241 242.496 332.571 241.36 334.276C240.224 335.981 239.619 337.985 239.622 340.034V369.76C239.619 371.809 240.224 373.813 241.36 375.518C242.497 377.223 244.114 378.552 246.006 379.338C274.922 391.394 273.606 391.138 276.42 391.138C279.234 391.138 277.534 391.548 306.834 379.338C308.726 378.552 310.343 377.223 311.48 375.518C312.616 373.813 313.221 371.809 313.218 369.76V340.248C313.221 338.211 312.623 336.218 311.499 334.519C310.375 332.819 308.774 331.49 306.898 330.696ZM274.018 323.326C274.779 323.01 275.595 322.848 276.419 322.851C277.243 322.853 278.059 323.019 278.818 323.34C307.706 335.6 305.592 334.64 306.298 335.112L276.434 346.484L246.568 334.898C247.292 334.414 245.2 335.334 274.018 323.326ZM247.618 375.472C246.491 375.003 245.528 374.211 244.852 373.195C244.175 372.179 243.815 370.985 243.818 369.764C243.818 337.898 243.512 339.05 244.55 337.114L275.028 348.938C275.028 390.698 275.45 387.072 274.044 386.488L247.618 375.472ZM309.018 369.764C309.021 370.985 308.661 372.179 307.985 373.195C307.308 374.211 306.345 375.004 305.218 375.472L278.8 386.488C277.4 387.074 277.818 390.734 277.818 348.944L308.298 337.344C309.314 339.224 309.032 337.986 309.032 369.764H309.018Z" fill="black"/>
<path d="M138.894 329.356C141.528 327.756 144.306 326.42 147.08 325.084C157.046 320.284 160.004 320.77 167.096 323.8C172.188 325.976 191.522 334 193.496 339.072C194.096 340.62 193.946 340.338 194.076 360.308C194.118 366.954 193.174 366.538 192.532 369.956C191.6 374.912 193.096 376.65 187.26 379.68C179.583 384.011 171.188 386.925 162.478 388.28C159.913 389.036 157.221 389.265 154.564 388.954C151.908 388.642 149.342 387.796 147.022 386.466C143.286 384.698 128.37 376.08 126.382 372.48C125.182 370.294 125.404 369.46 124.904 349.966C124.458 332.454 122.854 339.08 138.894 329.356Z" fill="#FFC5F6"/>
<path d="M189.838 330.878C161.852 319.01 160.676 317.418 155.346 319.638L128.946 330.638C127.054 331.423 125.438 332.753 124.301 334.457C123.165 336.162 122.561 338.165 122.564 340.214V369.94C122.56 371.989 123.165 373.993 124.301 375.698C125.437 377.403 127.054 378.732 128.946 379.518C157.862 391.576 156.546 391.328 159.36 391.328C162.306 391.328 161.776 391.192 189.774 379.518C191.667 378.733 193.284 377.404 194.421 375.699C195.557 373.993 196.162 371.989 196.158 369.94V340.432C196.161 338.395 195.562 336.402 194.438 334.702C193.314 333.003 191.714 331.673 189.838 330.878ZM156.96 323.508C157.721 323.192 158.537 323.031 159.361 323.033C160.185 323.035 161.001 323.202 161.76 323.522C190.622 335.762 188.528 334.82 189.24 335.294L159.378 346.668L129.504 335.08C130.218 334.6 127.898 335.622 156.96 323.508ZM130.56 375.656C129.433 375.187 128.47 374.394 127.793 373.378C127.117 372.361 126.757 371.167 126.76 369.946C126.76 338.008 126.466 339.214 127.492 337.296L157.97 349.122C157.97 390.898 158.392 387.256 156.986 386.67L130.56 375.656ZM191.96 369.946C191.963 371.167 191.603 372.361 190.927 373.378C190.25 374.394 189.287 375.187 188.16 375.656L161.74 386.67C160.34 387.256 160.754 390.918 160.754 349.128L191.238 337.518C192.254 339.41 191.972 338.148 191.972 369.946H191.96Z" fill="black"/>
<path d="M287.4 331.136C287.25 328.6 283.614 321.464 280.356 314.866C279.49 312.612 277.824 310.757 275.676 309.654C274.53 308.873 273.221 308.365 271.848 308.17C270.475 307.974 269.076 308.096 267.758 308.526C264.786 309.15 265.4 309.268 264.606 308.308C266.406 308.146 267.298 307.722 268.5 305.398C272.87 296.956 268.672 294.154 267.076 287.398C266.674 284.458 265.908 281.579 264.796 278.828C262.61 273.028 262.292 268.81 255.08 272.9C253.148 273.996 253.008 274.774 253.702 276.542C254.81 279.362 257.992 288.22 257.418 291.208C257.37 291.809 257.154 292.384 256.796 292.868C256.437 293.352 255.95 293.727 255.39 293.948C254.829 294.17 254.218 294.23 253.625 294.122C253.033 294.013 252.482 293.741 252.036 293.336C248.59 291.058 248.618 287.694 248.088 284.964C247.404 281.458 244.646 275.718 241.188 275.324C240.336 275.312 239.501 275.562 238.797 276.041C238.092 276.519 237.552 277.204 237.25 278C236.384 281.672 244.45 302.226 246.94 305.084C248.519 306.769 250.607 307.889 252.884 308.272C253.928 314.288 255.038 311.856 252.808 313.472C251.992 314.34 251.412 315.402 251.122 316.557C250.833 317.712 250.843 318.922 251.152 320.072C252.104 325.38 261.224 336.072 263.304 337.49C267.366 340.278 272.576 338.924 270.798 334.332C270.184 333.07 269.414 331.89 268.506 330.82C264.142 324.722 268.184 320.076 271.53 321.02C274.318 321.798 274.93 325.454 275.79 327.466C277.049 330.262 278.89 332.757 281.19 334.784C281.796 335.286 282.542 335.59 283.326 335.653C284.111 335.716 284.896 335.536 285.574 335.138C286.253 334.739 286.792 334.141 287.119 333.425C287.446 332.709 287.544 331.91 287.4 331.136Z" fill="#FDFE1F"/>
<path d="M287.926 328.276C287.182 321.774 279.994 306.412 270.526 306.066C274.714 297.53 267.254 278.386 263.79 273.432C264.244 268.864 255.15 268.522 253.404 273.278C252.32 276.292 257.122 287.36 256.88 290.634C256.79 292.542 255.176 293.134 253.68 291.926C251.87 290.462 248.632 281.476 246.232 278.738C246.168 278.13 245.985 277.54 245.693 277.003C245.401 276.466 245.006 275.992 244.53 275.608C244.055 275.223 243.508 274.937 242.921 274.764C242.335 274.592 241.72 274.537 241.112 274.602C237.626 274.782 236.112 278.292 237.232 279.802C234.92 282.278 241.452 300.876 244.572 305.42C245.307 306.612 246.274 307.643 247.416 308.453C248.559 309.262 249.852 309.833 251.22 310.132C251.678 311.784 251.924 311.932 251.724 311.752C250.744 312.883 250.058 314.239 249.727 315.699C249.396 317.159 249.431 318.679 249.828 320.122C251.276 326.122 260.866 338.63 263.38 337.894C263.653 338.358 264.045 338.742 264.516 339.004C268.29 341.352 274.178 337.984 271.264 334.328C270.264 331.128 267.054 324.02 270.174 323.564C274.038 322.998 275.878 330.946 278.812 333.398C279.394 336.598 287.098 338.398 287.57 334.198C288.1 332.27 288.221 330.253 287.926 328.276ZM241.308 287.706C238.648 278.086 237.006 280.718 238.362 278.368C238.651 277.86 239.07 277.437 239.575 277.143C240.081 276.849 240.655 276.694 241.24 276.694C242.063 276.679 242.877 276.864 243.612 277.235C244.347 277.605 244.981 278.149 245.458 278.82C245.404 280.952 248.164 288.684 248.944 290.72C249.291 291.833 249.878 292.856 250.663 293.717C251.448 294.579 252.412 295.258 253.488 295.706C250.488 298.394 250.17 303.506 250.646 307.278C245.494 302.276 243.492 295.56 241.308 287.706ZM270.42 335.14C270.326 336.476 270.276 336.916 268.488 337.514C266.842 337.826 265.147 337.781 263.52 337.382C263.12 335.894 254.174 323.33 253.226 319.316C252.861 318.007 252.959 316.611 253.504 315.366C256.032 319.46 260.934 323.546 265.704 323.566C264.8 327.066 267.934 333.234 270.42 335.14ZM286.152 333.78C285.244 335.362 281.574 334.162 280.396 333.498C278.996 332.712 280.022 333.398 278.492 328.808C277.216 325.278 275.724 320.85 271.442 320.138C272.07 318.668 271.564 317.406 271.282 317.474C270.998 317.49 270.95 318.196 270.384 319.03C266.62 324.684 254.08 316.802 253.72 304.194C253.246 293.622 259.684 296.304 259.858 296.094C259.99 295.976 259.806 295.27 258.704 294.65C262.362 290.97 258.848 284.82 256.904 280.282C256.191 278.432 255.217 276.694 254.012 275.12C254.974 273.226 256.524 271.72 260.562 271.92C261.604 271.972 262.032 272.484 262.8 273.216C262.144 279.468 273.55 300.278 265.416 307.07C263.698 303.304 263.594 298.444 261.186 296.642C259.064 295.054 260.26 297.642 260.484 299.754C261.024 304.842 261.17 309.272 265.6 312.814C266.958 313.876 267.894 314.368 268.694 315.042C270.278 316.242 270.766 317.362 271.262 317.342C272.11 317.252 271.58 314.932 270.518 313.376C269.561 312.216 268.532 311.116 267.438 310.084C270.358 308.954 273.638 309.484 276.898 313.182C280.116 316.768 287.854 330.636 286.152 333.78Z" fill="black"/>
<path d="M192.492 286.654C191.362 285.259 189.767 284.317 188 284C183.452 283.774 182.934 292.682 180.098 296.2C178.078 298.706 175.318 298.486 174.6 297.336C174.143 295.834 174.194 294.224 174.744 292.754C175.869 290.651 176.709 288.407 177.242 286.082C178.089 283.904 178.114 281.493 177.312 279.298C176.53 277.666 172.566 276.75 170.448 278.924C169.491 280.127 168.809 281.524 168.448 283.018C166.772 287.84 158.758 300.39 166.822 306.218C166.332 309.418 166.654 308.896 165.68 308.618C158.096 306.472 148.118 327.916 148.112 330.46C148.158 331.221 148.454 331.946 148.954 332.521C149.455 333.096 150.132 333.49 150.88 333.64C154.968 334.512 156.952 329.84 158.336 327.68C160.49 324.318 163.048 324.092 164.058 324.772C164.755 325.541 165.234 326.482 165.448 327.497C165.662 328.513 165.603 329.567 165.276 330.552C164.69 332.476 162.69 334.908 164.046 336.986C165.468 339.166 166.268 339.308 167.63 339.328C171.262 339.384 169.748 339.672 173.468 335.802C175.758 332.787 177.835 329.617 179.684 326.314C180.96 323.91 181.303 321.119 180.647 318.477C179.992 315.835 178.384 313.529 176.132 312C176.632 310.082 176.252 310.558 177.242 310.738C180.61 310.802 183.901 309.727 186.582 307.688C188.511 305.032 189.979 302.07 190.924 298.926C191.272 297.66 191.458 296.354 191.804 295.088C192.47 292.686 194.216 289.274 192.492 286.654Z" fill="#FDFE1F"/>
<path d="M193.964 286.722C192.834 283.444 188.488 281.602 185.838 284.04C183.322 284.474 179.058 298.094 176.638 297.098C173.454 295.984 179.978 284.298 178.918 280.414C178.695 279.704 178.324 279.05 177.829 278.495C177.334 277.94 176.727 277.497 176.048 277.194C175.368 276.891 174.632 276.737 173.889 276.74C173.145 276.744 172.41 276.905 171.734 277.214C169.22 278.482 154.498 296.872 163.908 307.388C158.108 308.362 155.908 311.692 153.294 315.956C151.354 319.188 146.81 327.888 147.326 331.494C147.794 335.128 153.604 336.212 155.184 333.456C156.184 333.394 158.168 331.482 159.89 328.918C160.222 328.254 160.758 327.713 161.419 327.374C162.081 327.035 162.833 326.917 163.566 327.036C167.92 328.356 161.934 334.728 163.494 336.184C163.594 336.925 163.871 337.631 164.303 338.241C164.735 338.852 165.307 339.349 165.972 339.69C166.637 340.031 167.375 340.207 168.123 340.202C168.87 340.197 169.606 340.011 170.266 339.66C174.066 337.472 186.02 322.732 180.254 313.622C188.678 312.562 190.872 304.75 192.682 297.07C192.954 295.868 194.8 287.628 193.964 286.722ZM154.55 332.826C151.564 333.344 149.854 332.94 148.314 330.328C151.314 327.296 157.192 314.512 160.644 312.306C161.886 311.503 163.291 310.988 164.758 310.798C164.492 312.027 164.019 313.201 163.358 314.27C159.676 320.138 161.406 323.882 166.338 316.09C168.858 312.028 168.62 307.614 169.478 303.794C170.278 300.142 171.396 299.146 171.016 298.458C170.48 297.41 166.834 298.532 165.842 304.224C160.242 296.274 171.69 282.434 170.952 278.724C173.384 278.79 175.168 277.884 177.952 281.524C175.642 282.924 171.212 293.226 172.324 296.982C171.96 297.182 171.102 297.912 171.31 298.294C171.538 298.718 172.554 298.51 173.2 298.666C177.708 298.666 175.072 324.088 165.8 323.764C162.556 323.592 162.77 320.642 162.044 320.592C161.572 320.512 160.746 321.932 161.312 323.68C157.4 324.736 154.334 330.922 154.55 332.826ZM170.628 338.202C167.902 338.288 166.91 338.456 164.628 336.076C166.19 335.186 167.4 333.787 168.055 332.113C168.71 330.438 168.771 328.59 168.228 326.876C173.296 325.746 175.758 320.288 177.168 315.296C181.824 321.974 171.694 332.456 170.628 338.2V338.202ZM191.36 291.126C187.474 301.154 187.414 310.24 178.398 310.252C179.049 306.996 178.968 303.635 178.162 300.414C182.094 299.092 185.27 291.138 186.11 287.078C186.624 284.432 186.002 285.056 187.11 284.828C188.166 284.769 189.22 284.967 190.182 285.406C191.144 285.844 191.985 286.509 192.634 287.344C193.126 287.89 192.958 287 191.36 291.126Z" fill="black"/>
</svg>
