<svg width="400" height="400" viewBox="0 0 400 400" fill="none" xmlns="http://www.w3.org/2000/svg">
<path d="M349.182 282.6C351.042 288.33 356.182 308.924 355.6 319.438C355.2 326.898 352.368 329.224 352.48 330.356C352.592 331.488 356.216 334.556 358.168 336.52C367.05 345.464 367.826 356.31 363.226 363.32C358.226 370.92 342.646 377.432 333.288 378.902C324.36 380.302 296.854 388.156 285.958 372.356C283.794 369.216 284.714 365.438 286.028 354.398C286.4 351.262 285.694 350.622 283.666 349.638C265.996 341.064 268.628 326.962 265.816 316.258C263.478 307.36 263.518 307.278 263.016 306.538C258.898 300.568 232.816 288.976 234.06 276.918C234.724 270.518 238.836 267.684 239.1 266.798C239.35 265.952 223.7 247.998 249.716 243.904C248.428 237.436 240.2 231.63 256.048 222.266C260.982 219.352 268.048 220.394 273.768 220.802C282.05 221.402 289.968 224.288 297.768 227.156C306.32 230.304 309.52 231.672 321.328 240.888C334 250.8 343.956 266.516 349.182 282.6Z" fill="white"/>
<path d="M282.988 335.044C275.824 328.3 274.11 319.552 275.188 319.244C276.188 318.96 278.734 326.212 285.388 332.488C292.042 338.764 299.446 340.868 299.224 341.878C299.014 342.858 290.438 342.056 282.988 335.044Z" fill="black"/>
<path d="M354.174 329.884C366.842 306.058 347.908 257.2 319.948 236.196C304.284 224.512 266.038 211.648 250.748 222.38C248.07 224.07 246.022 226.592 244.918 229.56C243.814 232.527 243.716 235.775 244.638 238.804C246.308 243.73 247.802 241.87 243.678 242.946C232.334 245.89 227.9 257.832 236.598 266.454C230.768 270.52 231.29 278.822 234.474 285.146C240.012 296.346 261.376 304.836 262.24 309.978C264.808 326.802 266.746 344.874 284.482 352.074C282.706 362.94 280.784 372.588 289.83 378.416C302.262 386.602 320.618 385.006 335.166 380.92C369.874 371.34 380.658 353.212 354.174 329.884ZM333.848 376.188C320.752 379.87 303.424 381.832 292.124 374.754C285.486 370.754 286.486 363.292 287.582 353.154C293.666 354.902 302.452 355.118 302.452 354.198C302.464 353.552 296.024 353.348 288.952 350.686C270.752 343.998 269.552 327.4 266.996 309.21C265.584 300.392 244.184 293.576 238.714 283.022C236.198 278.134 235.314 272 240.254 269.262C243.491 271.031 247.009 272.228 250.654 272.798L251.382 269.722C245.12 267.896 238.934 265.332 236.966 259.078C235.178 253.772 239.554 248.998 244.902 247.678C256.602 244.75 281.042 255.878 294.89 260.628C293.64 263.064 292.612 265.608 291.818 268.228L295.85 269.45C300.25 254.884 308.616 247.588 307.622 246.534C306.982 245.824 300.986 250.334 296.458 257.82C286.282 253.264 276.282 248.388 265.412 245.17C260.636 243.8 244.718 242.822 249.512 231.322C255.78 216.214 289.222 225.738 303.974 232.446C342.086 249.992 360.932 304.846 351.092 326.972C345.692 339.204 329.14 348 316.24 351.68C310.208 353.376 306.688 353.68 306.72 354.08C306.76 356.28 339.552 351.656 352.454 332.734C374.826 355.106 364.498 367.334 333.848 376.188Z" fill="black"/>
<path d="M93.644 81.53C92.6 71.444 97.296 60.6 106.112 55.6C117.814 48.956 138.206 51.612 200.152 43.278C224.234 40.038 233.314 37.238 244.724 36.568C258.078 35.784 261.032 39.782 265.658 42.732C271.936 46.732 274.56 57.574 275.63 64.948L301.164 305.58C301.164 305.58 296.74 317.102 291.35 320.06C285.96 323.018 146.4 340.12 146.4 340.12C146.4 340.12 127.568 342.618 122.924 327.982C119.49 317.144 120.45 342.858 93.644 81.53Z" fill="#FFC5F6"/>
<path d="M124.962 93.13C122.362 84.308 126.41 76.002 133.338 73.254C139.484 70.818 148.17 70.2281 240.248 59.4361C240.248 59.4361 252.568 57.6201 255.636 64.1241C260.236 73.8781 258.82 69.5241 282.866 289.7C283.686 297.202 279.928 304.684 271.954 306.45C271.532 306.544 276.024 305.982 162.584 319.672C162.584 319.672 154.308 319.648 151.884 314.672C147.078 304.8 150.986 329.88 124.962 93.13Z" fill="white"/>
<path d="M302.8 297.302L276.6 58.026C275.034 43.732 262.962 33.226 249.448 34.848L113.466 51.212C100.094 52.812 90.496 65.812 92.066 80.188L118.266 319.464C119.708 332.64 130.164 342.808 142.666 342.808C144.684 342.808 135.854 343.808 281.396 326.278C294.772 324.668 304.372 311.668 302.8 297.302ZM119.856 54.688C258.498 38 250.442 38.888 252.188 38.888C262.678 38.888 271.222 47.57 272.416 58.476L298.176 293.776C296.964 304.256 289.298 312.862 279.2 314.078L154.912 329.036C142.79 330.49 132.21 320.892 130.826 308.236L105.78 79.466C105.105 74.3662 106.115 69.1855 108.656 64.7126C111.197 60.2397 115.13 56.7196 119.856 54.688ZM280.898 322.088L144.914 338.46C133.638 339.816 123.75 330.86 122.452 319.006L96.256 79.73C94.984 68.102 102.294 57.556 112.73 55.588C109.203 58.4746 106.462 62.204 104.759 66.4313C103.056 70.6585 102.447 75.2469 102.988 79.772L128.034 308.552C129.59 322.764 141.582 333.48 155.246 331.832L279.536 316.874C283.703 316.308 287.654 314.676 291.006 312.135C294.358 309.595 296.998 306.233 298.67 302.374C297.824 312.508 290.552 320.932 280.898 322.094V322.088Z" fill="black"/>
<path d="M266.428 127.07C259.954 68.046 260.428 71.452 259.73 69.042C258.916 65.9231 257.149 63.136 254.675 61.0697C252.201 59.0034 249.144 57.7611 245.93 57.516C244.106 57.472 251.686 56.958 135.972 70.606C127.996 71.548 121.87 79.87 123.146 89.584C123.146 89.584 146.346 300.746 147.042 306.546C147.379 309.645 148.585 312.585 150.52 315.029C152.456 317.472 155.042 319.319 157.982 320.356C160.834 321.067 163.813 321.1 166.68 320.454C166.88 320.432 271.28 307.068 271.212 306.564C271.14 305.986 165.412 318.244 162.396 318.364C155.704 318.62 150.43 312.65 149.7 306.192C149.042 300.4 125.932 89.278 125.932 89.278C124.836 80.84 130.012 74.14 136.302 73.394C252.956 59.58 246.26 59.23 250.728 61.718C252.636 62.8467 254.251 64.4081 255.444 66.2761C256.637 68.1442 257.374 70.2666 257.596 72.472C257.658 72.936 256.836 64.564 282.216 289.996C282.639 293 282.149 296.062 280.81 298.784C279.47 301.506 277.343 303.763 274.704 305.26C272.62 306.29 269.61 306.812 272.18 306.534C274.493 306.102 276.653 305.071 278.443 303.543C280.232 302.015 281.59 300.045 282.38 297.828C284.236 293.264 285.762 303.336 266.428 127.07Z" fill="black"/>
<path d="M248.154 83.924C246.9 79.5013 243.954 75.751 239.954 73.486C235.074 70.92 238.606 71.204 152.318 81.914C146.128 82.684 141.652 88.204 140.39 94.41C139.833 97.2952 139.792 100.256 140.268 103.156C156.356 249.974 155.288 241.196 156.3 244.332C159.05 252.844 165.678 256.624 171.088 256.058C187.072 254.382 247.518 245.884 249.272 245.578C266.31 242.62 198.426 250.864 170.872 253.478C166.564 253.878 161.18 250.744 158.892 243.518C158.018 240.758 159.324 250.786 143.056 102.848C142.62 100.246 142.646 97.5872 143.132 94.994C144.132 90.044 147.612 85.342 152.652 84.702C238.212 73.858 233.736 74.772 235.188 74.926C239.188 75.352 243.49 78.562 245.472 84.768C246.286 87.316 245.024 78.54 262.198 227.568C263.098 235.368 259.32 241.814 254.44 244.028C252.902 244.724 250.796 245.134 252.63 244.982C258.008 244.848 264.642 237.506 263.762 227.422C263.38 223.028 249.716 88.81 248.154 83.924Z" fill="black"/>
<path d="M162.878 287.266C162.878 262.704 167.86 271.572 249.954 259.94C252.149 259.427 254.441 259.515 256.59 260.194C272.208 266.806 271.59 293.206 256.964 297.374C253.014 298.5 263.944 296.248 176.258 307.574C176.258 307.574 167.48 309.716 165.422 303.136C163.737 298.015 162.878 292.657 162.878 287.266Z" fill="#92FCFF"/>
<path d="M187.3 294.924C186.946 294.146 186.44 293.442 186.13 292.646C185.652 291.42 185.664 290.046 185.19 288.816C184.689 287.798 184.121 286.815 183.49 285.872C182.148 283.416 179.936 274.514 176.638 274.836C173.612 275.13 172.638 283.254 172.762 283.02C172.684 283.22 169.762 295.758 170.418 298.19C171.208 301.064 174.466 301.248 175.634 298.256C177.558 293.322 173.894 294.598 180.048 293.368C180.838 293.21 181.074 293.436 181.188 294.258C182.328 302.412 189.156 299 187.3 294.924ZM179.188 288.324C178.844 289.594 176.084 290.574 176.142 287.312C176.136 285.822 176.379 284.342 176.86 282.932C176.895 282.882 176.943 282.843 176.999 282.819C177.055 282.795 177.116 282.786 177.176 282.795C177.237 282.803 177.293 282.827 177.341 282.866C177.388 282.904 177.424 282.955 177.444 283.012C178 284.546 179.63 286.682 179.188 288.324Z" fill="white"/>
<path d="M189.282 296.2C189.984 296.972 190.872 297.553 191.861 297.886C192.85 298.22 193.908 298.295 194.935 298.106C195.962 297.916 196.923 297.467 197.728 296.803C198.532 296.138 199.154 295.278 199.534 294.306C201.506 289.98 197.518 287.55 195.682 289.35C194.526 290.484 194.788 293.45 193.496 292.414C190.218 289.784 191.128 279.984 192.156 279.628C192.572 279.484 195.182 280.66 196.374 278.704C197.566 276.748 195.476 273.572 192.132 273.762C183.96 274.214 183.662 289.252 189.282 296.2Z" fill="white"/>
<path d="M204.412 279.288C203.012 288.514 206.874 292.706 207.634 290.062C207.712 289.794 207.634 286.916 210.268 286.95C210.817 287.011 211.345 287.201 211.806 287.505C212.268 287.809 212.651 288.218 212.924 288.699C213.197 289.18 213.353 289.718 213.378 290.27C213.403 290.822 213.297 291.373 213.068 291.876C212.58 293.179 211.697 294.296 210.543 295.073C209.388 295.849 208.021 296.246 206.63 296.208C205.145 295.952 203.73 295.387 202.476 294.55C199.504 291.95 196.494 279.082 200.658 274.216C205.102 269.016 211.474 274.258 209.04 277.144C206.728 279.89 204.9 276.084 204.412 279.288Z" fill="white"/>
<path d="M212.262 275.91C213.032 284.11 213.63 284.404 213.65 286.374C213.464 287.724 213.725 289.097 214.394 290.284C214.922 291.672 215.26 293.852 216.9 294.646C219.302 295.214 221.829 294.911 224.028 293.79C225.006 293.32 225.244 292.916 225.164 291.622C225.062 289.946 224.722 289.01 222.984 288.706C219.342 288.072 219.9 290.632 219.06 286.062C218.808 284.684 223.198 285.692 223.44 282.4C223.572 280.612 222.054 278.888 218.604 279.478C218.266 279.536 218.168 279.454 218.11 279.156C217.774 277.428 217.648 277.034 217.738 276.816C218.176 275.782 223.528 276.754 220.804 271.888C219.692 269.904 217.624 270.41 215.13 270.948C214.63 270.904 214.126 270.982 213.662 271.175C213.198 271.368 212.787 271.67 212.465 272.055C212.143 272.441 211.919 272.898 211.811 273.389C211.704 273.88 211.716 274.389 211.848 274.874C211.904 275.266 212.638 278.772 212.262 275.91Z" fill="white"/>
<path d="M235.2 271.984C231.756 266.6 225.246 268.436 223.894 271.638C223.394 272.822 223.792 274.774 224.326 277.886C226.694 291.72 227.238 292.532 228.504 293.15C228.786 293.272 229.088 293.337 229.395 293.341C229.702 293.345 230.007 293.288 230.291 293.173C230.576 293.058 230.835 292.888 231.053 292.672C231.271 292.456 231.444 292.199 231.562 291.916C231.77 291.098 231.755 290.239 231.52 289.428C229.772 280.122 232.414 286.466 235.894 281.792C238.018 278.924 237.148 275.046 235.2 271.984ZM231.02 278.41C228.65 281.934 227.706 273.026 229.17 274.044C231.08 273.35 232.8 275.752 231.01 278.41H231.02Z" fill="white"/>
<path d="M239.8 272.8C241.24 286.67 241.3 287.8 241.768 289.68C242.716 293.48 245.786 292.504 246.512 290.28C247.282 287.926 245.808 287.422 245.25 273.026C245.172 271.006 248.428 272.974 249.484 270.942C249.715 270.375 249.805 269.76 249.749 269.15C249.692 268.54 249.489 267.953 249.158 267.438C247.584 265.71 237.862 267.214 236.604 267.998C234.7 269.186 234.652 272.68 237.434 272.82C237.65 272.822 239.774 272.584 239.8 272.8Z" fill="white"/>
<path d="M165.512 271.706C162.535 275.125 160.987 279.559 161.19 284.088C160.836 316.35 173.084 308.904 189.614 306.888C248.614 299.688 255.064 298.23 255.014 297.806C254.932 297.11 219.932 300.286 189.278 304.1C179.054 305.372 170.744 308.73 167.228 303.388C163.712 298.046 163.572 284.588 164.356 280.266C164.659 277.785 165.769 275.472 167.516 273.683C169.262 271.895 171.548 270.73 174.022 270.368L252.548 261.168C266.908 260.768 272.91 288.47 259.718 295.866C257.026 297.376 252.77 298.13 256.392 297.866C276.052 296.398 272.298 256.282 250.758 258.522C166.768 267.236 169.968 267.098 165.512 271.706Z" fill="black"/>
<path d="M177.054 295.086C176.886 295.977 176.772 296.877 176.71 297.782C176.7 298.62 176.408 299.43 175.879 300.08C175.35 300.731 174.617 301.183 173.799 301.364C172.981 301.545 172.125 301.443 171.372 301.076C170.619 300.709 170.012 300.098 169.65 299.342C169.218 297.477 169.309 295.529 169.914 293.712C170.778 287.94 172.15 282.255 174.014 276.724C174.708 275.014 176.594 274.766 176.628 274.978C176.64 275.05 176.372 275.13 175.954 275.392C174.802 276.118 174.31 277.05 172.988 285.108C172.956 285.308 171.134 296.722 171.112 297.264C171.01 299.68 173.244 300.286 174.312 298.864C174.784 298.24 174.782 297.782 175.044 295.602C175.286 293.582 175.27 293.582 175.498 293.574C176.477 293.195 177.486 292.899 178.514 292.688C182.05 292.078 181.514 292.51 181.74 292.988C183.372 297.3 183.316 297.378 183.816 297.894C184.038 298.105 184.312 298.252 184.61 298.32C184.909 298.388 185.22 298.375 185.511 298.283C185.803 298.19 186.064 298.021 186.268 297.793C186.472 297.565 186.61 297.286 186.67 296.986C187.084 295.572 179.978 279.142 178.926 276.512C178.28 274.892 176.778 275.156 176.762 274.954C176.746 274.752 178.634 274.39 179.602 276.184C180.966 278.71 189.202 294.69 188.412 297.486C187.496 300.768 182.906 301.674 181.302 297.246C181.116 296.734 180.302 294.604 180.214 294.404C179.134 294.486 178.071 294.715 177.054 295.086Z" fill="black"/>
<path d="M200.98 290.246C200.682 289.465 200.123 288.811 199.398 288.394C198.673 287.978 197.826 287.824 197.001 287.96C196.176 288.095 195.423 288.511 194.869 289.138C194.316 289.764 193.995 290.563 193.962 291.398C193.73 293.928 190.832 284.426 192.29 280.326C192.974 280.683 193.76 280.794 194.516 280.641C195.272 280.487 195.952 280.078 196.442 279.483C196.932 278.887 197.203 278.141 197.208 277.37C197.214 276.598 196.954 275.848 196.472 275.246C195.816 274.437 194.904 273.875 193.887 273.652C192.87 273.428 191.807 273.557 190.872 274.016C192.068 273.948 193.262 274.184 194.342 274.702C198.272 276.892 194.756 280.832 192.704 278.826C189.304 275.506 189.26 295.76 194.612 293.338C194.994 293.149 195.315 292.858 195.539 292.496C195.764 292.135 195.882 291.718 195.882 291.292C195.922 291.053 196.012 290.825 196.146 290.623C196.28 290.421 196.455 290.249 196.659 290.119C196.863 289.989 197.093 289.903 197.333 289.867C197.572 289.831 197.817 289.846 198.05 289.91C198.284 289.975 198.501 290.087 198.689 290.241C198.876 290.395 199.029 290.586 199.138 290.803C199.246 291.019 199.309 291.256 199.32 291.498C199.331 291.74 199.292 291.982 199.204 292.208C199.116 293.038 198.841 293.837 198.4 294.546C197.959 295.255 197.363 295.854 196.657 296.3C195.951 296.745 195.154 297.025 194.324 297.118C193.495 297.211 192.655 297.116 191.868 296.838C186.374 294.596 184.7 279.872 188.328 275.978C189.582 274.56 190.708 274.244 190.636 274.088C190.636 273.996 189.38 274.042 187.788 275.454C183.17 279.402 184.33 295.688 191.188 298.552C197.672 301.118 202.422 293.772 200.98 290.246Z" fill="black"/>
<path d="M214.106 290.252C213.278 299.252 198.13 302.728 197.974 282.438C197.908 273.61 203 272.288 203.026 272.576C203.35 273.14 198.836 273.554 199.34 282.398C200.37 300.464 211.592 296.65 212.184 290.046C212.572 288.11 209.166 286.906 208.75 289.95C208.723 290.302 208.603 290.641 208.402 290.932C208.201 291.222 207.927 291.455 207.607 291.605C207.288 291.755 206.934 291.818 206.582 291.788C206.23 291.757 205.893 291.633 205.604 291.43C203.114 289.558 202.076 278.39 204.804 276.97C205.384 276.668 205.17 276.636 205.644 277.104C205.925 277.348 206.268 277.51 206.634 277.574C207.001 277.637 207.378 277.6 207.725 277.465C208.071 277.33 208.375 277.103 208.603 276.809C208.83 276.514 208.973 276.164 209.016 275.794C209.366 274.338 207.4 272.194 204.382 272.394C203.746 272.436 203.398 272.518 203.37 272.438C204.295 271.886 205.382 271.669 206.447 271.824C207.513 271.979 208.493 272.497 209.222 273.29C209.804 273.915 210.128 274.738 210.126 275.592C210.124 276.446 209.797 277.267 209.212 277.889C208.627 278.511 207.827 278.887 206.974 278.941C206.122 278.995 205.281 278.723 204.622 278.18C206.004 278.4 205.142 277.878 204.948 280.032C204.562 284.33 206.248 291.2 206.886 289.82C206.873 289.317 206.964 288.817 207.154 288.351C207.344 287.885 207.629 287.464 207.991 287.114C208.352 286.765 208.783 286.494 209.255 286.319C209.726 286.144 210.229 286.07 210.732 286.1C211.234 286.13 211.724 286.264 212.172 286.494C212.619 286.723 213.014 287.044 213.332 287.434C213.649 287.824 213.882 288.277 214.015 288.762C214.148 289.247 214.179 289.754 214.106 290.252Z" fill="black"/>
<path d="M223 295.288C216.256 296.266 214.254 296.914 213.272 289.124C211.578 275.694 209.854 272.124 213.106 270.99C213.906 270.612 217.368 270.538 215.206 270.99C213.7 271.546 213.806 271.412 213.406 271.626C211.376 272.734 212.48 275.486 212.962 277.964C215.454 290.816 214.962 293.764 217.638 294.014C219.804 294.02 221.95 293.593 223.95 292.76C224.263 292.497 224.483 292.139 224.576 291.74C224.669 291.341 224.631 290.923 224.466 290.548C224.302 290.173 224.021 289.861 223.665 289.659C223.308 289.457 222.896 289.376 222.49 289.428C222.278 289.452 219.156 290.05 218.956 290.088C218.912 290.088 218.928 289.996 218.912 289.954L218.014 284.478C219.848 284.256 220.952 284.278 221.744 283.678C221.996 283.429 222.181 283.119 222.279 282.778C222.378 282.437 222.388 282.077 222.308 281.731C222.227 281.386 222.06 281.066 221.821 280.804C221.582 280.541 221.28 280.345 220.944 280.232C219.795 280.272 218.651 280.383 217.516 280.566L216.766 275.674C222.72 276.104 220.986 271.24 219.268 270.958C218.928 270.854 213.968 270.998 216.812 270.476C217.664 270.236 218.55 270.138 219.434 270.186C220.059 270.342 220.627 270.673 221.071 271.139C221.516 271.606 221.818 272.189 221.944 272.821C222.07 273.453 222.013 274.107 221.781 274.708C221.55 275.31 221.152 275.832 220.634 276.216C218.248 277.892 218.184 275.546 218.774 278.67C218.854 278.964 220.086 278.514 221.174 278.592C224.54 279.11 226.122 285.208 220.214 286.08H220.184C220.196 286.118 220.45 287.586 220.458 287.624C220.508 287.914 220.388 287.862 220.92 287.764C221.924 287.431 223.005 287.405 224.024 287.69C227.782 288.896 227.152 294.684 223 295.288Z" fill="black"/>
<path d="M232.64 292.308C232.378 293.006 231.907 293.605 231.29 294.024C230.673 294.442 229.942 294.659 229.197 294.644C228.452 294.629 227.73 294.383 227.13 293.94C226.531 293.498 226.083 292.88 225.85 292.172C224.996 287.372 223.484 275.834 223.204 273.838C223.034 273.195 223.031 272.52 223.194 271.875C223.358 271.231 223.683 270.638 224.138 270.154C225.2 269.154 227.938 268.452 227.938 268.826C227.996 269.026 226.904 269.094 225.554 270.192C223.51 272.404 223.72 268.792 227.666 291.64C228.082 293.24 231.454 293.344 230.898 290.162C230.784 289.512 230.098 285.05 229.852 283.51C233.452 283.074 236.15 282.11 236.252 278C236.352 273.8 233.792 269.696 229.79 269.076C228.65 268.9 227.99 268.946 227.974 268.82C227.954 268.726 228.588 268.454 229.844 268.434C233.63 268.37 237.772 272.206 237.874 278.016C237.954 279.715 237.399 281.382 236.317 282.694C235.236 284.006 233.705 284.869 232.022 285.114C232.77 289.744 233.162 290.834 232.64 292.308Z" fill="black"/>
<path d="M245.86 292.922C245.321 293.251 244.706 293.433 244.075 293.449C243.444 293.465 242.819 293.315 242.265 293.014C241.71 292.713 241.244 292.271 240.914 291.733C240.584 291.195 240.401 290.579 240.384 289.948C238.236 267.714 240.252 275.468 236.284 273.178C235.895 272.937 235.56 272.619 235.298 272.245C235.035 271.87 234.852 271.446 234.758 270.998C234.665 270.551 234.663 270.089 234.754 269.64C234.844 269.192 235.024 268.767 235.284 268.39C236.18 266.926 237.272 267.076 238.63 266.99C242.43 266.766 242.568 267.028 238.72 267.738C237.39 267.982 236.762 267.872 236.218 268.928C236.01 269.24 235.889 269.601 235.867 269.974C235.845 270.348 235.922 270.721 236.091 271.055C236.26 271.389 236.515 271.672 236.829 271.875C237.143 272.079 237.506 272.195 237.88 272.212C241.28 272.412 240.054 267.904 242.28 289.734C242.279 290.184 242.453 290.616 242.766 290.938C243.08 291.26 243.507 291.447 243.956 291.459C244.405 291.47 244.841 291.305 245.171 290.999C245.5 290.694 245.696 290.271 245.718 289.822C244 265.564 243.238 272.79 247.746 271.39C249.662 270.79 249.488 267.59 247.746 267.26C246.666 267.179 245.581 267.169 244.5 267.23C236.752 267.252 246.96 266.08 247.946 266.198C248.78 266.442 249.494 266.987 249.948 267.728C250.403 268.468 250.565 269.352 250.404 270.206C250.243 271.06 249.77 271.823 249.078 272.348C248.385 272.873 247.522 273.121 246.656 273.044C246.418 273.049 246.18 273.068 245.944 273.1C247.756 290.134 248.468 291.318 245.86 292.922Z" fill="black"/>
<path d="M229.92 278.744C231.244 278.456 231.664 275.6 231.664 275.6C232.162 275.338 232.782 278.982 230.282 279.944C227.882 280.866 227.402 275.144 227.766 274.382C227.957 274.006 228.259 273.697 228.63 273.496C229.002 273.296 229.426 273.213 229.845 273.26C230.265 273.306 230.66 273.48 230.979 273.757C231.297 274.034 231.524 274.401 231.628 274.81C231.75 275.198 231.706 275.43 231.628 275.456C231.448 275.57 231.082 274.644 230.126 274.342C229.646 274.192 228.79 274.5 228.912 275.194C229.104 276.3 229.424 278.76 229.92 278.744Z" fill="black"/>
<path d="M177.736 290.088C175.204 290.572 175.59 288.726 175.71 287.466C175.786 286.656 176.392 282.64 176.954 282.758C177.22 282.816 177.04 284.406 176.926 288.802C177.378 288.868 178.57 288.444 178.368 288.422C178.71 288.008 177.872 285.622 177.704 285.128C175.652 279.106 180.43 286.808 179.554 289.024C179.314 289.634 178.378 289.964 177.736 290.088Z" fill="black"/>
<path d="M254.346 39.726C250.164 44.804 241.518 46.454 244.458 47.526C250.446 49.714 254.89 48.698 260.082 58.498C261.556 61.7382 263.285 64.8561 265.254 67.822C265.777 63.5985 267.131 59.5203 269.238 55.8227C271.345 52.1251 274.163 48.8812 277.53 46.278C279.194 44.972 281.096 44.0014 283.13 43.42C285.982 40.672 269.088 42.882 263.708 26.116C260.17 15.098 260.596 25.838 260.168 27.748C259.191 32.141 257.197 36.2435 254.346 39.726Z" fill="white"/>
<path d="M283.332 41.364C278.696 39.598 272.772 38.428 268.976 33.85C262.776 26.386 262.336 15.908 260.934 16.092C258.686 16.18 261.806 34.676 249.224 42.792C244.75 45.866 240.1 46.62 240.248 47.44C240.236 48.24 244.728 48.378 249.55 50.4C263.934 55.968 263.164 73.588 265.35 73.236C266.926 72.87 266.068 56.62 277.678 47.762C284.17 42.882 289.358 43.622 283.332 41.364ZM264.91 64.952C263.765 60.9571 261.757 57.2622 259.028 54.128C252.544 46.806 245.066 47.354 246.796 46.804C255.932 42.752 260.396 34.766 261.642 25.32C264.812 35.662 271.56 41.37 281.974 42.938C273.09 45.334 266.616 55.85 264.91 64.952Z" fill="black"/>
<path d="M147.022 377.108C149.622 378.67 152.036 385.44 160.694 388.324C168.112 390.796 173.654 388.34 178.428 383.806C186.974 375.656 193.029 365.247 195.888 353.79C198.266 344.174 205.774 332.166 195.102 320.79C188.322 313.566 180.102 314.812 173.09 313.572C164.992 312.14 172.742 308.454 157.168 296.644C150.355 291.55 143.29 286.803 136 282.42C131.2 278.42 129.98 279.168 116.146 268.45C95.93 252.788 90.726 246.32 79.158 249.15C75.606 250.02 73.03 251.196 71.978 257.232C70.896 263.565 72.0125 270.077 75.142 275.688C71.232 273.806 68.162 270.366 64.082 268.888C57.396 266.488 49.316 270.626 46.718 277.242C45.559 280.614 45.4778 284.263 46.4855 287.683C47.4932 291.103 49.5399 294.125 52.342 296.33C35.52 289.986 29.57 302.692 35.644 314.262C41.69 325.778 55.682 331.94 70.592 340.074C67.92 343.792 62.84 345.164 60.136 348.858C58.034 351.732 55.696 360.532 57.174 365.104C59.374 371.872 67.678 375.086 74.196 375.064C78.868 375.048 83.476 373.994 88.14 373.698C103.124 372.75 117.586 379.628 132.706 379.31C145.058 379.058 143.928 375.248 147.022 377.108Z" fill="white"/>
<path d="M144.886 322.4C137.432 308.918 140.54 301.6 138.964 301.334C136.806 300.858 133.846 322.868 153.632 337.602C149.24 336.219 144.617 335.724 140.032 336.146C129.044 337.228 122.782 344.192 123.376 344.884C124.176 345.856 129.702 340.71 140.376 339.64C150.078 338.704 158.076 341.29 158.436 340.128C159.16 339.168 150.982 333.148 144.886 322.4Z" fill="black"/>
<path d="M202.052 331.316C199.814 310.636 176.702 312.802 170.264 311.716C163.986 293.2 150 289.462 121.37 269.326C107.154 259.2 98.36 248.68 87.788 246.342C75.424 243.522 65.774 252.79 70.848 268.106C71.736 270.636 71.882 268.808 66.048 266.838C51.934 262.18 38.428 276.886 44.804 289.838C45.978 292.238 46.512 292.398 46.228 292.354C30.828 290.306 22.17 312.414 46.174 328.784C73.388 346.526 69.388 334.866 60.26 345.628C48.932 358.568 54.996 375.284 70.594 377.196C74.8267 377.54 79.0848 377.401 83.286 376.782C104.066 373.346 125.526 387.856 146.23 378.382C173.118 418.8 205.138 359.06 202.052 331.316ZM47.678 283.058C47.7664 281.165 48.2847 279.316 49.1936 277.653C50.1026 275.99 51.3783 274.555 52.924 273.458C66.91 263.288 71.96 282.528 104.724 294.858C99.4652 302.478 95.18 310.725 91.968 319.408C79.808 312.036 68.078 303.018 55.46 296.038C52.378 294.334 47.344 288.666 47.678 283.058ZM196.984 340.562C194.868 352.894 190.214 366.178 182.686 376.104C171.036 391.596 160.59 391.704 149.188 376.838C163.256 368.438 167.732 351.146 166.604 350.73C165.35 350.228 160.668 364.546 148.004 372.234C128.578 383.964 107.494 368.744 82.768 371.9C77.368 372.482 70.956 373.282 66.2 370.888C51.688 363.618 59.862 337.958 93.614 338.572C102.172 338.668 107.242 340.722 107.552 339.988C108.674 338.266 88.984 330.388 70.968 338.13C60.706 333.058 42.98 323.872 38.026 313.594C33.328 304.12 38.058 296.194 45.606 297.194C52.924 298.142 75.516 314.654 90.912 322.544C90.404 324.154 88.144 331.872 89.13 332.176C90.312 332.536 94.866 319.852 103.034 305.54C111.15 291.21 119.25 280.41 118.284 279.594C117.71 279.108 112.634 283.902 106.728 292.032C100.841 289.323 95.1486 286.208 89.692 282.712C82.076 277.81 77.99 275.312 75.156 266.664C73.24 260.702 73.374 254.864 78.89 251.764C85.826 248.418 93.518 253.6 99.648 258.312C112.348 268.256 104.414 264.536 146.358 290.958C154.07 295.816 160.358 299.688 165.358 308.894C173.726 324.156 168.092 341.928 169.234 342.214C169.786 342.354 174.55 328.974 171.262 315.152C183.386 317.378 200.918 316.734 196.984 340.562Z" fill="black"/>
<path d="M140.4 152C143 170.722 142.95 171.8 144.156 174C147.782 180.644 161.728 182.112 169.07 178.634C171.506 177.557 173.591 175.819 175.089 173.617C176.587 171.415 177.439 168.837 177.546 166.176C177.396 163.893 176.905 161.645 176.088 159.508C161.088 113.628 161.718 123.044 164.42 112.818C167.986 109.722 171.179 106.221 173.932 102.384C174.296 101.985 174.556 101.503 174.69 100.98C174.824 100.457 174.827 99.9087 174.7 99.384C173.556 89.512 172.5 95.466 181.7 86.052C183.172 84.544 182.942 83.214 181.26 82C178.746 80.182 178.214 80.8 177.432 76.4C177.089 74.4796 176.511 72.6088 175.71 70.83C170.809 72.7106 166.027 74.8873 161.39 77.348C160.978 75.496 162.966 72.518 163.676 70.818C168.096 60.258 171.514 63.418 159.61 58.172C156.39 66.1267 152.822 73.9267 148.906 81.572C147.757 78.4265 147.214 75.0917 147.306 71.744C147.682 69.744 148.222 70.462 151.306 60.69C151.628 59.668 151.644 59.998 142.926 58.206C139.085 66.6183 137.531 75.8952 138.422 85.1C136.154 81.614 131.752 80.634 130.182 75.21C129.656 73.392 129.3 72.782 127.278 73.09C122.37 73.84 122.29 73.792 121.984 74.054C120.584 75.254 125.048 84.692 126.278 86.824C136.836 105.15 131.306 86.434 140.4 152Z" fill="white"/>
<path d="M227.674 164.864C226.326 158.308 222.55 157.926 216.474 160.804C215.63 161.204 215.51 161.532 215.62 162.344C215.842 164.002 216.166 165.644 216.59 167.262C209.038 170.236 209.19 169.886 209.464 170.942C214.79 191.192 214.664 190.192 214.354 190.694C212.686 191.689 210.875 192.421 208.984 192.864C207.84 193.174 207.426 193.444 207.302 194.746C207.101 196.875 207.383 199.022 208.126 201.028L209.496 249.41L240.644 245.81C242.736 240.684 245.308 250.52 227.674 164.864Z" fill="white"/>
<path d="M193.45 90.47C193.224 92.142 192.562 94.244 190.878 94.332C189.606 94.4 187 92.22 186.156 95.796C186.052 96.6927 185.803 97.5667 185.42 98.384C178.798 98.702 182.62 95.184 179.662 106.708C186.202 108.75 183.25 106.834 182.6 112.562C182.524 113.234 187.786 113.684 188.34 114.644C188.812 115.46 188.804 114.554 184.578 137.476C183.56 143.004 183.436 145.108 186.578 153.098C197.098 179.898 195.378 180.214 201.162 184.666C203.438 186.418 206.562 187.572 207.454 190.3C207.92 191.72 207.926 192.62 209.536 192.676C211.399 192.594 213.217 192.081 214.848 191.178L209.248 170.146C210.866 169.712 216.328 167.862 216.972 166.916C217.694 165.86 216.604 162.36 215.854 160.894C226.756 158.866 219.642 159.966 223.554 149.22C225.46 143.982 225.48 143.67 226 143.322C226.96 142.682 232.728 143.658 233.844 143.872C236.178 121.83 238.574 120.386 240.644 101.898C241.548 93.784 240.626 92.25 230.348 86.044C225.01 82.82 223.322 82.208 216.116 81.746C205.878 81.092 194.75 80.854 193.45 90.47Z" fill="white"/>
<path d="M226.514 135.384L205.582 132.79L206.234 127.66L208.948 128.004L208.642 130.412L226.85 132.668L226.514 135.384Z" fill="black"/>
<path d="M211.553 136.288L211.183 139.001L219.358 140.116L219.728 137.403L211.553 136.288Z" fill="black"/>
<path d="M238.084 106.828L238.516 104.322L224.53 101.9L224.094 104.406L222.294 104.094L221.794 106.98L218.636 106.464L219.168 103.394L217.368 103.082L217.824 100.38L186.948 94.8721L186.58 96.9481L203.502 99.9641C203.34 100.892 203.74 100.722 201.58 100.348L200.122 108.748L201.922 109.06L201.49 111.564L215.478 114L215.912 111.498L217.712 111.808L218.192 109.036L221.35 109.55L220.836 112.508L222.636 112.822L222.202 115.326L236.2 117.74L236.634 115.236L238.434 115.546L239.89 107.146L238.084 106.828Z" fill="black"/>
<path d="M187.69 184.58L164.472 119.878C165.872 113.374 163.782 117.156 176.238 101.696L175.504 94.526L185.504 84.454C178.192 76.564 180.282 80.068 176.768 68.79L163.8 74.438L170.54 62.018L159.94 55.176C149.596 75.51 151.506 71.576 149.39 76.476C148.836 71.464 148.158 74.93 153.974 59.156L142.374 55.448C135.886 72.11 136.974 66.068 136.974 81.92C132.446 76.9 133.906 79.478 130.744 70.21L119.46 72.064C121.914 83.216 119.722 78.018 129.836 95.426C134.122 106.154 131.36 90.426 143.292 189.212L149.554 188.16L152.47 200.376L161.982 197.458L163.744 204.306L183.344 197.574L180.862 188.2L187.69 184.58ZM132.954 94.036C123.296 77.558 125.052 81.61 123.566 74.856L128.428 74.056C130.854 81.166 128.348 77.478 140.382 90.826C140.382 65.804 139.344 72.642 144.382 59.688L149.508 61.326L145.466 72.288L147.388 89.688C151.429 79.5598 156.058 69.6763 161.252 60.088L166.004 63.154C156.508 80.656 158.732 75.236 155.624 87.388C167.516 75.388 163.176 78.416 174.624 73.432L176.172 78.396L156.546 92.9L155.608 97.926L148.726 96.926L146.502 112.51L149.89 112.992L151.628 100.804L158.37 101.784L159.662 94.852L177.952 81.334L180.752 84.354L171.926 93.246L172.68 100.626C160.28 116.026 162.71 111.746 160.914 120.088L174.422 158.4L168.966 159.946L170.366 164.592L164.11 166.456L166 172.348L160.152 174.296L157.952 169.424L150.604 171.404L149.34 167.004L144.432 168.756C134.914 91.69 137.338 105.216 132.954 94.036Z" fill="black"/>
<path d="M257.026 241.252L255.882 220.72L232.156 148.558L226.47 147.64L226.904 144.724L234.984 145.384L245.31 80.956L241.11 80.05L242.212 73.672L236.532 72.55L237.404 67.436L207.062 62.152L205.996 67.552L200.298 66.506L199.298 72.078L194.498 71.288L190.8 92.374L185.15 91.158L184.164 96.582L179.828 95.582L177.382 108.022L181.842 109.022L180.754 114.078L186.288 115.63L181.328 147.042L177.128 148.696L191.128 186.454L184.252 189.8L187.112 199.432L163.6 207.498L166.056 252.456C166.109 253.446 166.541 254.377 167.263 255.057C167.984 255.737 168.939 256.113 169.93 256.108C170.314 256.108 167.578 256.434 211.36 250.948L210.384 235.948L220.322 234.904L210.322 194.104L216.194 192.382L210.904 170.638L218.55 168.198L217.1 161.988L220.454 161.102L222.354 170.526L214.8 173.024L229.292 232.366L235.072 231.87L238.738 246.9L254.874 244.154C255.539 244.044 256.135 243.679 256.536 243.138C256.938 242.596 257.113 241.92 257.026 241.252ZM223.184 146.478L204.832 144.134L205.536 138.888L198.696 137.924L199 135.74L195.6 135.284L194.856 140.838L201.508 141.776C200.818 146.854 200.022 153.022 199.352 158.098L202.834 158.558L203.502 153.492L219.286 155.332L219.906 158.414L213.824 160.014L215.304 166.354L207.632 168.8L212.91 190.484L209.66 191.436L205.46 174.312L201.048 175.312L197.41 161.038L193.098 162.074L186.576 144.98L185.018 145.594L190.138 113.168L184.772 111.662L185.896 106.438L181.376 105.42L182.5 99.712L186.884 100.712L187.884 95.238L190.172 95.732L188.3 105.164L196.398 106.694L199.636 89.08L204.932 90.114L205.67 86.088L220.27 88.864L219.91 92L229.01 93.552L228.328 96.814L239.004 98.678L234.316 127.94L231.628 127.612L232.288 122.738L202.146 119.11L201.444 124.278L197.322 123.7L196.522 129.338L199.912 129.814L200.228 127.564L204.362 128.142L205.076 122.908L228.422 125.72L227.762 130.588L233.762 131.322L232.096 141.722L224 141.052L223.184 146.478Z" fill="black"/>
<path d="M204.873 101.793L204.37 104.694L207.27 105.197L207.773 102.296L204.873 101.793Z" fill="white"/>
<path d="M207.268 105.198L206.765 108.098L209.666 108.601L210.168 105.7L207.268 105.198Z" fill="white"/>
<path d="M225.585 105.541L225.082 108.442L227.983 108.944L228.485 106.043L225.585 105.541Z" fill="white"/>
<path d="M227.983 108.945L227.481 111.845L230.382 112.348L230.884 109.447L227.983 108.945Z" fill="white"/>
<path d="M108.314 283.764C110.73 281.99 128.248 269.2 128.034 268.964C135.19 277.074 134.25 280.138 136.68 277.778C137.88 276.614 143.152 271.978 144.784 272.352C147.956 273.066 159.692 292.978 166.708 300.592C167.358 301.296 167.404 301.722 166.576 302.404C158.726 308.884 158.4 308.93 158.388 309.72C158.372 310.594 160.01 311.892 163.432 318.074C165.418 321.662 149.692 327.146 142.846 334.322C141.92 335.292 140.899 336.169 139.8 336.938C134.43 340.704 131.108 329.402 127.89 328.706C126.648 328.436 126.192 328.936 117.944 333.848C116.852 334.5 116.24 334.54 115.178 333.192C111.404 328.416 99.46 312.458 97.068 308.276C96.9506 308.128 96.8966 307.94 96.918 307.752C96.9394 307.565 97.0343 307.394 97.182 307.276C101.43 302.34 103.262 302.954 103.81 301.522C104.646 299.344 94.316 293.664 99.896 289.34C102.576 287.262 105.286 285.984 108.314 283.764Z" fill="#FDFE1F"/>
<path d="M92.668 168.6C92.324 168.924 92.586 168.168 89.01 182.964C88.41 185.466 91.658 184.008 92.298 185.406C92.4354 186.902 92.3844 188.409 92.146 189.892C95.632 190.994 102.146 192.14 102.946 191.778C103.592 191.488 104.546 187.856 104.702 187.22C105.472 184.074 108.812 189.42 109.716 184.75C111.634 174.848 112.538 172.438 110.804 172.018C108.752 171.52 108.75 173.336 109.572 166.766C98.402 163.788 97.284 163.73 96.732 166.62C96.082 169.986 94.332 167.036 92.668 168.6Z" fill="#FDFE1F"/>
<path d="M136.412 149.356C136.52 150.07 135.626 150.334 132.99 152.012C132.638 152.234 132.59 152.402 132.826 152.758C135.296 156.63 135.492 156.794 135.448 157.284C135.334 158.502 124.92 164.004 123.848 164.558C123.352 164.816 123.102 164.798 122.696 164.228C118.594 158.444 120.058 158.816 116.36 161.186C115.264 161.888 114.586 161.93 113.544 160.426C112.312 158.646 105.022 147.426 105.052 146.176C105.094 144.562 108.988 144.908 107.424 142.672C105.93 140.532 105.064 139.528 105.044 138.554C105.028 137.844 105.626 137.078 106.326 137.2C111.314 135.094 116.59 127.94 119.126 131.11C121.862 134.524 122.024 134.86 122.378 134.886C122.638 134.906 122.578 134.886 125.778 132.604C129.947 137.766 133.515 143.387 136.412 149.356Z" fill="#FDFE1F"/>
<path d="M148.676 130.092C142.448 132.056 145.576 132.964 145.844 134.984C146.044 136.566 144.36 136.126 144.276 136.926C144.252 137.158 144.096 136.706 147.51 144.552C148.91 147.768 150.27 144.936 151.384 145.592C151.676 145.764 151.68 145.86 153.196 148.634C153.67 149.502 159.696 146.634 160.582 146.172C161.436 145.724 161.166 145.584 159.834 142.69C163.662 140.734 162.618 141.908 160.046 136.472C156.968 129.972 157.906 130.548 155.26 131.472C154.888 131.602 154.76 131.546 154.566 131.242C152.266 127.648 153.814 128.472 148.676 130.092Z" fill="#FDFE1F"/>
<path d="M72.548 218.682C72.49 219.082 72.404 218.736 76.878 228.142C70.846 233.002 70.522 233.142 70.33 233.69C69.622 235.724 75.69 244.048 77.33 247.176C79.458 251.232 82.114 259.84 84.79 260.176C87.39 260.504 92.704 253.406 94.846 256.618C98.656 262.332 100.698 266.44 102.9 265.3C104 264.732 103.5 263.678 107.442 261.558C125.48 251.868 125.62 251.836 125.868 251.1C126.286 249.87 124.502 248.84 121.602 241.948C121.324 241.286 121.402 241.004 122.076 240.61C127.81 237.284 129.592 236.21 129.532 234.672C129.478 233.254 115.024 207.64 114.288 206.348C113.778 205.45 113.396 205.382 112.608 205.748C109.93 207.009 107.338 208.445 104.848 210.046L99.46 201.046C78.734 213.896 72.684 217.736 72.548 218.682Z" fill="#FDFE1F"/>
<path d="M130.828 233.522C114.108 202.618 115.272 202.382 111.578 204.76C111.578 204.76 105.76 208.466 105.726 208.492C104.438 206.367 103.286 204.162 102.276 201.892C101.076 199.474 99.652 199.138 97.476 200.848C97.046 201.178 99.196 199.696 72.104 216.748C71.5999 217.073 71.2357 217.575 71.0832 218.155C70.9307 218.735 71.0009 219.351 71.28 219.882L75.434 228.134C70.692 231.23 67.728 232.304 69.078 234.896C83.678 262.896 82.552 261.68 83.93 262.048C85.142 262.372 84.984 262.19 93.73 257.08C99.742 266.998 99.39 266.822 100.556 267.134C101.85 267.476 100.516 268.43 126.224 252.64C126.721 252.327 127.083 251.841 127.242 251.276C127.401 250.712 127.345 250.108 127.084 249.582C127.014 249.422 125.364 245.604 123.248 241.518L129.752 237.66C130.425 237.238 130.912 236.574 131.112 235.805C131.312 235.035 131.21 234.219 130.828 233.522ZM116 233.284L120.246 241.354L102.294 252.728C96.294 241.316 98.824 242.128 88.494 248.672L78.2 229.12C78.42 228.532 77.4 229.32 85.4 224.25C87.444 222.954 85.568 220.954 81.89 213.962C101.616 201.62 99.536 202.674 99.726 203.084C99.916 203.494 99.726 203.128 103.27 209.874C104.696 213.042 106.36 211.474 113.406 206.924C113.46 207.028 123.726 226.356 123.726 226.356C116.722 230.8 114.938 231.27 116 233.284ZM73.938 218.924L80.102 215.08L84.062 222.608L77.8 226.578L73.938 218.924ZM124.4 250.466L101.312 264.2C93.474 251.268 96.758 252.066 84.726 259.1L71.726 233.92L76.656 230.7C87.542 251.386 86.856 250.604 87.914 250.888C88.886 251.152 88.778 250.988 96.438 246.136C99.866 252.646 100.878 256.114 103.058 254.736L120.96 243.396C122.6 246.464 123.958 249.476 124.4 250.466ZM128.318 235.254C121.694 239.158 121.752 239.134 121.544 239.294L117.968 232.494L124.742 228.204C128.54 235.2 128.6 235.09 128.314 235.254H128.318Z" fill="black"/>
<path d="M97.174 239.07C95.638 239.99 93.916 241.47 93.326 240.14C92.986 239.37 93.412 216.432 93.42 216.232C93.478 215 94.254 214.508 95.22 215.14C99.72 218.102 101.332 218.76 101.29 221.378C101.014 238.262 101.88 236.246 97.174 239.07Z" fill="black"/>
<path d="M109.962 231.352C104.128 234.856 104.942 234.996 105.186 224.22C105.218 222.804 106.116 222.42 107.052 223.042C115.338 228.616 115.93 227.764 109.962 231.352Z" fill="black"/>
<path d="M150.04 256.034C149.866 257.316 150.098 257.878 151.568 258.22C156.204 259.3 158.49 258.288 158.942 259.82C159.172 260.604 158.39 261.932 158.314 266.38C158.24 270.73 171.054 268.994 178.6 270.952C182.144 271.872 184.476 272.192 185.046 268.47C186.134 261.366 186.046 261.218 186.538 260.776C187.192 260.176 187.55 260.418 196.418 261.776C197.658 252.896 198.602 243.866 199.564 234.952C197.091 235.043 194.62 234.748 192.238 234.078C192.346 232.346 193.802 225.768 192.37 224.638C191.94 224.355 191.445 224.185 190.932 224.144C164.436 219.838 166.03 220.002 165.364 220.206C161.682 221.328 166.542 229.872 160.676 228.968C151.542 227.564 154.386 224.022 150.04 256.034Z" fill="#FDFE1F"/>
<path d="M193.754 232.784L194.644 225.124C194.724 224.543 194.571 223.954 194.218 223.485C193.866 223.017 193.342 222.706 192.762 222.622C162.618 218.41 164.452 218.422 163.45 219.532C162.788 220.268 162.924 220.434 161.93 227.884C155.792 226.992 153.198 226.018 152.584 228.794C152.538 228.994 152.814 227.918 148.628 256.464C148.571 256.833 148.588 257.209 148.679 257.571C148.769 257.932 148.932 258.272 149.157 258.57C149.382 258.867 149.664 259.117 149.987 259.303C150.31 259.489 150.668 259.609 151.038 259.654L157.51 260.388C156.964 264.162 156.768 267.66 156.77 267.7C156.73 267.99 156.748 268.285 156.822 268.568C156.897 268.852 157.026 269.117 157.204 269.35C157.381 269.583 157.603 269.778 157.857 269.925C158.11 270.072 158.39 270.168 158.68 270.206C185.15 273.606 183.742 273.344 184.738 272.592C185.674 271.884 185.458 271.842 187.338 262.318C196.292 263.278 196.178 263.464 197.098 262.77C198.15 261.97 197.596 263.296 201.148 236.152C201.53 233.264 198.094 233.466 193.754 232.784ZM185.702 224.496L191.794 225.326L190.974 232.376L184.758 231.488L185.702 224.496ZM155.538 229.8C161.438 230.704 164.432 232.018 164.714 228.268C164.714 228.268 165.576 221.726 165.58 221.668C167.028 221.974 163.156 221.414 183.614 224.224C182.162 234.98 180.854 233.068 191.284 234.558C191.484 234.86 191.634 233.186 188.884 253.522C178.084 251.978 180.064 250.486 178.572 261.544L160.216 258.92C161.696 247.964 163.182 249.848 152.698 248.35C155.056 232.858 154.95 229.704 155.538 229.8ZM158.264 257.666C158.064 257.624 157.852 257.608 151.406 256.89L152.386 250.428L159.112 251.39L158.264 257.666ZM195.254 260.348C183.118 259.048 185.486 257.256 182.928 270.17L159.6 267.484C159.672 266.434 159.872 263.804 160.26 261.042C180.226 263.896 178.74 263.696 178.944 263.696C180.944 263.696 180.664 261.84 181.642 254.604L189.018 255.658C191.374 256.004 190.878 254.566 193.442 235.576L198.302 236.34L195.254 260.348Z" fill="black"/>
<path d="M178.276 231.132C179.416 233.688 179.376 233.496 179.35 233.666C178.792 237.378 178.804 238.182 178.602 238.15C173.918 237.394 174.202 237.536 174.232 237.336C174.373 236.61 174.463 235.875 174.5 235.136C171.338 234.644 171.598 234.616 171.574 234.786C171.01 238.55 170.774 239.258 170.974 239.29C176.894 240.224 176.744 240.108 176.834 240.308C177.984 242.88 177.94 242.688 177.916 242.85C177.604 245.928 177.128 248.987 176.49 252.014C175.214 253.448 174.852 254.034 174.652 254.002C166 252.626 165.914 252.73 165.824 252.53C164.658 249.93 164.708 250.13 164.73 249.976C165.272 246.376 165.274 245.444 165.476 245.476C170.058 246.214 169.876 246.076 169.85 246.286C169.707 247.012 169.619 247.747 169.586 248.486C172.676 248.968 172.428 248.996 172.454 248.832C173.03 244.974 173.254 244.354 173.054 244.322C167.288 243.414 167.292 243.522 167.202 243.322C166.05 240.746 166.09 240.932 166.116 240.764C166.43 237.716 166.902 234.685 167.53 231.686C168.176 231.051 168.77 230.366 169.308 229.638C169.308 229.634 169.31 229.63 169.312 229.627C169.314 229.624 169.316 229.621 169.32 229.618C169.323 229.616 169.327 229.615 169.33 229.614C169.334 229.613 169.338 229.613 169.342 229.614C178.842 231.12 178.186 230.932 178.276 231.132Z" fill="black"/>
<path d="M135.968 210.4C136.404 203.25 136.516 203.226 136.168 202.918C135.916 202.698 135.726 202.75 130.218 202.194C129.607 202.04 129.044 201.739 128.576 201.318C133.694 167.18 132.746 171.378 133.364 170.686C134.82 169.054 138.4 170.554 140.27 170.618C142.14 170.682 141.482 168.662 141.494 167.556C141.52 165.559 141.721 163.568 142.094 161.606C142.588 161.046 141.534 161.094 165.204 164.23C167.804 164.574 168.184 165.686 166.46 174.776C168.352 175.248 170.248 175.699 172.148 176.128C169.916 198.338 170.066 204.612 166.93 204.192C161.364 203.446 161.376 203.37 160.87 203.676C158.844 204.902 159.27 214.97 156.424 214.846C149.344 214.54 145.29 213.174 142.52 212.996C140.054 212.83 133.616 213.184 135.968 210.4Z" fill="#FDFE1F"/>
<path d="M167.556 173.734C168.446 166.248 169.48 163.304 166.768 162.934C140.6 159.29 142.2 159.26 141.256 160.542C140.76 161.212 140.88 161.006 139.772 169.39C134.128 168.404 132.024 167.61 131.538 171.46C127.62 202.56 127.042 201.048 128.092 202.404C128.92 203.472 129.366 203.304 135.118 203.914C134.54 207.96 134.274 211.726 134.272 211.796C134.219 212.082 134.223 212.375 134.286 212.659C134.348 212.943 134.466 213.211 134.634 213.449C134.802 213.686 135.016 213.887 135.263 214.04C135.51 214.193 135.785 214.295 136.072 214.34C154.524 216.636 157.18 216.622 157.394 216.622C159.882 216.622 159.68 213.674 161.258 205.128L168.07 205.796C168.357 205.825 168.647 205.797 168.923 205.713C169.199 205.629 169.456 205.49 169.678 205.306C169.9 205.122 170.083 204.895 170.217 204.639C170.35 204.383 170.432 204.104 170.456 203.816L173.878 177C174.26 174.154 171.366 174.342 167.556 173.734ZM137.742 202.524C139.3 190.89 140.542 192.79 131.628 191.524C131.628 191.524 134.352 171.57 134.368 171.458C139.482 172.196 142.232 173.526 142.568 169.686C142.568 169.686 143.488 162.668 143.498 162.568C144.026 162.724 142.942 162.552 158.766 164.694C157.262 175.91 155.966 174.11 164.998 175.394C165.328 175.976 165.53 173.482 162.61 195.934C153.126 194.584 154.938 193.006 153.478 204.766L137.742 202.524ZM164.77 173.366L159.686 172.644L160.716 164.952L165.692 165.616L164.77 173.366ZM130.284 200.578C130.38 200.378 130.716 197.694 131.338 193.472L136.858 194.256L135.93 201.182C135.786 201.156 134.478 201.022 130.284 200.578ZM167.744 202.944C157.212 201.912 159.344 200.054 156.818 213.744L137.1 211.62C137.186 210.526 137.436 207.594 137.866 204.53C153.97 206.82 153.55 206.778 153.76 206.778C155.788 206.778 155.466 204.026 156.336 197.026L162.69 197.93C164.852 198.25 164.444 196.442 167.116 176.504L171.03 177.13L167.744 202.944Z" fill="black"/>
<path d="M148.844 185.384C146.584 185.384 144.68 182.732 143.824 180.946C143.624 180.546 143.588 180.916 144.366 179.118C145.652 176.12 147.249 173.265 149.13 170.6C150.056 169.172 149.712 169.186 150.33 170.714C151.876 174.959 153.024 179.337 153.762 183.794C153.4 184.914 149.266 185.384 148.844 185.384ZM145.2 180.632C145.814 181.811 146.666 182.85 147.702 183.682C147.993 183.861 148.32 183.974 148.66 184.013C149 184.052 149.344 184.015 149.668 183.906C150.584 183.773 151.491 183.579 152.382 183.326C151.68 179.651 150.734 176.026 149.55 172.476C147.803 175.026 146.344 177.761 145.2 180.632Z" fill="black"/>
<path d="M153.652 187.096C154.136 185.496 151.428 186.646 150.198 186.946C147.416 187.61 146.934 187.116 145.464 185.012C142.394 180.626 143.044 185.386 143.49 190.738C143.452 193.166 144.099 195.556 145.356 197.634C147.868 197.61 153.34 188.128 153.652 187.096ZM150.84 189.458C149.393 191.768 147.749 193.948 145.928 195.976C144.984 194.03 144.968 191.95 144.556 187.362C144.26 184.08 144.776 188.026 147.456 188.492C151.248 189.15 152.87 186.278 150.84 189.458Z" fill="black"/>
<path d="M137.24 148.318C124.946 129.196 127.548 130.074 121.952 133.664C119.552 129.836 118.908 127.606 116.57 129.534C104.088 137.41 102.926 137.46 104.084 139.298L106.764 143.698C102.164 146.758 102.05 144.31 113.124 162.004C114.162 163.664 115.386 162.484 118.874 160.452L122.316 165.358C123.472 167.192 124.418 166.204 136.038 159.026C136.372 158.805 136.605 158.46 136.685 158.068C136.766 157.675 136.687 157.266 136.466 156.932C136.418 156.844 135.316 154.82 133.948 152.676C136.118 151.4 138.6 150.446 137.24 148.318ZM131.732 152.49L123.4 157.838C119.416 151.514 120.732 151.97 115.782 155.144L109 144.368C109.178 143.818 108.508 144.368 112.2 142.008C113.416 141.23 112.122 139.922 109.83 136.284C115.416 132.758 117.726 131.31 117.908 131.168C121.682 137.196 120.674 136.99 125.53 133.876L132.33 144.536C127.534 147.6 127.8 146.24 131.732 152.49ZM106.132 138.614L108.634 137.034L111.142 141.014L108.59 142.65L106.132 138.614ZM134.4 157.55L123.82 163.838C118.766 156.638 120.332 157.17 114.652 160.476L106.088 146.676L108 145.414C115.282 156.974 114.82 156.504 115.48 156.652C116.08 156.784 116.142 156.586 119.572 154.386C121.882 158.052 122.644 159.986 123.86 159.214L132.2 153.86C133.162 155.364 134 156.836 134.4 157.55ZM132.508 151.084L130.266 147.524L133.076 145.724L135.4 149.368C135.362 149.4 132.548 151.058 132.508 151.084Z" fill="black"/>
<path d="M125.988 145.666C121.014 141.484 117.218 135.646 116.522 138.426C116.422 138.826 116.412 138.566 117.966 143.922C117.532 144.168 117.102 144.422 116.678 144.688C116.517 144.782 116.401 144.936 116.353 145.116C116.306 145.297 116.333 145.488 116.427 145.649C116.521 145.81 116.675 145.926 116.855 145.974C117.036 146.021 117.227 145.994 117.388 145.9C117.712 145.7 118.04 145.5 118.37 145.3L119.53 149.288C119.579 149.468 119.698 149.62 119.86 149.712C120.022 149.804 120.213 149.828 120.393 149.779C120.573 149.73 120.725 149.611 120.817 149.449C120.909 149.287 120.933 149.096 120.884 148.916L119.63 144.604C120.128 144.346 121.14 143.986 120.664 143.248C120.264 142.63 119.664 143.012 119.232 143.232C117.482 137.212 117.718 140.532 124.996 146.648C125.682 147.236 126.68 146.248 125.988 145.666Z" fill="black"/>
<path d="M110.226 171.178C111.58 164.592 113.148 166.28 98.528 163.378C96.44 162.682 96.36 163.998 95.484 167.95C92.44 167.328 91.57 166.856 91.064 169.212C87.378 186.424 86.354 184.978 91.504 185.844C90.09 192.2 89.4 190.554 102.636 193C103.004 193.067 103.384 192.988 103.695 192.78C104.007 192.573 104.225 192.252 104.304 191.886L105.534 187.41C111.422 188.354 109.654 189.932 113.266 173.378C113.656 171.588 111.6 171.484 110.226 171.178ZM93.556 184.8C94.818 179.084 95.18 179.956 91.004 179.104L93.13 169.636C97.512 170.54 96.978 170.97 98.196 165.49L105.424 166.912C104.562 170.798 104.44 170.868 104.76 171.362C105.298 172.192 107.776 171.89 108.306 172.588L106.176 182.2C101.546 181.254 102.376 180.616 101.116 186.346L93.556 184.8ZM108.132 170.91L106.07 170.488L106.802 167.184L108.816 167.584L108.132 170.91ZM89.976 183.466L90.682 180.466L92.97 180.934L92.322 183.856L89.976 183.466ZM108.456 185.754C103.144 184.904 104.184 184.378 102.412 190.834L92.992 189.234C93.102 188.578 93.308 187.434 93.578 186.234C103.502 188.262 101.898 189.31 103.288 183.034C108.222 184.034 106.888 185.448 109.608 173.196L111.08 173.522L108.456 185.754Z" fill="black"/>
<path d="M162.92 140.584C157.236 128.472 158.52 129.202 155.12 130.7C153.254 126.63 154.968 126.92 144.532 131.406C143.284 132.186 144.208 133.238 145.154 135.386C143.998 135.916 142.792 136.226 143.338 137.422C148.558 148.888 147.02 147.76 150.974 146.222C152.332 148.822 152.718 150.234 153.874 149.75C161.23 146.666 162.384 146.75 161.764 145.418C160.586 142.332 160.192 143.172 162.332 142.324C162.489 142.253 162.629 142.15 162.745 142.022C162.86 141.895 162.948 141.745 163.003 141.581C163.058 141.418 163.079 141.246 163.065 141.074C163.051 140.903 163.001 140.736 162.92 140.584ZM158.506 141.696L154.094 143.628C152.48 140.104 152.958 140.296 150.072 141.56L147.4 135.714C150.3 134.444 150.078 134.852 148.5 131.408L152.84 129.542C154.486 133.142 154.052 133.032 157.022 131.732L159.6 137.38C156.694 138.658 156.91 138.21 158.506 141.696ZM147.122 132L147.962 133.836L146.464 134.494L145.646 132.634L147.122 132ZM153.722 148.124C151.402 143.674 152.164 144.078 148.658 145.442L144.948 137.2L146.174 136.64C149.674 144.278 148.726 143.782 151.886 142.396C152.944 144.702 153.176 145.662 154.2 145.214C159.812 142.762 159 142.984 159.164 143.338C159.574 144.206 159.926 145.06 160.128 145.566L153.722 148.124ZM160.076 141.524L159.036 139.254L160.362 138.672L161.456 140.976L160.076 141.524Z" fill="black"/>
<path d="M168.238 299.9C168.238 299.9 147.45 271.688 147.21 271.4C145.926 269.922 144.298 269.896 142.21 271.426C142.21 271.426 136.01 275.932 135.874 276.044C130.896 269.16 129.546 265.172 125.22 268.998C124.79 269.378 127.074 267.586 97.262 289.092C96.6383 289.542 96.2181 290.221 96.0929 290.98C95.9678 291.739 96.1479 292.517 96.594 293.144L102.13 301.086C96.478 305.304 95.446 305.652 95.182 307.304C94.916 308.99 94.242 307.686 114.338 335.606C114.785 336.227 115.458 336.646 116.212 336.775C116.966 336.903 117.74 336.728 118.366 336.29L127.212 330.318C135.054 339.796 134.938 340.21 136.776 340.21C138.048 340.21 136.078 341.868 164.922 321.516C165.537 321.084 165.958 320.429 166.096 319.69C166.233 318.951 166.075 318.188 165.656 317.564C165.558 317.402 163.284 313.672 160.44 309.822C167.864 304.746 168.588 304.656 168.916 302.666C168.994 302.183 168.974 301.689 168.858 301.214C168.741 300.739 168.531 300.292 168.238 299.9ZM150.652 301.866L156.384 309.766L136.774 324C128.462 312.548 131.522 313.1 120.146 321.36L106.124 302.042C106.336 301.252 105.194 302.276 113.81 296.014C114.038 295.848 114.232 295.639 114.379 295.399C114.526 295.158 114.625 294.891 114.669 294.612C114.713 294.334 114.702 294.049 114.636 293.775C114.57 293.501 114.45 293.242 114.284 293.014L108.812 285.474C130.248 270.088 127.846 271.406 128.37 272.128C135.934 282.568 133.666 282.46 144.676 274.302C144.706 274.346 158.658 293.4 158.658 293.4L151.128 298.864C150.899 299.029 150.705 299.238 150.557 299.479C150.409 299.72 150.31 299.987 150.266 300.266C150.222 300.545 150.233 300.83 150.299 301.105C150.366 301.379 150.485 301.638 150.652 301.866ZM100.162 291.666L106.666 287.012L111.856 294.166L105.256 298.966L100.162 291.666ZM162.058 318.916L136.926 336.148C126.294 323.3 130.038 323.868 116.926 332.726L99.258 307.952L104.384 304.126C119.412 324.83 118.454 323.966 119.706 324.168C120.866 324.352 120.472 324.388 129.202 318.05C133.928 324.562 135.534 328.172 137.932 326.426L157.52 312.208C159.52 314.942 161.258 317.648 162.058 318.918V318.916ZM158.058 306.888C157.586 307.21 158.422 308.078 153.078 300.714L160.24 295.514L165.132 302.048L158.058 306.888Z" fill="black"/>
<path d="M141.964 307.482C141.54 306.882 141.548 307.126 141.784 306.742C145.508 300.742 138.694 293.984 133.072 294.434C135.556 288.634 131.334 283.366 126.272 284.65C125.342 282.65 123.582 281.948 123.314 282.34C123.046 282.732 123.756 283.69 124.53 284.854C124.93 285.454 124.99 284.922 122.802 286.308C120.782 282.908 119.346 284.108 121.48 287.236C120.96 287.714 120.465 288.218 119.996 288.746C121.522 291.146 125.632 295.828 128.226 299.936C136.846 313.584 134.848 312.518 137.026 310.758C137.238 310.644 137.092 310.626 137.488 311.144C138.938 313.05 141.352 313.544 138.778 310.158C138.51 309.808 138.464 309.946 138.918 309.638C140.772 308.38 140.42 308.11 140.642 308.424C143.174 311.932 143.6 309.744 141.964 307.482ZM127.8 296.4C126.4 293.89 125.072 291.212 123.98 289.176C124.724 288.413 125.526 287.709 126.38 287.072C130.216 284.428 133.864 289.102 131.074 293.106C130.144 294.354 129.042 295.463 127.8 296.4ZM136.25 307.6C133.851 305.068 131.641 302.364 129.638 299.508C130.777 298.242 132.23 297.301 133.85 296.778C139.378 295.85 145.784 303.626 136.246 307.588L136.25 307.6Z" fill="black"/>
<path d="M178.4 224.836C180.2 225.742 180.904 227.636 182.864 231.732C183.632 230.056 184.11 224.974 189.632 223.37C190.232 223.198 190.554 222.794 190.016 222.47C188.712 221.686 184.8 221.234 183.256 216.74C180.882 209.832 183.586 221.312 174.868 223.244C175.949 223.967 177.142 224.505 178.4 224.836Z" fill="white"/>
<path d="M75.454 208.088C76.8263 205.313 77.9519 202.422 78.818 199.45C79.7598 202.05 81.0373 204.517 82.618 206.786C84.744 209.322 90.032 210.364 90.352 211.028C90.752 211.864 86.552 212.446 84.388 215.098C84.132 215.41 81.124 220.312 80.988 220.682C80.522 221.9 80.512 223.444 79.44 224.186C78.572 222.386 78.408 220.316 77.49 218.548C75.628 214.968 71.778 214.148 69.89 213.252C67.02 211.894 72.8 212.034 75.454 208.088Z" fill="white"/>
<path d="M86.888 208.924C85.255 208.24 83.8105 207.173 82.6768 205.814C81.543 204.454 80.7531 202.841 80.374 201.112C78.336 194.238 79.174 193.764 77.42 201.38C74.924 212.518 66.364 211.286 66.506 212.61C66.62 213.664 75.18 212.912 78.074 222.292C78.956 225.092 79.26 227.53 79.674 227.514C80.088 227.498 80.354 225.114 81.264 222.314C85.902 207.866 99.018 214.016 86.888 208.924ZM79.664 222.924C79.2302 220.842 78.3267 218.887 77.0224 217.208C75.7181 215.529 74.0475 214.169 72.138 213.234C69.036 211.784 69.264 213.274 72.288 211.446C74.0753 210.267 75.5905 208.721 76.7321 206.91C77.8738 205.099 78.6156 203.065 78.908 200.944C79.4232 203.556 80.7327 205.944 82.6573 207.783C84.5819 209.622 87.0276 210.822 89.66 211.218C84.666 212.322 80.838 217.988 79.664 222.928V222.924Z" fill="black"/>
<path d="M146.568 156.162C143.342 159.328 140.624 158 142.488 159.424C143.722 160.383 144.716 161.616 145.393 163.025C146.069 164.434 146.409 165.981 146.386 167.544C151.256 160.388 153.602 161.826 154.294 161.144C154.946 160.502 152.934 159.484 152.596 159.252C149.608 157.204 150.386 153.612 149.654 152.178C148.47 153.286 147.764 154.986 146.568 156.162Z" fill="white"/>
<path d="M153.322 158.964C148.15 155.108 152.228 144.672 148.144 153.036C147.708 154.074 147.064 155.012 146.251 155.791C145.439 156.571 144.475 157.175 143.42 157.568C141.7 158.158 140.08 158.102 140.02 158.536C139.742 159.548 145.078 160.098 145.526 166.21C145.89 170.796 145.682 170.624 147.99 166.792C152.49 159.252 159.928 163.732 153.322 158.964ZM146.922 165.87C146.833 164.64 146.491 163.442 145.918 162.351C145.345 161.259 144.553 160.298 143.592 159.526C142.792 158.896 142.758 159.264 143.858 158.906C146.193 158.071 148.106 156.35 149.182 154.116C149.275 155.523 149.735 156.88 150.517 158.053C151.299 159.226 152.375 160.173 153.638 160.8C152.222 161.122 150.891 161.74 149.731 162.614C148.572 163.488 147.611 164.597 146.912 165.87H146.922Z" fill="black"/>
<path d="M120.246 272.638C126.33 272.878 126.938 273.9 130.52 277.986C130.92 271.072 132.12 269.586 134.942 266.804C134.18 265.82 131.028 267.086 128.24 265.27C126.604 264.204 125.24 261.846 124.652 261.46C123.552 260.746 124.404 263.73 124.362 264.532C123.996 267.637 122.537 270.51 120.246 272.638Z" fill="white"/>
<path d="M188.04 220.782C181.24 217.804 183.366 205.394 181.02 215.572C179.274 223.348 173.344 222.372 173.476 223.59C173.428 224.684 179.43 223.888 181.488 230.538C183.072 235.552 182.624 235.274 184.16 230.552C187.244 220.948 196.514 224.344 188.04 220.782ZM182.826 230.114C182.442 228.757 181.775 227.497 180.869 226.417C179.962 225.336 178.837 224.46 177.568 223.846C176.246 223.232 176.32 223.786 177.694 222.958C178.877 222.194 179.895 221.201 180.689 220.037C181.483 218.874 182.037 217.564 182.318 216.184C182.759 217.781 183.63 219.227 184.836 220.363C186.042 221.499 187.537 222.282 189.158 222.626C186.102 223.6 183.85 226.958 182.826 230.114Z" fill="black"/>
<path d="M131.988 265.56C124.342 264.96 122.29 252.192 123.446 262.858C124.38 271.006 118.276 272.026 118.822 273.176C119.138 274.242 124.694 271.43 128.944 277.198C134.944 285.244 128.656 275.74 133.488 269.15C135.754 266.022 138.382 265.964 131.988 265.56ZM130.104 276.406C129.279 275.206 128.207 274.198 126.959 273.448C125.711 272.699 124.316 272.226 122.87 272.062C121.316 271.904 121.584 272.446 122.68 271.128C123.574 269.981 124.228 268.667 124.604 267.262C124.98 265.858 125.07 264.392 124.868 262.952C125.836 264.373 127.179 265.497 128.748 266.2C130.317 266.902 132.05 267.155 133.754 266.93C131.114 268.864 129.97 273 130.104 276.4V276.406Z" fill="black"/>
<path d="M134.162 123.4C137.332 126.288 140.272 125.644 140.444 126.15C140.604 126.618 139.228 128.198 138.886 128.982C138.324 130.27 138.634 131.844 137.926 133.056C135.552 129.256 131.89 130.306 131.88 129.58C131.88 129.264 133.538 127.78 133.968 126.054C134.072 125.642 134.534 123.748 134.162 123.4Z" fill="white"/>
<path d="M141.634 125.946C141.62 125.174 138.472 125.576 137.004 124.546C135.204 123.292 134.24 120.73 133.572 121.004C132.43 121.38 134.71 125.278 132.21 128.186C131.38 129.15 130.422 129.818 130.588 130.208C130.708 130.608 131.834 130.52 133.058 130.684C136.8 131.06 137.428 135.084 138.548 134.902C139.624 134.612 137.894 130.986 140.206 127.95C140.94 126.976 141.774 126.326 141.634 125.946ZM137.528 131.682C136.449 130.365 134.906 129.511 133.216 129.296C134.27 127.917 134.843 126.231 134.848 124.496C135.409 125.183 136.117 125.734 136.921 126.108C137.725 126.482 138.603 126.67 139.49 126.656C138.257 128.043 137.561 129.826 137.528 131.682Z" fill="black"/>
<path d="M285.146 200.904C289.092 204.504 294.308 206.318 299.366 208.036C308.264 211.06 318.94 207.036 324.746 199.636C332.658 189.56 332.946 177.652 330.69 174.716C328.556 179.078 323.35 184.316 318.654 183.204C317.51 182.928 316.508 182.24 315.839 181.272C315.17 180.304 314.882 179.123 315.028 177.956C315.86 173.338 322.652 165.87 321.988 162.79C321.7 161.454 322.83 159.578 322.588 157.222C322.446 155.874 321.974 155.054 319.488 149.662C319.298 149.123 319.004 148.627 318.623 148.202C318.241 147.777 317.779 147.432 317.264 147.186C315.766 146.152 314.436 144.522 312.616 144.54C317.856 163.94 295.286 152.728 293.856 163.85C293.244 168.61 298.35 170.544 296.582 178.13C296.242 179.584 295.886 180.074 294.3 180.346C292.722 180.766 291.065 180.795 289.473 180.431C287.881 180.066 286.402 179.319 285.164 178.254C283.462 176.51 280.4 169.742 280.964 165.804C281.564 161.588 275.134 172.272 276.764 186.934C275.766 186.6 279.894 196.11 285.146 200.904Z" fill="#FDFE1F"/>
<path d="M167.094 25.348C164.22 25.508 164.544 45.348 179.66 48.236C184.708 49.196 189.18 49.436 194.918 45.412C199.424 42.258 200.344 39.132 201.092 33.648C201.652 31.4821 201.359 29.1837 200.272 27.228C197.784 33.144 190.778 32.45 190.072 28.052C190.07 26.2974 190.458 24.5643 191.208 22.978C191.847 20.6045 191.68 18.0858 190.733 15.8176C189.785 13.5493 188.112 11.6599 185.974 10.446C185.736 11.928 186.526 13.514 185.962 14.906C185.098 17.046 182.43 16.798 178.404 19.506C174.95 21.836 175.156 23.822 176.792 27.394C177.792 29.576 178.32 32.368 176.714 33.206C175.522 33.3653 174.309 33.2316 173.18 32.8166C172.052 32.4015 171.041 31.7176 170.236 30.824C168.953 29.1442 167.897 27.3031 167.094 25.348Z" fill="#FDFE1F"/>
<path d="M100.6 68.544C100.18 67.848 99.86 67.262 98.892 67.144C99.4847 69.6813 99.709 72.2908 99.558 74.892C99.5812 75.8354 99.4053 76.7731 99.0417 77.6439C98.6782 78.5148 98.1351 79.2992 97.448 79.946C97.0913 80.5405 96.5537 81.0053 95.9138 81.2723C95.274 81.5393 94.5655 81.5946 93.892 81.43C86.79 80.562 89.054 73.216 86.598 68.946C84.634 65.528 84.398 63.984 80.756 62.234C76.296 60.096 70.128 59.68 72.66 61.518C73.9606 62.3663 74.9799 63.5819 75.5885 65.0105C76.197 66.4392 76.3674 68.0164 76.078 69.542C75.022 73.29 70.608 75.12 69.596 77.716C69.3083 78.7845 69.3559 79.9156 69.7322 80.9562C70.1085 81.9968 70.7954 82.8966 71.7 83.534C75.808 86.844 81.686 85.884 80.044 92.112C79.9754 92.6174 79.7596 93.0915 79.4235 93.4752C79.0875 93.859 78.646 94.1353 78.154 94.27C72.824 96.426 71.26 94.482 69.236 93.606C68.424 93.254 67.548 93.058 66.758 92.662C64.924 91.74 63.746 89.844 61.946 88.862C61.9535 89.8667 62.0357 90.8695 62.192 91.862C65.042 99.932 68.012 102.896 73.36 105.754C83.27 111.048 88.076 109.858 94.52 106.788C101.706 103.362 104.15 98.47 106.32 92.398C107.977 87.3211 107.721 81.8133 105.6 76.912C104.372 73.8829 102.686 71.0606 100.6 68.544Z" fill="#FDFE1F"/>
<path d="M331.352 174.434C330.552 172.472 330.62 173.574 329.436 175.562C325.456 182.342 314.45 184.484 316.788 177.062C317.942 173.462 321.242 170.04 323.006 166.002C324.144 163.238 324.53 160.222 324.125 157.261C323.721 154.299 322.54 151.497 320.702 149.14C317.568 145.14 312.634 143.354 312.402 144.118C311.75 144.396 314.494 149.77 310.402 153.748C304.472 159.766 297.552 152.394 293.002 161.218C289.626 167.702 295.84 171.972 295.602 176.47C295.412 180.296 288.71 181.398 284.11 173.94C280.884 168.558 281.796 163.754 281.014 163.688C280.592 163.418 275.402 169.942 274.916 179.254C273.544 204.754 302.86 218.678 320.852 205.272C331.29 197.506 334.972 183.362 331.352 174.434ZM329.086 189.276C320.94 211.774 293.34 211.656 282.486 195.354C279.762 191.374 278.067 186.782 277.55 181.987C277.034 177.192 277.714 172.344 279.528 167.876C280.666 164.914 280.328 165.722 280.264 166.718C279.68 178.804 290.79 186.038 296.864 181.066C297.503 180.524 298.026 179.857 298.399 179.107C298.773 178.357 298.99 177.539 299.038 176.702C299.458 170.39 291.734 165.032 297.87 160.63C300.398 158.804 303.58 160.122 307.022 158.95C313.066 157.02 316.442 150.386 313.168 144.92C319.152 149.242 321.238 154.52 321.062 159.436C320.85 167.358 312.108 172.714 313.182 179.85C314.342 188.546 328.652 184.614 330.782 175.706C331.272 180.3 330.692 184.944 329.086 189.276Z" fill="black"/>
<path d="M200.22 25.552C199.648 25.49 197.656 32.332 193.276 30.268C189.112 28.424 196.366 21.406 192.65 14.902C190.686 11.446 185.85 9.46199 185.61 9.99999C185.01 9.95399 185.564 12.758 185.242 13.686C184.718 15.25 182.664 15.784 181.082 16.252C174.868 18.136 172.142 22.778 175.67 27.89C176.612 29.256 177.126 30.204 176.916 30.75C176.558 32.51 172.736 32.786 170.144 29.238C167.956 26.194 168.358 23.46 167.872 23.438C167.732 23.312 166.824 23.93 165.95 25.638C163.656 30.128 164.204 38.16 169.47 44.34C180.118 56.794 199.73 50.696 201.978 35.986C202.952 29.95 200.75 25.322 200.22 25.552ZM167 33.158C166.51 30.8527 166.537 28.4674 167.08 26.174C167.087 28.3825 167.918 30.5089 169.411 32.1366C170.904 33.7643 172.95 34.7762 175.15 34.974C175.952 35.0135 176.751 34.8463 177.469 34.4884C178.188 34.1305 178.803 33.594 179.255 32.9302C179.706 32.2664 179.98 31.4977 180.049 30.6978C180.118 29.8978 179.981 29.0935 179.65 28.362C178.572 25.874 175.14 23.484 178.958 20.414C181.67 18.214 188.86 17.598 186.528 11.614C186.208 10.916 186.242 11.036 186.45 11.276C187.678 12.676 188.172 12.992 189.05 14.076C193.65 19.736 187.564 24.296 188.992 29.542C190.274 34.73 198.738 34.926 200.364 28.33C202.25 51.752 171.142 54.904 167 33.158Z" fill="black"/>
<path d="M98.072 66.04C97.648 66.196 99.012 69.062 98.712 73.744C98.112 81.172 92.394 83.618 90.238 75.788C88.638 70.036 87.666 63.13 78.752 60.36C74.462 59.04 70.44 60.258 70.592 60.786C70.5 61.206 75.482 62.486 75.22 67.494C75.05 71.156 72.28 72.274 69.836 75.058C66.558 78.816 67.236 84.286 73.928 86.842C75.8101 87.2985 77.5363 88.2492 78.928 89.596C80.598 91.584 78.848 94.45 74.158 94.066C66.254 93.414 62.34 87.992 61.916 88.418C61.572 88.408 60.916 94.642 66.188 101.304C82.684 121.94 116.926 104.432 106.414 76.8C103.708 69.936 98.464 65.526 98.072 66.04ZM105.426 91.258C102.928 102.344 90.188 110.01 79.414 107.17C75.1802 106.098 71.3308 103.862 68.3008 100.717C65.2709 97.5713 63.1812 93.641 62.268 89.37C66.768 96.692 80.74 99.498 82.122 91.858C82.846 87.898 78.722 85.628 74.902 84.258C70.152 82.544 69.678 79.19 71.792 76.658C73.706 74.242 77.422 72.128 77.166 67.474C77.1313 66.0572 76.6773 64.6825 75.8613 63.5238C75.0454 62.365 73.9042 61.4742 72.582 60.964C74.4772 61.0283 76.3447 61.4391 78.092 62.176C85.614 65.376 86.092 71.014 87.594 76.534C91.538 90.106 105.394 80.964 99.356 67.85C99.146 67.4 108.446 78.124 105.426 91.258Z" fill="black"/>
<path d="M250.61 271.4C251.41 289.368 269.716 298.27 284.044 305.414C286.344 306.56 287 307.284 286.734 311.282C285.816 325.058 295.99 340.208 299.96 342.782C306.608 347.092 320.394 336.896 323.712 329.042C327.55 319.952 324.756 307.606 321.866 298.212C320.764 294.626 317.224 283.484 315.014 280.478C311.9 276.248 297.59 269.114 292.654 267.236C286.418 264.862 279.514 263.514 274.53 259.078C269.13 254.278 265.188 250.056 258.254 255.044C255.755 256.952 253.755 259.435 252.424 262.283C251.093 265.131 250.47 268.259 250.61 271.4Z" fill="white"/>
<path d="M321.118 289.14C315.718 268.672 293.736 267.76 279.83 259.436C274.954 256.614 272.476 252.764 267.954 251.144C261.084 248.484 248.618 256.686 248.968 270.766C249.604 287.67 268.126 304.276 284.568 307.966C283.72 328.484 297.432 343.494 298.852 342.266C299.822 341.466 293.332 333.082 290.192 320.798C286.854 308.568 288.28 298.052 287.04 297.852C286.582 297.766 285.702 299.67 285.1 303.052C264.058 297.968 244.016 271.352 259.1 258.35C267.3 251.514 268.684 258.802 277.324 263.634C292.238 272.45 311.892 272.15 317.788 290.106C327.4 322.958 328.428 320.75 321.118 289.14Z" fill="black"/>
<path d="M256.144 251.816C258.168 254.376 265.156 253.204 268.928 250.404C272.4 256.636 280.756 256.038 281.092 254.764C281.292 254.01 279.178 252.822 277.72 251.204C274.186 247.282 274.476 240.604 272.75 238.262C270.918 239.768 269.966 242.124 268.188 243.69C265.717 245.74 262.578 246.808 259.37 246.69C257.138 246.406 248.39 241.784 247.592 241.504C248.42 248.848 252.338 249.424 249.852 254.766C247.716 259.366 242.43 263.966 242.108 264.524C249.408 264.096 254.954 263.388 255.766 255.324C256.009 254.17 256.136 252.995 256.144 251.816Z" fill="#FDFE1F"/>
<path d="M272.432 240.056C273.822 244.084 272.65 247.078 276.192 250.836C277.344 251.927 278.417 253.098 279.404 254.34C278.354 254.595 277.264 254.632 276.199 254.451C275.134 254.27 274.117 253.873 273.211 253.286C272.304 252.698 271.527 251.932 270.927 251.034C270.327 250.135 269.916 249.124 269.72 248.062C267.944 250.257 265.4 251.694 262.603 252.081C259.806 252.467 256.967 251.775 254.662 250.144C256.322 256.37 252.446 264.25 244.426 263.5C248.494 259.072 251.372 257.09 251.178 250.984C251.072 247.602 249.25 245.642 248.516 242.772C254.868 245.172 261.27 252.504 270.17 243.282C270.625 242.025 271.405 240.912 272.432 240.056ZM273.452 236.556C271.052 238.47 269.556 239.356 268.378 242.102C260.884 249.526 257.432 243.88 245.474 239.374C247.78 248.394 249.074 248.392 249.074 251.05C249.45 256.302 246.36 258.286 240 265.206L244.234 265.606C252.11 266.338 256.904 260.166 257.126 253.638C259.963 254.568 263.034 254.487 265.818 253.41C270.574 251.578 267.566 250.76 270.258 253.566C274.828 258.328 279.946 256.384 282.844 255.566C277.334 247.766 276.29 249.59 275.458 244.43C275.176 241.722 274.5 239.069 273.452 236.556Z" fill="black"/>
</svg>
