<svg width="400" height="400" viewBox="0 0 400 400" fill="none" xmlns="http://www.w3.org/2000/svg">
<path d="M37.044 376.272C36.3274 376.161 35.6621 375.834 35.1377 375.333C34.6134 374.832 34.2554 374.183 34.112 373.472C33.344 369.326 41.676 351.294 41.676 351.294C41.676 351.294 37.218 346.62 39.554 337.838C40.512 334.238 47.724 318.928 52.716 313.732C56.064 310.246 62.116 306.856 67.116 308.042C67.316 308.088 65.888 309.394 75.894 297.57C86.894 284.57 113.858 262.45 136.606 252.086C160.478 241.21 200.724 232.286 236.406 238.616C283.966 247.066 314.854 274.544 334.69 295.644C342.626 295.534 349.46 301.796 354.69 307.762C362.942 317.162 370.478 328.246 370.998 340.744C371.368 344.345 370.446 347.96 368.398 350.944C370.768 356.651 372.788 362.497 374.448 368.45C374.602 369.045 374.634 369.665 374.543 370.272C374.452 370.88 374.239 371.463 373.918 371.987C373.596 372.51 373.173 372.964 372.672 373.32C372.171 373.676 371.604 373.928 371.004 374.06C345.438 379.726 213.068 405.57 37.044 376.272Z" fill="white"/>
<path d="M354.73 320.092C353.75 320.866 367.52 339.544 359.762 340.34C359.648 337.727 358.966 335.17 357.762 332.848C355.54 328.226 345.962 315.832 343.674 313.3C341.652 310.838 338.904 309.078 335.822 308.272C337.154 300.752 347.622 311.83 348.448 310.672C348.8 310.146 341.516 301.626 336.584 303.434C333.784 304.404 331.984 308.172 333.53 312.518C336 319.496 351.914 338.79 352.93 339.796C355.554 342.258 358.348 343.952 361.708 342.746C371.422 337.77 355.504 319.47 354.73 320.092ZM348.13 329.37C345.13 325.536 336.196 314.65 335.748 309.79C340.828 311.466 344.04 317.254 349.254 324.112C352.854 328.994 357.342 334.184 358.11 340.076C354.548 338.752 350.934 332.8 348.14 329.37H348.13Z" fill="black"/>
<path d="M308.024 353.982C306.97 334.982 276.18 324.9 275.796 327.808C275.554 328.822 286.816 331.132 296.96 341.274C306.636 351.086 304.468 359.844 299.96 361.366C300.998 355.682 297.388 350.366 292.912 346.75C286.656 341.672 278.222 339.668 270.37 337.75C259.468 335.184 242.998 332.288 236.252 341.474C231.97 323.654 266.506 328.634 266.794 327.394C267.496 325.078 233.678 319.548 231.702 337.078C231.38 339.974 231.92 342.9 233.255 345.489C234.591 348.079 236.662 350.216 239.208 351.632C245.714 355.632 253.526 354.68 260.706 355.6C279.164 357.786 285.626 365.382 296.22 366.038C304.142 366.42 308.302 361.496 308.024 353.982ZM271.904 353.438C254.806 348.774 243.722 353.296 237.624 344.48C241.778 335.426 260.398 339.032 269.546 341.208C279.206 343.526 292.838 346.69 296.782 356.348C297.532 358.055 297.73 359.953 297.35 361.778C290.144 361.906 283.784 356.676 271.904 353.438Z" fill="black"/>
<path d="M225.134 282.462C220.562 274.226 206.636 275.378 206.906 276.758C206.954 277.298 209.622 277.224 213.48 278.4C217.92 279.8 223.64 282.934 222.44 287.46C221.586 290.944 222.02 288.098 214.528 285.026C204.078 280.68 187.712 282.302 182.842 289.662C180.566 285.326 183.966 281.662 188.318 279.504C191.878 277.868 197.518 275.998 192.534 276.232C174.836 277.27 175.268 294.646 187.27 296.938C191.78 297.8 196.526 296.444 203.804 296.446C209.128 296.354 216.804 298.408 222.038 294.066C226.24 290.694 227.096 285.88 225.134 282.462ZM203.8 292.884C193.842 292.884 188.2 295.344 184.094 291.33C188.084 285.576 206.294 281.74 220.41 290.762C216.25 294.734 210.182 292.842 203.8 292.884Z" fill="black"/>
<path d="M54.6099 330.424C50.468 338.094 47.586 344.61 46.716 344.334C45.916 344.076 47.516 336.868 51.8059 328.908C56.0959 320.948 61.2859 315.674 61.9439 316.214C62.6459 316.8 58.7539 322.754 54.6099 330.424Z" fill="black"/>
<path d="M155.2 334.8C145.438 322.32 122.42 334.294 123.478 335.954C124.014 336.908 138.426 330.624 147.588 334.06C152.812 336.478 152.942 339.136 150.722 342.06C150.096 342.886 147.884 340.548 139.722 340.642C125.428 340.758 110.122 348.92 102.832 360.422C99.078 358.718 98.484 355.988 100.192 352.222C103.628 344.646 113.354 339.438 112.878 338.48C112.17 336.812 93.52 346.032 95.278 357.588C96.704 364.27 104.016 366.328 111.444 365.26C119.234 364.066 164.418 349.282 155.2 334.8ZM105.388 361.138C115.144 349.298 133.328 341.494 148.452 344.384C141 350.874 114.712 362.48 105.388 361.138Z" fill="black"/>
<path d="M274.656 307.366C271.53 304.126 272.238 300.908 274.964 300.314C278.919 300.118 282.83 301.218 286.104 303.446C289.504 305.646 296.434 310.684 285.136 305.184C278.716 302.058 274.726 303.082 275.366 303.056C275.366 303.056 275.352 303.028 275.38 303.186C275.256 306.75 294.828 316.694 292.054 310.004C290.77 307.314 291.986 308.264 292.976 309.416C295.19 311.988 292.812 318.656 278.868 310.326C277.326 309.552 275.907 308.554 274.656 307.366Z" fill="black"/>
<path d="M125.706 299.676C120.646 300.062 111.964 303.36 114.736 307.57C117.152 311.126 123.968 309.938 128.222 308.988C140.174 306.126 139.77 298.812 125.706 299.676ZM134.174 304.342C129.85 307.372 111.062 308.724 119.4 304.032C127.612 299.41 139 300.956 134.174 304.342Z" fill="black"/>
<path d="M180.886 320.932C173.128 327.95 166.932 324.332 167.984 319.986C168.384 318.314 170.81 315.728 169.626 318.786C169.416 319.154 169.296 319.567 169.276 319.991C169.257 320.415 169.338 320.837 169.514 321.223C169.69 321.609 169.955 321.948 170.287 322.211C170.62 322.474 171.01 322.655 171.426 322.738C174.084 323.364 179.9 319.398 180.266 317.528C180.508 315.63 180.522 313.906 174.95 315.714C164.94 318.96 173.75 314.034 176.95 313.134C179.866 312.534 182.276 312.912 182.704 315.868C182.868 316.797 182.786 317.753 182.467 318.641C182.149 319.53 181.603 320.319 180.886 320.932Z" fill="black"/>
<path d="M71.32 360.76C68.008 358.112 72.144 353.186 76.556 351.36C80.044 349.92 81.27 351.448 81.012 351.604C79.6896 351.697 78.4169 352.146 77.328 352.902C72.41 355.966 71.128 359.998 74.512 358.842C76.6005 357.972 78.4686 356.648 79.98 354.964C80.4519 354.559 80.7993 354.028 80.9819 353.433C81.1646 352.839 81.175 352.204 81.012 351.604C81.212 351.064 83.394 352.804 81.36 356.004C79.326 359.204 74.234 363.092 71.32 360.76Z" fill="black"/>
<path d="M335.546 362.462C335.145 363.135 334.51 363.637 333.763 363.872C333.015 364.106 332.208 364.057 331.494 363.734C326.764 361.95 324.076 355.202 325.39 353.69C325.88 353.018 325.822 353.986 326.018 354.574C326.942 356.812 328.417 358.781 330.306 360.296C333.306 362.784 334.944 361.53 332.006 357.352C331.016 355.952 328.51 353.07 326.712 353.188C326.164 353.222 325.868 353.564 325.712 353.474C325.586 353.456 325.512 352.778 326.41 352.288C329.646 350.538 337.682 358.064 335.546 362.462Z" fill="black"/>
<path d="M221.23 347.6C219.276 342.236 219.712 338.636 219.984 338.654C220.744 338.564 222.184 354.888 237.242 360.854C243.83 363.468 250.872 363.474 257.924 364.806C263.426 365.846 266.534 367.556 266.388 367.848C266.234 368.224 263.038 367.2 257.652 366.662C247.078 365.61 228.246 366.844 221.23 347.6Z" fill="black"/>
<path d="M189.232 304.496C178.012 303.244 172.074 295.976 172.806 295.41C173.474 294.81 177.866 300.76 189.512 302.074C198.378 303.074 207.912 301.29 208.044 302.274C208.148 303.072 197.298 305.4 189.232 304.496Z" fill="black"/>
<path d="M161.444 351.114C153.812 360.038 138.228 367.016 137.68 365.726C137.32 364.876 151.438 358.08 159.08 349.112C163.974 343.368 164.468 338.214 161.924 332.576C160.324 329.014 157.824 325.814 158.23 325.47C158.764 325.014 173.454 337.072 161.444 351.114Z" fill="black"/>
<path d="M278.474 317.532C272.03 314.314 268.152 309.028 268.718 308.532C269.284 308.036 273.318 312.214 279.564 315.35C285.81 318.486 291.58 319.086 291.548 319.808C291.512 320.65 284.932 320.758 278.474 317.532Z" fill="black"/>
<path d="M373.956 360C370.032 348.43 370.22 352.214 371.692 349.022C378.588 333.308 356.74 296.164 334.692 293.34C263.792 208.672 134.302 216.74 67.174 305.926C53.348 302.4 37.28 329.926 36.798 342.434C36.7611 345.701 37.7326 348.899 39.58 351.594C38.188 354.794 36.8713 358.027 35.63 361.292C33.274 367.492 32.676 372.94 33.812 373.26C35.784 373.822 40.03 361.374 43.052 354.336C51.782 358.054 63.022 343.704 61.346 342.584C60.532 342.04 49.776 353.256 44.86 350.552C34.86 345.734 48.126 321.418 54.918 314.98C58.718 311.29 65.986 307.968 68.118 311.23C71.482 314.986 67.984 329.95 68.998 330.344C70.094 330.802 73.172 323.066 73.344 316.58C122.418 251.478 206.638 230.078 277.578 262.844C291.676 269.324 295.028 272.044 295.222 271.724C295.324 271.566 288.722 267.49 288.56 267.396C219.288 226.84 127.28 243.06 73.032 312.372C72.701 310.415 71.68 308.641 70.154 307.372C136.206 225.306 257.402 213.032 330.296 293.316C328.783 293.469 327.317 293.924 325.983 294.654C324.649 295.384 323.476 296.374 322.532 297.566C314.808 307.688 330.638 327.976 331.79 327.15C332.946 326.372 320.062 307.176 325.848 300.122C328.002 297.376 331.93 297.122 335.346 297.774C339.75 298.798 343.854 300.836 347.332 303.726C357.59 311.888 367.196 326.09 368.676 341.202C369.39 348.474 365.056 352.118 359.598 351.738C353.714 351.298 348.908 346.098 344.68 342.092C337.718 335.384 329.8 328.92 342.466 344.15C347.136 349.61 352.032 355.192 359.206 355.908C362.02 356.226 364.86 355.592 367.272 354.108C368.195 356.508 369.07 358.927 369.898 361.364C375.4 377.476 377.68 370.906 373.956 360Z" fill="black"/>
<path d="M111.6 250.8C115.108 247.364 120.974 239.702 120.16 234.894C119.26 229.588 103.022 213.708 86.382 211.174C78.752 201.342 59.458 189.268 53.12 186.732C47.456 184.468 39.686 183.592 35.178 186.564C26.696 192.164 29.878 211.376 29.978 215.708C30.226 227.668 39.672 243.688 39.336 247.098C39.08 249.712 35.814 249.562 37.888 259.224C39.1902 265.591 40.8597 271.878 42.888 278.052C44.004 281.342 45.56 284.892 48.73 286.312C53.35 288.376 62.55 285.816 67.278 283.24C68.906 282.354 69.722 282.228 71.078 283.872C73.744 287.124 76.948 293.548 82.56 293.108C84.16 292.982 84.56 292.122 84.482 290.544C84.3355 287.153 83.435 283.837 81.846 280.838C83.7699 280.072 85.508 278.904 86.944 277.412C89.022 279.5 95.812 285.812 98.806 286.026C101.8 286.24 103.86 282.742 103.556 279.776C102.912 276.856 101.704 274.089 100 271.632C98.8 269.412 99.284 269.53 104.084 263.096C107.616 267.844 109.098 270.218 111.284 271.392C112.105 271.889 113.064 272.109 114.02 272.021C114.976 271.934 115.879 271.542 116.596 270.904C119.282 267.994 115.796 262.338 110.96 254.434C110.044 252.944 110.07 252.284 111.6 250.8Z" fill="#FFC5F6"/>
<path d="M52.04 232.084C51.6704 235.354 52.4162 238.653 54.1566 241.445C55.897 244.238 58.5297 246.361 61.628 247.47C63.7299 248.233 65.9988 248.416 68.1958 247.998C70.3927 247.581 72.4366 246.579 74.1122 245.098C75.7878 243.617 77.0332 241.712 77.7174 239.583C78.4016 237.454 78.4992 235.18 78 233C75.212 219.856 54.75 217.616 52.04 232.084Z" fill="#92FCFF"/>
<path d="M74.244 242.2C72.3188 244.565 69.5412 246.077 66.5105 246.412C63.4798 246.747 60.4389 245.877 58.044 243.99C52.704 240.132 52.946 234.59 52.128 234.636C51.566 234.662 51.128 241.316 56.462 245.948C58.4716 247.766 60.9612 248.968 63.6344 249.411C66.3077 249.854 69.052 249.52 71.5408 248.448C74.0295 247.376 76.1579 245.612 77.6725 243.365C79.187 241.118 80.0241 238.483 80.084 235.774C80.17 226.952 72.224 219.258 63.338 220.676C56.912 221.612 52.338 226.252 51.84 230.406C51.518 232.582 51.892 233.742 52.104 233.738C52.378 233.748 52.504 232.582 53.178 230.764C55.082 225.288 63.398 221.65 69.558 224.634C75.972 227.662 78.882 236.4 74.244 242.2Z" fill="black"/>
<path d="M68.528 256.136C85.928 254.584 93.68 234.296 81.65 220.762C78.1258 216.754 73.2283 214.212 67.9227 213.636C62.6171 213.06 57.2881 214.492 52.986 217.65C51.6661 218.446 50.5532 219.542 49.738 220.85C49.874 220.992 51 219.82 53.452 218.366C71.878 207.4 90 225.6 84.174 241.878C79.876 254.266 63.252 258.746 52.35 248.566C45.46 242.214 45.78 234.072 45.186 234.12C44.786 234.12 44.676 243.106 51.272 249.684C53.514 251.939 56.2166 253.682 59.1948 254.796C62.1731 255.909 65.3567 256.367 68.528 256.136Z" fill="black"/>
<path d="M117.088 226.842C108.868 218.368 98.5283 212.249 87.144 209.122C77.3639 198.877 65.7535 190.553 52.912 184.578C20.512 171.66 21.638 214.332 36.68 245.408C34.9685 258.206 37.0171 271.226 42.576 282.88C43.0836 284.418 43.9985 285.79 45.2233 286.849C46.448 287.909 47.937 288.617 49.532 288.898C55.69 290.22 64.162 287.534 69.824 284.272C71.024 285.77 74.854 290.34 76.168 291.642C82.198 297.622 87.592 292.214 85.402 286.042C83.002 279.242 81.086 283.362 87.77 279.442C91.248 283.252 95.334 288.698 100.156 287.19C101.372 286.772 102.438 286.004 103.221 284.983C104.004 283.962 104.468 282.733 104.556 281.45C104.9 277.964 102.998 274.25 101.042 270.628C100.104 268.884 100.566 270.928 104.12 265.228C108.142 270.116 109.966 272.498 112.846 273.106C114.066 273.315 115.32 273.035 116.335 272.327C117.351 271.619 118.046 270.539 118.272 269.322C119.058 266.074 117.03 262.3 115.072 258.922C110.452 251.002 110.258 256.768 117.85 246.356C125.554 235.334 122.134 232.054 117.088 226.842ZM31.6 214.518C34.6757 213.334 37.6378 211.873 40.45 210.154C43.318 208.338 44.85 206.872 44.636 206.554C44.318 206.058 41.77 207.634 31.218 211.664C29.884 200.12 31.364 185.886 42.966 186.45C48.47 186.676 55.03 189.996 59.766 192.806C46.676 204.676 46.214 204.954 46.422 205.282C46.63 205.61 48.958 204.602 52.312 202.308C55.7839 199.85 59.1083 197.19 62.268 194.342C88.01 210.632 102.326 233.316 104.54 245.742C101.34 248.158 93.684 254.466 90.62 257.24C83.466 253.006 77.248 259.222 77.938 265.534C74.31 267.226 66.256 271.416 62.738 273.452C49.94 263.97 35.68 241.456 31.6 214.518ZM47.476 283.074C45.352 280.006 39.814 266.446 39.452 250.71C45.756 261.91 56.934 276.452 69.548 280.78C64 283.65 50.706 287.738 47.476 283.074ZM81.746 283.554C82.556 285.452 83.828 288.096 83.052 290.002C81.224 294.492 76.596 287.99 71.562 283.202C74.438 281.34 72.408 281.906 76.66 282.362C82.16 282.914 80.6 280.848 81.746 283.554ZM76.988 279.304C72.8111 278.732 68.7978 277.302 65.2 275.104C69.9316 273.288 74.43 270.915 78.6 268.034C79.834 271.006 82.548 273.722 85.836 277.32C83.1581 278.869 80.0707 279.561 76.988 279.304ZM101.13 281.044C100.816 283.78 98.638 285.1 95.49 282.43C92.7448 279.889 90.1604 277.179 87.752 274.316C84.008 270.256 77.486 264.94 82.89 259.758C83.6606 259.023 84.6367 258.54 85.6884 258.373C86.7401 258.206 87.8177 258.364 88.778 258.824C92.974 261.176 101.616 276.74 101.13 281.044ZM92.614 258.74C97.1123 255.942 101.252 252.605 104.942 248.804C105.233 252.116 104.866 255.453 103.862 258.623C102.859 261.793 101.238 264.733 99.094 267.274C97.2579 264.197 95.0844 261.335 92.614 258.74ZM114.838 264.414C116.706 268.836 114.902 270.718 113.308 270.44C111.388 270.148 109.82 267.936 105.134 263.44C106.067 261.66 106.798 259.782 107.314 257.84C108.192 257.04 109.126 256.162 110.094 255.214C111.913 258.152 113.499 261.228 114.838 264.414ZM108.2 252.63C109.242 239.45 99.576 223.958 91.344 213.922C105.772 220.584 118.144 232.584 118.192 235.64C117.694 241.182 111.856 248.334 108.2 252.63Z" fill="black"/>
<path d="M258.834 136.082C264.688 129.37 264.66 130.546 269.672 132.66C287.956 140.37 348.822 171.55 349.022 171.66C359.758 177.84 364.548 178.444 359.89 189.442C355.09 200.786 342.17 225.946 334.556 235.354C331.01 239.354 327.888 243.711 325.24 248.354C321.144 256.116 310.24 261.566 313.566 262.988C327.266 268.834 330.38 274.688 334.034 286.962C334.224 287.6 334.162 287.868 333.5 288.25C331.124 289.626 325.5 292.438 323.176 290.956C321.252 289.726 320.704 285.38 316.91 280.106C314.701 277.245 311.766 275.029 308.409 273.687C305.053 272.346 301.398 271.929 297.826 272.48C291.226 273.952 294.328 273.936 229.826 309.412C211.912 319.264 207.426 317.248 202.476 327.258C198.546 335.202 198.422 344.346 192.702 346.444C190.384 347.294 185.154 346.886 183.102 344.774C179.6 341.174 182.934 328.494 184.386 323.676C185.998 318.33 184.774 319.832 189.902 315.204C193.878 311.616 188.812 308.914 127.916 266.074C127.018 265.597 125.995 265.409 124.986 265.538C117.718 281.454 127.738 292.502 112.898 291.058C110.042 290.782 109.262 290.192 108.298 288.058C101.31 272.488 108.358 252.996 125.898 243.658C134.698 238.974 114.632 250.316 200.724 205.646C223.484 193.85 230.102 169.024 258.834 136.082Z" fill="#92FCFF"/>
<path d="M358.366 175.274C344.262 166.06 326.412 158.966 311.078 150.234C299.246 143.29 286.156 138.078 273.708 131.464C261.296 124.864 261.224 128.346 227.17 175.864C209.15 201.09 205.15 200.114 172.97 217.086C126.228 241.4 117.23 243.982 114 250.8C102.638 263.706 101.728 283.942 106.8 291.11C108.748 293.746 111.548 294.234 114.82 293.91C127.922 292.352 120.458 286.1 125.864 267.792C140.388 277.916 122.454 263.592 188.584 313.392C181.74 318.54 179.716 328.278 178.972 336.792C178.686 341.752 178.972 346.574 185.252 348.68C190.548 350.528 196.426 348.3 198.274 344C199.86 340.31 201.304 328.4 209.696 320.812C214.356 319.57 218.853 317.785 223.096 315.492C226.4 313.832 273.146 288.162 296.236 274.348C298.725 273.898 301.279 273.956 303.746 274.517C306.212 275.079 308.539 276.133 310.588 277.616C321.152 285.356 316.588 298.912 331.456 292.616C335.178 291.042 336.926 289.416 335.856 285.236C333.028 274.664 326.316 265.436 315.762 261.76C333.294 246.624 361.132 193.926 364.176 184.298C365.724 179.32 361.348 177.34 358.366 175.274ZM118.932 283.62C118.604 288.52 119.05 288.634 114.332 289.08C112.784 289.224 111.628 289.222 110.732 288.106C107.88 284.076 107.732 268.884 114.316 257.614C116.831 260.679 119.738 263.4 122.964 265.706C120.637 271.413 119.274 277.467 118.932 283.62ZM197.46 332.076C195.114 337.662 194.472 341.076 193.988 342.034C192.712 345.014 186.468 345.434 184.362 342.434C182.822 340.646 183.19 322.112 191.484 315.508C194.836 317.97 198.642 319.742 202.684 320.722C206.532 321.49 202.312 320.4 197.46 332.076ZM325.492 274.152C328.139 278.15 330.074 282.576 331.212 287.234C329.808 287.994 328.335 288.618 326.812 289.098C321.102 290.39 324.644 281.672 313.082 273.898C301.92 266.752 297.72 274.86 312.596 264.266C317.8 266.173 322.299 269.622 325.492 274.152ZM360.27 183.13C358.368 189.628 331.108 245.358 312.47 260.076C304.47 266.516 229.882 307.258 221.128 311.586C212.232 315.976 208.228 317.262 203.624 316.308C197.024 314.94 198.834 314.828 143.792 273.956C134.966 267.572 116.896 257.412 118.288 253.276C119.958 248.476 133.918 242.916 138.454 240.64C221.822 197.24 210.524 208.528 244.054 160.04C247.37 155.266 262.748 132.852 267.278 133.666C269.538 134.066 347.01 173.312 352.224 176.356C360.448 181.312 360.742 181.562 360.27 183.13Z" fill="black"/>
<path d="M339.13 159.816C339.255 151.165 337.609 142.58 334.293 134.589C330.977 126.598 326.061 119.37 319.848 113.35C298.524 92.176 264.948 105.788 264.948 105.788L261.77 109.568C261.77 109.568 259.804 105.788 251.486 107.604C243.168 109.42 230.358 128.856 228.836 134.836C226.718 143.154 232.732 151.01 232.732 151.01C232.732 151.01 232.062 150.758 228.768 156.796C225.474 162.834 230.896 180.336 230.896 180.336C230.896 180.336 221.296 165.444 221.15 154.462C221.108 151.19 220.864 140.262 218.322 138.22C217.748 137.234 214.568 135.08 216.058 128.062C217.446 121.262 223.792 121.052 226.326 117.506C227.22 116.039 227.551 114.297 227.256 112.605C226.962 110.913 226.063 109.385 224.726 108.306C215.326 101.162 207.278 115.106 206.854 114.496C204.246 110.52 201.061 106.955 197.404 103.916C188.724 97.386 181.192 99.206 179.342 102.59C177.954 105.058 179.894 107.576 181.386 110.01C173.07 108.938 164.116 111.038 167.354 117.41C168.366 119.41 171.21 119.696 177.832 122.758C171.892 124.134 165.632 125.056 166.358 129.516C167.512 135.674 176.026 132.754 183.744 137.432C185.189 138.117 186.375 139.251 187.123 140.664C187.871 142.078 188.141 143.696 187.894 145.276C187.06 150.796 185.176 153.44 190.122 159.616C194.062 164.412 196.792 170.085 198.082 176.156C198.906 181.92 207.348 196.126 207.348 196.126L194.376 205.666L180.976 202.154C180.976 202.154 183.9 186.582 179.788 178.78C175.676 170.978 172.32 166.528 161.496 164.934C150.672 163.34 145.722 164.094 145.806 172.234C145.89 180.374 147.316 210.328 147.484 216.034C147.652 221.74 156.042 223.67 159.398 223.834C173.976 224.564 155.31 221.322 154.89 234.774C154.584 244.588 153.39 263.888 153.39 263.888C147.64 264.05 142.082 265.997 137.488 269.46C129.838 275.246 128.858 285.152 132.688 289.272C136.518 293.392 168.688 293.872 168.688 293.872C168.688 293.872 180.26 294.852 183.498 290.144C186.736 285.436 186.634 270.726 186.634 270.726C186.634 270.726 199.384 283.868 209.486 286.026C219.588 288.184 237.534 279.554 245.87 274.552C254.206 269.55 288.04 240.228 288.04 240.228C288.04 240.228 309.126 241.894 319.128 236.892C329.13 231.89 335.31 221.692 335.212 213.16C335.154 208.023 334.629 202.902 333.642 197.86C346.32 183.256 344.062 163.4 339.13 159.816Z" fill="white"/>
<path d="M251.566 120.4C247.446 123.591 243.555 127.066 239.92 130.8C236.451 134.957 234.292 140.049 233.717 145.433C233.142 150.817 234.177 156.25 236.69 161.046C237.712 162.916 238.172 165.32 239.378 167.078C246.728 177.784 255.736 187.898 268.578 189.878C278.418 191.392 290.202 188.294 296.472 180.56C298.418 178.16 299.672 175.82 301.704 173.49C309.44 164.606 311.128 150.982 299.42 134.216C295.744 129.513 291.478 125.303 286.726 121.69C276.926 113.328 260.79 112.69 258.1 113.714C254.8 114.946 254.254 118.136 251.566 120.4Z" fill="#92FCFF"/>
<path d="M195.62 265.2C207.576 282.262 223.82 275.344 224.18 276.574C225.004 277.988 205.348 285.624 192.6 267.304C180.52 249.942 191.162 232.672 192.496 233.866C193.528 234.464 184.1 248.772 195.62 265.2Z" fill="black"/>
<path d="M341.182 161.326C343.832 156.136 338.68 136.01 334.944 129.366C322.4 107.064 302.8 98.4 277.702 100.6C268.158 102.2 264.682 102.78 260.73 106.852C250.178 101.9 240.578 110.832 233.582 120.21C226.108 130.21 222.29 141.252 229.92 151.194C225.104 155.826 225.304 161.808 226.688 168.464C220.048 149.08 224.804 145.974 221.888 139.228C220.488 135.928 215.538 128.768 221.55 124.29C223.842 122.558 227.918 121.162 229.368 117.154C232.692 107.474 218.52 96.7 207.676 112.012C194.066 87.612 172.476 95.466 175.726 106.596C164.142 105.14 158.31 117.63 167.848 122.36C166.6 122.752 165.482 123.476 164.614 124.455C163.747 125.435 163.162 126.632 162.924 127.918C162.196 139.336 177.426 137.738 181.924 140.442C188.036 143.996 181.052 148.578 183.778 154.804C185.902 159.894 189.874 159.178 194.28 170.85C197.264 178.796 198.222 184.818 205.106 195.276C200.848 197.032 196.931 199.522 193.534 202.632C189.701 201.388 185.799 200.369 181.848 199.58C185.506 186.628 182.144 167.98 167.27 163.48C161.838 161.928 149.04 159.802 145.206 164.08C142.606 166.984 143.026 167.48 143.352 188.112C143.578 202.322 144.196 208.498 144.798 216.312C145.828 222.662 150.456 225.146 156.864 225.912C145.55 237.094 151.29 263.432 149.308 263.492C134.992 264.02 126.564 274.988 127.98 285.408C129.108 296.356 147.086 295.068 156.98 295.98C184.68 298.244 189.444 293.672 189.086 276.256C189.048 274.466 188.39 275.506 194.254 280.316C203.372 287.716 214.09 291.206 225.21 287.228C240.81 281.648 265.256 266.666 289.188 242.606C314.348 244.878 336.738 237.344 337.424 212.806C337.403 207.633 336.875 202.475 335.848 197.406C343.572 186.986 349.136 170.966 341.182 161.326ZM260 115.532C265.4 113.156 285.644 119.166 299.066 138.498C304.266 146.028 307.482 153.098 304.3 161.628C299.97 173.642 289.986 186.428 277.328 188.21C262.46 190.61 240.462 175.478 235.576 151.04C236.576 147.754 235.738 138.652 248.196 126.314C254 120.626 256.688 119.468 260 115.532ZM230.288 138.4C231.434 129.452 246.004 106.91 258.206 109.8C250.554 119.446 234.45 126.988 231.516 146.904C230.32 144.24 229.894 141.294 230.288 138.4ZM168.4 113.978C169.558 111.992 173.4 110.82 175.71 111.146C180.978 112.052 179.322 112.472 183.218 114.642C187.24 116.842 190.65 118.842 193.476 120.728C185.968 126.97 191.726 127.168 184.94 124.43C182.89 123.65 184.776 124.176 172.47 118.962C171.076 118.572 169.792 117.863 168.718 116.892C168.128 115.788 167.83 115 168.4 113.978ZM189.766 155.448C185.856 151.13 189.288 149.462 189.378 144.398C196.82 145.862 202.99 143.046 202.746 142.316C202.472 141.44 196.45 143.348 188.946 141.386C186.848 134.87 177.052 133.286 170.774 132.232C164.862 129.57 167.786 125.35 175.774 125.414C186.734 129.558 187.338 128.748 187.012 129.656C186.322 131.584 186.262 132.878 186.612 133.008C187.388 133.282 189.442 128.99 193.3 124.808C197.1 120.57 201.174 118.12 200.826 117.372C200.666 117.032 199.382 117.212 197.528 118.084C194.99 119.266 198.846 119.084 185.56 110.804C174.96 103.844 182.536 98.936 190.584 101.71C196.894 103.876 201.866 109.856 205.676 115.31C202.83 120.946 202.676 125.458 203.276 125.444C203.778 125.482 204.338 120.88 208.516 115.114C216.018 104.894 223.164 106.914 225.372 111.42C228.75 118.138 219.726 118.62 216.282 123.928C215.315 125.359 214.682 126.989 214.43 128.697C214.178 130.406 214.313 132.149 214.826 133.798C214.305 134.994 213.495 136.042 212.47 136.848C209.208 139.312 202.962 141.352 203.222 142.154C203.452 142.88 212.886 141.084 216.094 137.056C217.864 140.798 218.87 140.236 218.666 146.642C213 154.26 198.028 158.502 189.766 155.448ZM205.09 158.746C210.273 157.545 214.99 154.852 218.66 151C218.794 155.406 219.556 159.771 220.922 163.962C213.879 167.331 206.465 169.861 198.832 171.5C192.876 152.236 188.416 163.162 205.09 158.746ZM199.29 173C207.104 172.062 214.644 169.534 221.444 165.572C222.004 167.25 222.712 169.172 223.426 170.902C216.253 174.351 208.7 176.946 200.922 178.634C200.386 176.85 199.868 174.964 199.284 173H199.29ZM183.816 283.276C182.616 294.702 166.516 291.12 146.616 290.654C142.074 290.498 133.56 289.822 132.352 285.436C155.13 287.942 176.382 287.246 176.374 286.332C176.366 285.418 158.132 285.436 132.118 282.452C132.198 280.628 132.566 278.829 133.208 277.12C137.23 267.468 150.158 264.138 159.508 267.54C164.814 269.472 166.852 272.328 167.216 271.96C167.616 271.624 163.548 265.656 154.838 263.944C154.888 255.052 153.708 238.404 159.028 231.24C161.778 227.538 166.74 225.364 171.014 227.15C183.224 232.258 184.73 275.104 183.81 283.276H183.816ZM268.35 239.038C268.286 239.996 283.516 241.992 284.566 242.118C267.952 256.43 243.914 274.918 223.548 282.496C210.548 287.34 198.398 280.122 188.886 270.034C186.086 204.104 162.646 226.89 151.686 219.126C151.137 218.762 150.679 218.278 150.347 217.709C150.015 217.14 149.818 216.503 149.772 215.846C149.172 208.08 148.572 202.202 148.348 188.012C148.03 167.882 147.886 168.136 149.064 167.352C150.324 166.776 151.694 166.481 153.08 166.486C154.27 182.382 153.704 213.636 155.07 213.604C155.854 213.586 157.21 182.862 156.032 166.53C159.37 166.765 162.683 167.272 165.938 168.044C180.29 172.088 182.466 193.718 176.39 207.044C174.736 210.512 173.462 212.308 173.76 212.562C174.23 212.962 177.832 209.162 180.03 204.492C193.926 207.148 208.83 212.824 218.194 223.658C226.436 233.078 239.594 263.458 242.012 262.044C242.634 261.688 240.744 256.952 237.638 249.294C236.974 247.656 236.686 248.57 243.294 252.494C252.038 257.62 252.26 256.36 244.782 250.36C232.982 240.52 234.582 241.682 231.748 235.892C224.676 221.522 217.482 211.988 198.876 204.556C201.943 202.878 204.757 200.775 207.234 198.308C208.696 200.282 213.38 205.862 213.964 205.334C214.68 204.71 207.606 197.23 202.058 182.19C200.734 178.444 200.634 181.686 212.69 177.59C229.526 171.89 220.022 168.066 229.962 183.316C235.238 191.35 245.746 203.944 257.628 209.716C263.368 212.458 266.888 212.956 266.948 212.716C267.348 211.516 252.09 208.146 240.09 190.362C235.632 183.784 232.224 174.962 233.262 176.672C237.995 185.048 245.064 191.866 253.606 196.292C266.066 202.692 282.96 204.104 294.624 197.264C298.817 194.679 302.505 191.355 305.51 187.452C304.034 193.572 303.862 200.282 307.726 205.188C299.848 209.566 291.169 212.313 282.206 213.264C274.152 213.99 269.13 212.626 268.954 213.32C268.634 214.024 281.208 219.798 300.608 212.94C300.47 214.437 300.031 215.891 299.316 217.214C297.786 220.112 271.414 219.814 271.368 221.25C271.316 222.982 290.556 223.2 295.418 222.45C297.171 226.048 299.766 229.17 302.984 231.55C306.203 233.93 309.948 235.497 313.902 236.118C296.23 242.146 268.512 236.422 268.344 239.038H268.35ZM317.228 234.8C313.123 234.348 309.172 232.974 305.673 230.781C302.173 228.588 299.213 225.633 297.016 222.136C298.608 221.851 300.105 221.178 301.374 220.176C307.968 226.298 316.711 229.573 325.704 229.29C323.196 231.577 320.331 233.439 317.222 234.8H317.228ZM327.228 227.72C318.212 227.599 309.484 224.522 302.386 218.962C303.016 217.866 303.444 216.667 303.652 215.42C304.746 209.522 301.794 213.402 311.188 208.148C318.006 211.892 326.306 207.976 332.064 201.928C333.156 211.31 333.364 220.728 327.218 227.72H327.228ZM341.5 173.492C340.46 185.092 328.058 205.054 316.518 204.57C302.776 203.996 309.94 172.588 328.224 159.97C330.848 158.28 332.716 158.214 332.702 157.802C332.842 157.192 327.434 155.782 318.252 164.73C322.744 149.976 316.806 140.426 316.416 140.608C314.89 141.184 326.676 155.16 305.456 182.69C297.042 193.552 289.196 198.83 274.826 198.27C245.544 197.288 228.966 168.808 230.926 157.762C231.394 156.455 232.206 155.297 233.276 154.412C239.94 184.662 277.364 210.658 301.58 176.074C312.674 159.814 312.086 149.978 302.366 136.174C290.84 119.988 273.204 111.628 262.938 111.876C263.997 110.481 265.295 109.286 266.772 108.344C270.675 107.664 274.69 108.091 278.362 109.576C302.068 118.004 315.682 140.288 316.162 140.06C318.196 139.42 303.816 114.872 279.532 106.212C277.418 105.476 277.46 105.694 278.346 105.544C306.314 103.106 325.348 116 333.4 138.356C335.014 143.184 337.294 154.368 336.924 158.128C336.924 158.272 334.838 157.56 334.734 158.036C334.524 158.71 342.686 161.076 341.49 173.492H341.5Z" fill="black"/>
<path d="M141.424 123.57C138.806 136.344 138.81 136.118 138.852 136.32C139.252 138.32 145.382 130.684 152.328 129.92C149.388 133.591 147.108 137.744 145.588 142.194L154.988 140.366C157.658 139.846 160.122 140.626 159.266 141.624C154.753 145.029 150.476 148.737 146.466 152.722C129.834 169.01 130.466 171.902 127.818 175.584C126.466 177.146 125.202 178.783 124.032 180.486C122.32 183.536 121.818 188.324 117.846 186.79C114.19 185.378 106.884 184.228 106.622 179.268C106.236 172.032 117.872 142.4 141.424 123.57Z" fill="#92FCFF"/>
<path d="M97.844 180.494C95.466 175.28 106.972 179.4 108 179.41C111.2 179.428 112.01 175.56 117.306 173.142C120.144 171.846 119.662 182.448 120.72 183.968C121.088 184.416 121.548 184.779 122.07 185.032C124.383 186.377 126.584 187.905 128.654 189.6C129.916 190.634 129.534 191.502 128.118 192.25C122.362 195.288 120.03 195.588 119.552 196.132C119.288 196.434 119.416 196.2 116.768 206.314C116.074 208.968 111.3 202.806 109.33 200.57C108.984 200.029 108.474 199.614 107.875 199.385C107.275 199.155 106.618 199.124 106 199.296C104.696 199.422 97.174 200.162 96.342 199.148C94.902 197.396 101.362 190.592 101.466 188.72C101.574 186.922 97.844 182.2 97.844 180.494Z" fill="#FDFE1F"/>
<path d="M159.972 140.918C160.358 139.816 151.846 138.176 146.078 141.546C146.218 141.346 154.37 128.786 153.834 128.346C153.394 127.326 143.52 131.91 139.308 136.458C139.594 135.616 142.908 123.258 141.928 122.95C141.652 122.584 119.928 135.562 107.968 168.468C106.827 171.396 106.022 174.444 105.568 177.554C100.906 176.504 98.226 175.212 96.568 177.804C95.252 179.86 96.302 180.924 100.03 189.004C95.504 196.626 94.246 197.72 95.508 199.944C96.978 202.526 99.184 201.578 107.562 200.588L113.362 207.188C113.777 207.658 114.316 208.003 114.917 208.184C115.518 208.365 116.157 208.374 116.763 208.211C117.369 208.048 117.918 207.72 118.347 207.262C118.776 206.804 119.069 206.235 119.192 205.62L120.904 197L128.978 193.524C129.555 193.275 130.05 192.871 130.409 192.355C130.767 191.84 130.975 191.234 131.007 190.607C131.04 189.98 130.896 189.356 130.593 188.806C130.289 188.257 129.838 187.803 129.29 187.496L123.4 184.2C140.156 154.86 160.956 142.08 159.972 140.918ZM127.86 190.906C117.922 195.184 118.432 194.862 118.358 195.242C116.304 205.704 116.5 205.482 115.898 205.482C115.2 205.482 109.182 197.514 108.454 197.61C99.734 198.75 98.654 198.794 98.442 198.794C97.15 198.794 98.268 197.568 103.116 189.394C103.316 189.058 103.476 189.644 98.946 179.82C98.9049 179.733 98.8892 179.636 98.9007 179.54C98.9121 179.444 98.9503 179.354 99.0108 179.279C99.0712 179.203 99.1516 179.147 99.2428 179.115C99.3339 179.084 99.432 179.078 99.526 179.1C107.018 180.766 109.208 181.316 109.412 181.316C109.706 181.316 109.196 181.698 117.116 174.376C117.187 174.311 117.274 174.266 117.369 174.248C117.464 174.23 117.561 174.239 117.651 174.273C117.741 174.308 117.82 174.367 117.878 174.444C117.936 174.521 117.971 174.612 117.98 174.708C118.998 185.508 118.83 184.896 119.168 185.084C126.72 189.316 129.28 190.296 127.86 190.906ZM121.566 182.532L120.818 174.45C120.742 173.614 120.356 172.837 119.735 172.272C119.114 171.707 118.303 171.396 117.464 171.4C115.626 171.4 115.332 172.156 108.728 178.264L107.896 178.076C108.408 175.088 109.248 172.166 110.4 169.362C118.68 147.676 127 138.226 140.874 124.274C138.218 129.53 137.674 137.526 138.648 137.58C138.994 138.026 142.382 135.952 146.53 133.424C153.372 129.212 151.03 129.92 148.1 134.534C145.558 138.5 144.62 142.286 145.14 142.458C145.354 143 148.588 142.102 152.58 141.626C155.44 141.244 157.93 141.326 159.164 141.202C150.23 145.902 132.412 162.174 121.566 182.532Z" fill="black"/>
<path d="M339.26 42.568C336.426 37.568 333.26 36.84 328.204 35.034C320.134 32.148 313.676 30.014 306.514 31.702C284.21 36.958 272.846 69.952 284.33 83.874C288.686 89.158 306.058 94.692 312.19 94.692C332.902 94.692 349.536 61.096 339.26 42.568Z" fill="#FDFE1F"/>
<path d="M340.308 41.9819C337.164 36.1819 332.482 35.4 328.61 33.8939C322.81 31.822 315.512 29.2779 309.36 29.9619C281.84 33.9199 271.488 71.8159 283.8 85.0519C287.874 90.2139 308.276 97.1179 314.566 95.6519C336.098 92.7479 350.23 60.1659 340.308 41.9819ZM328.76 47.7999C330.36 48.0919 332.588 48.3399 334.36 48.7999C336.304 49.2979 338.61 50.2719 340.18 50.7599C340.83 54.9142 340.735 59.1512 339.898 63.2719C331.332 62.5439 333.31 62.0319 327.866 60.2279C328.846 56.1627 329.148 51.9636 328.76 47.7999ZM339.742 48.4999C332.454 47.8399 333.85 47.3899 328.368 45.3599C327.675 41.4767 325.731 37.9268 322.832 35.2519C321.778 34.4039 319.632 33.5379 327.67 36.4859C332.328 38.3059 337.438 38.8799 339.742 48.4959V48.4999ZM281.212 73.8199C280.328 67.3825 281.091 60.826 283.431 54.7641C285.771 48.7022 289.611 43.3333 294.592 39.1599C312.592 24.1599 335.624 34.724 324.28 66.1779C311.526 99.8399 283.89 91.5259 281.212 73.8159V73.8199ZM299.902 90.5299C303.979 90.4444 307.963 89.2966 311.46 87.1999C314.46 88.4159 315.572 87.2919 321.594 90.3759C314.096 94.3359 308.774 93.3999 299.902 90.5259V90.5299ZM323.852 89.0339C318.916 87.7199 320.096 88.9639 313.51 85.6019C316.336 83.1162 318.798 80.2455 320.824 77.0739C324.882 78.0739 323.538 76.4239 332.858 79.9039C330.469 83.4952 327.411 86.5935 323.852 89.0299V89.0339ZM334.104 77.9719C332.504 77.7259 329.928 77.5719 327.938 77.0939C325.948 76.6159 323.59 75.5419 322.058 75.0219C324.325 71.0751 326.086 66.8586 327.3 62.4719C332.35 63.6719 328.734 61.8219 339.442 65.3039C338.285 69.7613 336.487 74.0271 334.104 77.9679V77.9719Z" fill="black"/>
<path d="M295.214 85.484C305.034 88.956 315.288 75.506 319.256 66.848C325.164 53.77 324.494 35.878 310.308 35.448C297.014 35.016 288.228 53.614 288.93 53.924C289.362 54.124 292.348 45.596 301.348 39.44C303.346 38.0351 305.677 37.1775 308.109 36.9523C310.541 36.727 312.99 37.142 315.212 38.156C333.17 47.414 307.09 97.264 291.376 81.328C280.716 71.024 291.198 48.856 288.148 55.352C283.248 65.762 284.354 81.75 295.214 85.484Z" fill="black"/>
<path d="M297.866 61.746L294.266 64.846L297.644 77.662C298.03 77.346 296.49 78.662 307.344 69.298C307.409 69.257 307.457 69.1939 307.479 69.1204C307.501 69.0469 307.496 68.9679 307.464 68.898C307.08 67.478 306.298 64.518 306.264 64.412C305.584 65.042 307.33 63.526 300.244 69.656C299.726 70.1 300.276 69.98 297.866 61.746Z" fill="black"/>
<path d="M298.374 51.3659L299.61 56.0279C299.768 55.8939 303.86 52.3619 305.718 50.7499C305.994 50.5099 305.746 50.5659 307.99 58.7499L311.59 55.6499L308.224 42.8619L298.374 51.3659Z" fill="black"/>
<path d="M301.746 64.1559L305.354 61.0299L304.118 56.3219L300.504 59.4419L301.746 64.1559Z" fill="black"/>
<path d="M313.702 63.7299L312.492 59.0979L308.924 62.1819L310.15 66.8139L313.702 63.7299Z" fill="black"/>
<path d="M295.612 53.7139C291.958 56.8639 292.074 56.6399 292.156 56.9419C293.412 61.6359 293.264 61.5219 293.488 61.3259C294.952 60.0559 296.804 58.4699 296.948 58.3259C295.646 53.3859 295.812 53.5359 295.612 53.7139Z" fill="black"/>
<path d="M255.4 69.024C272.638 56.688 263.04 10 236.292 10C229.429 10.5248 222.649 11.8299 216.082 13.89C198.928 20.448 199.594 66.922 225.652 75.09C232.6 77.278 249.948 72.92 255.4 69.024Z" fill="#FDFE1F"/>
<path d="M240.442 9.18404C234.536 7.95404 226.662 9.88804 220.728 11.358C215.63 12.724 212.026 13.262 208.47 18.854C196.796 37.214 205.176 70.7681 226.166 76.4981C232.39 78.3461 247.26 74.5341 254.102 71.2601C273.632 61.9161 266.636 13.814 240.442 9.18404ZM221.4 14.058C230.936 11.612 228.4 12.31 226.94 13.308C223.745 15.7604 221.366 19.1225 220.118 22.952C214.61 24.352 215.776 25.016 208.638 24.864C212.062 16.092 216.158 15.46 221.4 14.058ZM207.868 27.078C214.678 25.734 209.208 26.102 219.362 25.372C218.327 29.6058 217.956 33.9745 218.262 38.322C212.982 39.44 214.596 40.298 206.126 40.064C205.977 35.668 206.568 31.2781 207.874 27.078H207.868ZM206.246 42.166C207.832 41.834 209.934 41.2541 211.71 41.0261C213.966 40.7381 216.872 40.8521 218.458 40.664C218.943 45.3024 219.998 49.8634 221.598 54.244C220.036 54.5921 217.558 55.4201 215.512 55.694C213.532 55.9601 211.026 55.8301 209.418 55.8941C207.713 51.4926 206.647 46.8697 206.252 42.166H206.246ZM210.306 58.0001C219.812 55.5701 218.35 56.9841 222.482 56.4761C223.897 59.9754 225.849 63.2331 228.266 66.1321C221.254 68.8341 222.766 67.7021 217.596 68.4961C214.483 65.5245 212.004 61.9543 210.306 58.0001ZM219.554 70.1341C220.835 69.5954 222.157 69.1607 223.508 68.8341C225.742 68.3781 230.124 68.2641 230.034 67.9401C233.065 70.5979 236.821 72.289 240.82 72.7961C228.254 75.4921 224.302 73.7001 219.554 70.1241V70.1341ZM261.64 57.2541C260.158 62.0981 257.476 66.8961 252.894 69.0021C249.648 70.8739 245.925 71.7534 242.184 71.5321C218.166 69.2801 210.012 15.484 235.362 11.462C252.4 10.662 268.434 33.476 261.64 57.2441V57.2541Z" fill="black"/>
<path d="M257.716 37.9281C255.208 28.8841 262.86 53.6321 250.904 63.9281C238.038 75.3761 225.104 49.9921 225.958 32.5021C226.994 13.2741 245.158 8.52808 255.228 31.4521C256.568 34.5681 257.028 36.4101 257.178 36.3701C256.97 34.5961 256.53 32.8571 255.868 31.1981C248.894 12.3081 234.246 11.3461 228.23 20.0681C220.168 31.3621 224.716 52.4301 235.12 64.1261C246.522 76.9081 263.622 59.3681 257.716 37.9281Z" fill="black"/>
<path d="M238.878 42.2641C239.889 42.6941 240.966 42.9497 242.062 43.0201C244.806 43.0201 247.462 39.7441 248.564 37.5741C248.854 37.0081 248.916 37.5501 247.798 34.8381C245.64 29.6749 243.012 24.7208 239.948 20.0381C237.474 26.3628 235.569 32.8953 234.254 39.5581C234.626 40.5741 234.974 41.0481 238.878 42.2641ZM240.256 24.3721C242.783 28.3887 244.909 32.6438 246.604 37.0761C243.532 42.4041 241.404 41.0021 239.46 40.3901C238.377 40.0837 237.324 39.6821 236.312 39.1901C237.255 34.1592 238.573 29.206 240.256 24.3721Z" fill="black"/>
<path d="M249.83 39.832C241.474 46.566 247.518 47.704 233.984 42.652C234.545 45.0214 235.537 47.2674 236.91 49.278C237.884 50.928 243.992 61.056 245.91 61.148C249.6 61.048 249.498 43.912 249.83 39.832ZM247.574 46.854C247.048 52.88 247.028 56.128 245.74 58.72C243.092 55.431 240.705 51.9412 238.598 48.282C235.896 43.682 238.05 47.848 243.276 47.698C247.2 47.6 248.014 41.8 247.574 46.854Z" fill="black"/>
<path d="M177.854 82.274C197.95 64.912 179.068 10.166 146.106 10.166C136.44 10.166 118.132 19.264 117.054 19.908C109.28 24.532 106.854 35.642 106.834 44.584C106.744 74.94 130.222 98.68 148.2 95.346C157.892 93.524 172.532 86.866 177.854 82.274Z" fill="#FDFE1F"/>
<path d="M154.892 10.4C144.218 6.48399 133.114 11.34 122.52 16C117.308 18.412 112.41 19.676 108.732 28.102C97.012 55.724 120.044 104.074 152.758 95.48C160.436 93.37 172.612 88.324 179.12 82.692C196.696 67.484 184.07 18.6 154.892 10.4ZM116.722 23.078C118.902 21.202 129.88 16.618 132.368 15.646C127.958 19.5445 125.088 24.8908 124.274 30.72C117.75 33.642 119.248 34.268 110.258 35.624C110.949 30.8367 113.225 26.4193 116.722 23.078ZM109.772 38.576C117.86 35.478 111.188 37.076 123.872 33.924C123.501 39.4759 123.983 45.0519 125.3 50.458C118.9 53.02 121.1 53.742 110.412 55.294C109.263 49.7966 109.047 44.1451 109.772 38.576ZM111.018 57.914C112.942 57.15 115.46 55.962 117.646 55.29C120.42 54.436 124.104 53.944 126.046 53.364C127.669 59.0927 129.989 64.6006 132.954 69.764C131.064 70.54 128.128 72.122 125.614 72.912C123.178 73.68 119.996 74.064 117.988 74.49C114.886 69.3255 112.539 63.7436 111.018 57.914ZM119.568 76.94C121.664 75.8952 123.816 74.969 126.016 74.166C128.916 73.254 132.816 72.896 134.552 72.366C137.096 76.4607 140.262 80.1346 143.936 83.256C135.686 88.19 137.356 86.428 131.026 88.554C126.462 85.4952 122.565 81.5446 119.568 76.94ZM133.846 90.2C135.34 89.2428 136.909 88.4081 138.538 87.704C141.416 86.578 146.738 85.562 146.554 85.156C150.943 87.8582 156.046 89.1684 161.194 88.914C145.902 95.076 140.556 93.636 133.846 90.2ZM175.544 81.512C171.168 84.512 167.878 86.63 162.622 87.028C151.422 87.902 144.022 82.25 137.672 73.084C114.75 39.8 127.094 -0.698006 160.568 16.2C188.088 32.258 189.78 71.736 175.544 81.502V81.512Z" fill="black"/>
<path d="M174.844 41.368C172.754 36.946 174.93 42.83 175.82 46.328C178.166 55.836 178.12 68.042 171.936 75.556C158.244 92.766 136.444 63.664 133.704 41.452C130.838 17.164 152.552 6.96796 170.304 33.754C172.668 37.382 173.652 39.6 173.828 39.518C173.182 37.3299 172.249 35.2371 171.054 33.294C158.15 11.016 139.514 13.06 133.854 25.312C123.712 47.098 145.712 80.566 159.718 82.73C175.06 85.4 184.468 61.762 174.844 41.368Z" fill="black"/>
<path d="M158.618 46.06C159.908 44.8674 160.839 43.3388 161.307 41.646C161.776 39.9531 161.763 38.1632 161.269 36.4774C160.776 34.7916 159.823 33.2767 158.516 32.1031C157.209 30.9295 155.601 30.1437 153.872 29.834C153.558 26.672 151.484 24.81 150.936 25.194C150.404 25.542 150.936 27.228 151.458 29.18C151.674 29.948 151.892 29.38 148.458 29.7C147.4 24.316 144.82 24.684 146.23 30.024C145.33 30.3642 144.454 30.7651 143.608 31.224C144.596 35.14 148.008 43.316 149.668 50.024C151.328 56.732 152.886 65.58 154.356 69.424C157.338 68.32 156.672 68.334 157.098 69.58C158.228 72.906 161.198 74.66 159.236 68.852C159.094 68.43 159.058 68.512 159.31 68.484C162.91 68.084 162.298 67.358 162.574 68.26C164.402 74.112 165.92 71.394 164.734 67.6C164.462 66.704 164.376 66.96 164.804 66.684C172.762 61.704 166.134 48.832 158.618 46.06ZM148.736 33.86C151.494 33.02 154.068 32.334 156.49 33.604C157.668 34.2042 158.594 35.2034 159.103 36.4234C159.613 37.6433 159.672 39.0045 159.27 40.264C157.926 44.112 153.31 44.49 150.644 45.152C149.89 41.212 149.292 37.078 148.736 33.856V33.86ZM157.07 64.2C154.958 59.6242 153.172 54.9051 151.724 50.078C153.876 49.2986 156.2 49.1202 158.446 49.562C166.49 52.058 171.74 65.564 157.07 64.2Z" fill="black"/>
<path d="M53.22 57.3419C46.366 59.6399 31.6 69.8739 29.2 72.8839C13.6 92.3619 40.98 151.8 76.552 151.046C83.966 150.89 99.268 140.744 106.45 133.416C128.108 111.31 89.2 45.2739 53.22 57.3419Z" fill="#FDFE1F"/>
<path d="M61.86 110C67 117.46 80.324 131.44 89.324 132.068C94.724 132.444 98.548 129.032 100.706 124.15C108.77 105.91 89.306 78.29 95.034 86.298C103.982 98.788 109.552 121.978 97.696 131.664C93.634 134.98 87.296 135.574 80.47 131.28C51.612 113.132 37.378 69.752 59.346 63.172C76.614 58 94.34 83.94 93.564 84.468C93.026 84.836 86.488 73.286 72.922 66.456C65.19 62.562 57.43 64.656 53.986 69.018C46.234 78.834 54.016 98.62 61.86 110Z" fill="black"/>
<path d="M50.676 57.056C43.7241 60.6173 37.0986 64.7827 30.876 69.504C11.146 85.576 33.706 144.198 70.192 151.904C73.6363 152.522 77.1722 152.409 80.57 151.572C86.202 149.818 95.726 144.638 106.056 135.512C107.779 133.936 109.245 132.1 110.4 130.07C125.454 103.9 86.4 41.512 50.676 57.056ZM37 69.818C39.912 67.752 42.77 65.732 45.65 63.944C41.8183 69.2398 40.0899 75.77 40.8 82.268C34.838 86.498 36.312 86.908 27.756 89.73C27.228 76.254 32.122 73.3 37 69.818ZM27.966 92.856C29.778 91.738 32.284 89.82 34.512 88.61C36.546 87.506 39.208 86.534 41.112 85.676C42.0816 92.0021 43.9526 98.1566 46.668 103.952C41.174 107.516 42.736 108.254 32.804 111.44C30.2508 105.529 28.6192 99.2615 27.966 92.856ZM34 114.06C35.77 112.942 38.016 111.324 40.038 110.276C42.638 108.932 46.214 107.804 48.082 106.876C51.1425 113.025 54.889 118.809 59.25 124.116C57.462 125.188 54.818 127.242 52.468 128.48C50.214 129.666 47.188 130.65 45.268 131.496C40.7793 126.192 36.9922 120.331 34 114.06ZM47.316 133.786C56.438 126.928 55.628 129.17 61.394 126.622C65.0027 130.787 69.1932 134.409 73.836 137.378C66.818 143.788 68.156 141.746 62.02 145.144C56.453 142.304 51.4633 138.452 47.306 133.786H47.316ZM75.316 148.344C71.8312 148.319 68.3782 147.679 65.116 146.454C71.716 140.352 73.532 141.514 76.9 139.016C82.0064 141.361 87.7325 141.999 93.23 140.836C88.878 143.674 80.454 148.548 75.296 148.344H75.316ZM107.35 128.314C106.343 129.988 105.097 131.506 103.652 132.82C99.452 136.446 98.182 137.93 93.052 138.9C81.186 141.204 72.572 135.084 64.344 126.356C47.382 107.654 31.716 71.688 53.676 59.778C84.382 47.776 122.322 103.094 107.35 128.314Z" fill="black"/>
<path d="M82.628 100.92C74.672 106.41 75.28 106.368 74.264 105.84C67.048 102.092 67.138 102.362 66.936 101.782C66.734 101.202 65.736 102.206 81.714 91.1141C82.314 90.7001 82.272 90.9001 89.584 94.6221C91.23 95.4601 90.292 95.6281 82.628 100.92Z" fill="black"/>
<path d="M63.96 97.47C63.506 97.086 63.726 97.47 62.76 89.148C62.628 88.012 61.744 88.948 77.664 78.062C78.742 77.326 78.788 79.754 78.912 80.872C79.53 86.472 79.796 87.046 79.166 87.472C63.16 98.4 64.4 97.842 63.96 97.47Z" fill="black"/>
<path d="M93.188 99.5641C93.62 99.9641 93.462 99.6821 94.388 108.044C94.49 108.96 95.432 108.02 79.406 118.998C78.9 119.344 78.516 118.798 78.448 118.18C77.59 110.316 77.338 109.98 77.954 109.566C94.074 98.4701 92.81 99.2201 93.188 99.5641Z" fill="black"/>
<path d="M370.952 264.488L363.498 261.196C358.124 272.912 317.898 366.232 316.91 367.596C316.456 366.728 302.878 313.646 302.858 313.246C302.858 313.196 302.7 314.192 302.692 314.12C302.644 314.15 302.722 313.144 302.62 313.242C292.116 326.708 291.204 328.274 285.304 336.368C284.662 334.018 277.12 307.066 277.058 306.75C273.858 308.462 250.304 328.44 249.536 327.666C248.692 326.818 261.136 312.666 280.012 297.466C280.526 299.14 283.108 307.412 283.108 307.412C288.484 323.242 287.666 321.764 288.392 320.366L306.14 296.22L318.754 344.524C318.754 344.524 353.122 265.396 356.468 258.1L349.096 254.846C348.701 254.672 348.363 254.389 348.123 254.03C347.882 253.672 347.748 253.252 347.737 252.82C347.725 252.389 347.836 251.963 348.057 251.592C348.277 251.22 348.599 250.92 348.984 250.724L366.242 241.948C366.548 241.793 366.885 241.708 367.228 241.701C367.571 241.694 367.911 241.764 368.223 241.906C368.535 242.049 368.811 242.26 369.031 242.523C369.25 242.787 369.407 243.097 369.49 243.43L374.09 261.854C374.192 262.268 374.176 262.703 374.044 263.108C373.912 263.514 373.668 263.874 373.342 264.149C373.015 264.423 372.618 264.6 372.195 264.66C371.773 264.72 371.342 264.66 370.952 264.488Z" fill="#FDFE1F"/>
<path d="M367.274 241.694C369.674 241.694 369.176 242.18 374.088 261.848C374.191 262.262 374.176 262.697 374.045 263.104C373.913 263.51 373.67 263.871 373.343 264.146C373.017 264.421 372.619 264.599 372.197 264.66C371.774 264.72 371.343 264.661 370.952 264.488L363.498 261.196C358.126 272.912 317.898 366.232 316.91 367.596C316.39 366.596 302.936 313.242 302.62 313.242C289.142 330.752 294.79 323.356 285.304 336.368C284.662 334.018 277.12 307.068 277.058 306.75C274.116 308.324 250.258 328.39 249.536 327.666C248 326.128 268.24 307.414 271.896 304.174C272.266 303.846 278.002 299.086 280.012 297.468C280.526 299.142 283.108 307.414 283.108 307.414C288.488 323.264 287.666 321.764 288.392 320.368L306.14 296.222L318.754 344.526C318.754 344.526 353.122 265.398 356.468 258.102L349.096 254.848C348.701 254.674 348.363 254.391 348.123 254.032C347.882 253.674 347.748 253.254 347.737 252.822C347.725 252.391 347.836 251.965 348.057 251.594C348.277 251.222 348.599 250.922 348.984 250.726C367.748 241.178 366.5 241.694 367.274 241.694ZM367.274 238.336C365.364 238.336 365.814 238.394 347.462 247.726C346.511 248.209 345.716 248.953 345.171 249.87C344.626 250.787 344.351 251.839 344.381 252.906C344.41 253.972 344.741 255.009 345.336 255.895C345.93 256.78 346.764 257.479 347.74 257.91L352 259.792C349.184 265.968 323.304 325.566 319.56 334.224L307.6 288.562L288.872 313.94C284.45 300.664 286.072 305.756 281.766 291.74C271.773 299.506 262.345 307.973 253.552 317.076C246.766 324.326 244.468 327.326 247.152 330.028C250.904 333.804 255.11 327.67 275.004 312.348C275.404 313.748 283.904 343.98 283.904 343.98L301.202 320.506C315.384 375.674 312.326 366.076 316.436 373.93C320.774 367.988 321.246 367.83 324.124 360.178C326.422 354.06 364.836 266.346 365.17 265.608C369.73 267.622 370.324 268.046 371.876 268.046C372.732 268.044 373.576 267.848 374.344 267.472C375.113 267.097 375.786 266.551 376.313 265.876C376.839 265.202 377.206 264.417 377.384 263.58C377.562 262.743 377.548 261.876 377.342 261.046L372.742 242.624C372.441 241.401 371.739 240.314 370.748 239.537C369.757 238.759 368.534 238.337 367.274 238.336Z" fill="black"/>
</svg>
